{
.appVersion = "1357";
DisplayStrings = (
"nonon.onon,nononNONONO:NOoonNONO;NONOnono/ellipsis NÔnnoononono!NÔnnoono¡NnnoonononoNON?no?nononnOn¿no¿o¡on¡n(onnNOon)onnnono{ONOno}H}O}[NONO]/quotedblleft/quotedblright/quoteleft NonoNOno/quoteright «onon»onoNOnoNo»/guilsinglright onoNOnoNonono/guilsinglright nonononoNON\"non'/leftanglebracket-math/rightanglebracket-math/space \"<>",
"a/Placeholder a/space b/Placeholder b/space c/Placeholder c/space d/Placeholder d/space e/Placeholder e/space f/Placeholder f/space g/Placeholder g/space h/Placeholder h/space i/Placeholder i/space jjj/space k/Placeholder k/space l/Placeholder l/space m/Placeholder m/space n/Placeholder n/space o/Placeholder o/space p/Placeholder p/space q/Placeholder q/space r/Placeholder r/space s/Placeholder s/space t/Placeholder t/space u/Placeholder u/space v/Placeholder v/space w/Placeholder w/space x/Placeholder x/space y/Placeholder y/space z/Placeholder z\012nn/Placeholder no/Placeholder oo\012abcdefghijklmnopqrstuvwxyz\012fear/space fall/space kilo/space long/space ovoide/space want/space wind/space oxo/space zapato\012Twombli/space Tgmaiwan/space Taiwan/space Tomato/space Temperture/space Tiro/space Twardock/space Walking/space Wonder/space Wc/space Wd/space/space Wrcnder/space/space You/space Family/space Fear/space Furor/space Vocal/space Viajar/space Zusam/space Pearl/space Point/space Pain/space Ayuda/space \012Kilo/space Londres/space Leon/space Lio/space Month/space \012Th/uhorn/ohorn ng/space T/ocircumflexacute t/space t/acircumflexacute t/space Nh/acircumflexacute t/space V/ocircumflexgrave ng/space/Dcroat/uhornacute ng/space B/uhornacute t/space/Dcroat/ocircumflexacute c/space k/ydotbelow ./space ng/uhorn/ohorngrave i/space Ng/uhorn/ohorntilde ng",

glyphs = (
{
glyphname = .notdef;
lastChange = "2021-11-14 00:33:59 +0000";
layers = (
{
background = {
paths = (
{
closed = 1;
nodes = (
"436 -35 LINE",
"444 -26 LINE",
"444 538 LINE",
"436 547 LINE",
"49 547 LINE",
"40 538 LINE",
"40 -26 LINE",
"49 -35 LINE"
);
},
{
closed = 1;
nodes = (
"136 104 LINE",
"219 257 LINE",
"136 408 LINE",
"153 441 LINE",
"236 289 LINE",
"321 441 LINE",
"340 408 LINE",
"254 255 LINE",
"340 104 LINE",
"321 72 LINE",
"236 222 LINE",
"153 72 LINE"
);
},
{
closed = 1;
nodes = (
"56 -19 LINE",
"56 531 LINE",
"430 531 LINE",
"430 -19 LINE"
);
},
{
closed = 1;
nodes = (
"87 10 LINE",
"397 10 LINE",
"397 498 LINE",
"87 498 LINE"
);
}
);
};
layerId = "A20F32D1-A37C-460A-962C-541C205D5E83";
paths = (
{
closed = 1;
nodes = (
"436 -35 LINE",
"444 -26 LINE",
"444 538 LINE",
"436 547 LINE",
"49 547 LINE",
"40 538 LINE",
"40 -26 LINE",
"49 -35 LINE"
);
},
{
closed = 1;
nodes = (
"136 104 LINE",
"219 257 LINE",
"136 408 LINE",
"153 441 LINE",
"236 289 LINE",
"321 441 LINE",
"340 408 LINE",
"254 255 LINE",
"340 104 LINE",
"321 72 LINE",
"236 222 LINE",
"153 72 LINE"
);
},
{
closed = 1;
nodes = (
"56 531 LINE",
"430 531 LINE",
"430 -19 LINE",
"56 -19 LINE"
);
},
{
closed = 1;
nodes = (
"397 10 LINE",
"397 498 LINE",
"87 498 LINE",
"87 10 LINE"
);
}
);
width = 484;
}
);
note = .notdef;
},
{
glyphname = A;
lastChange = "2021-11-14 00:43:55 +0000";
layers = (
{
anchors = (
{
name = bottom;
position = "{427, 0}";
},
{
name = ogonek;
position = "{744, -36}";
},
{
name = top;
position = "{617, 556}";
}
);
background = {
paths = (
{
closed = 1;
nodes = (
"685 -52 OFFCURVE",
"715 -40 OFFCURVE",
"741 -16 CURVE SMOOTH",
"768 8 OFFCURVE",
"781 36 OFFCURVE",
"781 67 CURVE SMOOTH",
"781 81 OFFCURVE",
"776 94 OFFCURVE",
"765 105 CURVE SMOOTH",
"754 115 OFFCURVE",
"741 121 OFFCURVE",
"726 121 CURVE SMOOTH",
"701 121 OFFCURVE",
"688 103 OFFCURVE",
"688 67 CURVE SMOOTH",
"688 33 OFFCURVE",
"692 16 OFFCURVE",
"701 16 CURVE SMOOTH",
"707 16 OFFCURVE",
"709 21 OFFCURVE",
"709 29 CURVE SMOOTH",
"709 34 OFFCURVE",
"708 42 OFFCURVE",
"706 51 CURVE SMOOTH",
"704 61 OFFCURVE",
"703 68 OFFCURVE",
"703 73 CURVE SMOOTH",
"703 92 OFFCURVE",
"709 102 OFFCURVE",
"720 102 CURVE SMOOTH",
"728 102 OFFCURVE",
"735 98 OFFCURVE",
"741 90 CURVE SMOOTH",
"748 82 OFFCURVE",
"751 73 OFFCURVE",
"751 65 CURVE SMOOTH",
"751 40 OFFCURVE",
"743 18 OFFCURVE",
"728 0 CURVE SMOOTH",
"713 -18 OFFCURVE",
"693 -27 OFFCURVE",
"669 -27 CURVE SMOOTH",
"609 -27 OFFCURVE",
"575 36 OFFCURVE",
"565 163 CURVE",
"584 164 OFFCURVE",
"602 171 OFFCURVE",
"618 183 CURVE SMOOTH",
"634 196 OFFCURVE",
"642 211 OFFCURVE",
"642 230 CURVE SMOOTH",
"642 238 OFFCURVE",
"639 246 OFFCURVE",
"632 252 CURVE SMOOTH",
"626 259 OFFCURVE",
"618 262 OFFCURVE",
"609 262 CURVE SMOOTH",
"602 262 OFFCURVE",
"599 258 OFFCURVE",
"599 251 CURVE SMOOTH",
"599 246 OFFCURVE",
"601 241 OFFCURVE",
"606 235 CURVE SMOOTH",
"611 228 OFFCURVE",
"613 225 OFFCURVE",
"613 223 CURVE SMOOTH",
"613 216 OFFCURVE",
"596 210 OFFCURVE",
"563 208 CURVE",
"563 300 OFFCURVE",
"575 382 OFFCURVE",
"598 452 CURVE",
"598 454 OFFCURVE",
"599 456 OFFCURVE",
"599 458 CURVE SMOOTH",
"599 466 OFFCURVE",
"595 470 OFFCURVE",
"588 470 CURVE SMOOTH",
"584 470 OFFCURVE",
"578 468 OFFCURVE",
"573 462 CURVE SMOOTH",
"537 422 OFFCURVE",
"519 348 OFFCURVE",
"519 240 CURVE SMOOTH",
"519 230 OFFCURVE",
"520 219 OFFCURVE",
"520 207 CURVE",
"499 210 OFFCURVE",
"468 216 OFFCURVE",
"427 226 CURVE",
"465 324 OFFCURVE",
"492 387 OFFCURVE",
"506 414 CURVE SMOOTH",
"551 499 OFFCURVE",
"596 542 OFFCURVE",
"641 542 CURVE SMOOTH",
"642 542 OFFCURVE",
"643 542 OFFCURVE",
"644 541 CURVE",
"648 541 LINE SMOOTH",
"659 541 OFFCURVE",
"664 544 OFFCURVE",
"664 549 CURVE SMOOTH",
"664 558 OFFCURVE",
"658 562 OFFCURVE",
"644 562 CURVE SMOOTH",
"602 562 OFFCURVE",
"559 534 OFFCURVE",
"514 477 CURVE SMOOTH",
"478 432 OFFCURVE",
"450 384 OFFCURVE",
"431 333 CURVE SMOOTH",
"416 293 OFFCURVE",
"404 261 OFFCURVE",
"392 236 CURVE",
"360 243 OFFCURVE",
"332 247 OFFCURVE",
"309 247 CURVE SMOOTH",
"299 247 OFFCURVE",
"287 243 OFFCURVE",
"273 235 CURVE SMOOTH",
"259 227 OFFCURVE",
"252 219 OFFCURVE",
"252 209 CURVE SMOOTH",
"252 204 OFFCURVE",
"254 202 OFFCURVE",
"258 202 CURVE",
"258 202 OFFCURVE",
"263 205 OFFCURVE",
"273 213 CURVE SMOOTH",
"282 220 OFFCURVE",
"291 224 OFFCURVE",
"300 224 CURVE SMOOTH",
"323 224 OFFCURVE",
"349 219 OFFCURVE",
"380 208 CURVE",
"308 57 OFFCURVE",
"214 -18 OFFCURVE",
"97 -18 CURVE SMOOTH",
"61 -18 OFFCURVE",
"43 -7 OFFCURVE",
"43 15 CURVE SMOOTH",
"43 32 OFFCURVE",
"53 50 OFFCURVE",
"74 69 CURVE SMOOTH",
"91 84 OFFCURVE",
"108 95 OFFCURVE",
"127 102 CURVE SMOOTH",
"146 109 OFFCURVE",
"164 113 OFFCURVE",
"182 113 CURVE SMOOTH",
"215 113 OFFCURVE",
"231 108 OFFCURVE",
"231 99 CURVE SMOOTH",
"231 89 OFFCURVE",
"218 77 OFFCURVE",
"192 64 CURVE SMOOTH",
"165 52 OFFCURVE",
"146 45 OFFCURVE",
"135 45 CURVE SMOOTH",
"123 45 OFFCURVE",
"117 41 OFFCURVE",
"117 33 CURVE SMOOTH",
"117 29 OFFCURVE",
"120 27 OFFCURVE",
"125 27 CURVE SMOOTH",
"150 27 OFFCURVE",
"176 35 OFFCURVE",
"204 50 CURVE SMOOTH",
"237 67 OFFCURVE",
"253 87 OFFCURVE",
"253 109 CURVE SMOOTH",
"253 131 OFFCURVE",
"229 141 OFFCURVE",
"182 141 CURVE SMOOTH",
"166 141 OFFCURVE",
"148 138 OFFCURVE",
"129 132 CURVE SMOOTH",
"50 104 OFFCURVE",
"11 62 OFFCURVE",
"11 5 CURVE SMOOTH",
"11 -25 OFFCURVE",
"37 -40 OFFCURVE",
"88 -40 CURVE SMOOTH",
"172 -40 OFFCURVE",
"239 -19 OFFCURVE",
"291 22 CURVE SMOOTH",
"336 57 OFFCURVE",
"377 115 OFFCURVE",
"414 195 CURVE",
"465 176 OFFCURVE",
"502 165 OFFCURVE",
"524 162 CURVE",
"539 19 OFFCURVE",
"582 -52 OFFCURVE",
"653 -52 CURVE SMOOTH"
);
}
);
};
layerId = "A20F32D1-A37C-460A-962C-541C205D5E83";
paths = (
{
closed = 1;
nodes = (
"685 -52 OFFCURVE",
"715 -40 OFFCURVE",
"741 -16 CURVE SMOOTH",
"768 8 OFFCURVE",
"781 36 OFFCURVE",
"781 67 CURVE SMOOTH",
"781 81 OFFCURVE",
"776 94 OFFCURVE",
"765 105 CURVE SMOOTH",
"754 115 OFFCURVE",
"741 121 OFFCURVE",
"726 121 CURVE SMOOTH",
"701 121 OFFCURVE",
"688 103 OFFCURVE",
"688 67 CURVE SMOOTH",
"688 33 OFFCURVE",
"692 16 OFFCURVE",
"701 16 CURVE SMOOTH",
"707 16 OFFCURVE",
"709 21 OFFCURVE",
"709 29 CURVE SMOOTH",
"709 34 OFFCURVE",
"708 42 OFFCURVE",
"706 51 CURVE SMOOTH",
"704 61 OFFCURVE",
"703 68 OFFCURVE",
"703 73 CURVE SMOOTH",
"703 92 OFFCURVE",
"709 102 OFFCURVE",
"720 102 CURVE SMOOTH",
"728 102 OFFCURVE",
"735 98 OFFCURVE",
"741 90 CURVE SMOOTH",
"748 82 OFFCURVE",
"751 73 OFFCURVE",
"751 65 CURVE SMOOTH",
"751 40 OFFCURVE",
"743 18 OFFCURVE",
"728 0 CURVE SMOOTH",
"713 -18 OFFCURVE",
"693 -27 OFFCURVE",
"669 -27 CURVE SMOOTH",
"609 -27 OFFCURVE",
"575 36 OFFCURVE",
"565 163 CURVE",
"584 164 OFFCURVE",
"602 171 OFFCURVE",
"618 183 CURVE SMOOTH",
"634 196 OFFCURVE",
"642 211 OFFCURVE",
"642 230 CURVE SMOOTH",
"642 238 OFFCURVE",
"639 246 OFFCURVE",
"632 252 CURVE SMOOTH",
"626 259 OFFCURVE",
"618 262 OFFCURVE",
"609 262 CURVE SMOOTH",
"602 262 OFFCURVE",
"599 258 OFFCURVE",
"599 251 CURVE SMOOTH",
"599 246 OFFCURVE",
"601 241 OFFCURVE",
"606 235 CURVE SMOOTH",
"611 228 OFFCURVE",
"613 225 OFFCURVE",
"613 223 CURVE SMOOTH",
"613 216 OFFCURVE",
"596 210 OFFCURVE",
"563 208 CURVE",
"563 300 OFFCURVE",
"575 382 OFFCURVE",
"598 452 CURVE",
"598 454 OFFCURVE",
"599 456 OFFCURVE",
"599 458 CURVE SMOOTH",
"599 466 OFFCURVE",
"595 470 OFFCURVE",
"588 470 CURVE SMOOTH",
"584 470 OFFCURVE",
"578 468 OFFCURVE",
"573 462 CURVE SMOOTH",
"537 422 OFFCURVE",
"519 348 OFFCURVE",
"519 240 CURVE SMOOTH",
"519 230 OFFCURVE",
"520 219 OFFCURVE",
"520 207 CURVE",
"499 210 OFFCURVE",
"468 216 OFFCURVE",
"427 226 CURVE",
"465 324 OFFCURVE",
"492 387 OFFCURVE",
"506 414 CURVE SMOOTH",
"551 499 OFFCURVE",
"596 542 OFFCURVE",
"641 542 CURVE SMOOTH",
"642 542 OFFCURVE",
"643 542 OFFCURVE",
"644 541 CURVE",
"648 541 LINE SMOOTH",
"659 541 OFFCURVE",
"664 544 OFFCURVE",
"664 549 CURVE SMOOTH",
"664 558 OFFCURVE",
"658 562 OFFCURVE",
"644 562 CURVE SMOOTH",
"602 562 OFFCURVE",
"559 534 OFFCURVE",
"514 477 CURVE SMOOTH",
"478 432 OFFCURVE",
"450 384 OFFCURVE",
"431 333 CURVE SMOOTH",
"416 293 OFFCURVE",
"404 261 OFFCURVE",
"392 236 CURVE",
"360 243 OFFCURVE",
"332 247 OFFCURVE",
"309 247 CURVE SMOOTH",
"299 247 OFFCURVE",
"287 243 OFFCURVE",
"273 235 CURVE SMOOTH",
"259 227 OFFCURVE",
"252 219 OFFCURVE",
"252 209 CURVE SMOOTH",
"252 204 OFFCURVE",
"254 202 OFFCURVE",
"258 202 CURVE",
"258 202 OFFCURVE",
"263 205 OFFCURVE",
"273 213 CURVE SMOOTH",
"282 220 OFFCURVE",
"291 224 OFFCURVE",
"300 224 CURVE SMOOTH",
"323 224 OFFCURVE",
"349 219 OFFCURVE",
"380 208 CURVE",
"308 57 OFFCURVE",
"214 -18 OFFCURVE",
"97 -18 CURVE SMOOTH",
"61 -18 OFFCURVE",
"43 -7 OFFCURVE",
"43 15 CURVE SMOOTH",
"43 32 OFFCURVE",
"53 50 OFFCURVE",
"74 69 CURVE SMOOTH",
"91 84 OFFCURVE",
"108 95 OFFCURVE",
"127 102 CURVE SMOOTH",
"146 109 OFFCURVE",
"164 113 OFFCURVE",
"182 113 CURVE SMOOTH",
"215 113 OFFCURVE",
"231 108 OFFCURVE",
"231 99 CURVE SMOOTH",
"231 89 OFFCURVE",
"218 77 OFFCURVE",
"192 64 CURVE SMOOTH",
"165 52 OFFCURVE",
"146 45 OFFCURVE",
"135 45 CURVE SMOOTH",
"123 45 OFFCURVE",
"117 41 OFFCURVE",
"117 33 CURVE SMOOTH",
"117 29 OFFCURVE",
"120 27 OFFCURVE",
"125 27 CURVE SMOOTH",
"150 27 OFFCURVE",
"176 35 OFFCURVE",
"204 50 CURVE SMOOTH",
"237 67 OFFCURVE",
"253 87 OFFCURVE",
"253 109 CURVE SMOOTH",
"253 131 OFFCURVE",
"229 141 OFFCURVE",
"182 141 CURVE SMOOTH",
"166 141 OFFCURVE",
"148 138 OFFCURVE",
"129 132 CURVE SMOOTH",
"50 104 OFFCURVE",
"11 62 OFFCURVE",
"11 5 CURVE SMOOTH",
"11 -25 OFFCURVE",
"37 -40 OFFCURVE",
"88 -40 CURVE SMOOTH",
"172 -40 OFFCURVE",
"239 -19 OFFCURVE",
"291 22 CURVE SMOOTH",
"336 57 OFFCURVE",
"377 115 OFFCURVE",
"414 195 CURVE",
"465 176 OFFCURVE",
"502 165 OFFCURVE",
"524 162 CURVE",
"539 19 OFFCURVE",
"582 -52 OFFCURVE",
"653 -52 CURVE SMOOTH"
);
}
);
width = 778;
}
);
note = A;
unicode = 0041;
},
{
glyphname = AE;
lastChange = "2021-11-13 23:22:35 +0000";
layers = (
{
anchors = (
{
name = bottom;
position = "{504, 0}";
},
{
name = top;
position = "{803, 555}";
}
);
background = {
paths = (
{
closed = 1;
nodes = (
"832 -87 OFFCURVE",
"878 -74 OFFCURVE",
"922 -48 CURVE SMOOTH",
"973 -16 OFFCURVE",
"998 23 OFFCURVE",
"998 70 CURVE SMOOTH",
"998 99 OFFCURVE",
"990 122 OFFCURVE",
"975 139 CURVE SMOOTH",
"959 156 OFFCURVE",
"937 164 OFFCURVE",
"908 164 CURVE SMOOTH",
"873 164 OFFCURVE",
"842 155 OFFCURVE",
"815 138 CURVE SMOOTH",
"785 117 OFFCURVE",
"770 90 OFFCURVE",
"770 57 CURVE SMOOTH",
"770 20 OFFCURVE",
"788 1 OFFCURVE",
"825 1 CURVE SMOOTH",
"837 1 OFFCURVE",
"848 5 OFFCURVE",
"857 12 CURVE SMOOTH",
"867 19 OFFCURVE",
"871 28 OFFCURVE",
"871 40 CURVE SMOOTH",
"871 59 OFFCURVE",
"866 69 OFFCURVE",
"855 69 CURVE SMOOTH",
"851 69 OFFCURVE",
"850 66 OFFCURVE",
"850 62 CURVE SMOOTH",
"850 60 OFFCURVE",
"850 58 OFFCURVE",
"851 55 CURVE",
"853 52 OFFCURVE",
"853 50 OFFCURVE",
"853 48 CURVE SMOOTH",
"853 33 OFFCURVE",
"844 25 OFFCURVE",
"825 25 CURVE SMOOTH",
"813 25 OFFCURVE",
"807 34 OFFCURVE",
"807 51 CURVE SMOOTH",
"807 77 OFFCURVE",
"818 99 OFFCURVE",
"839 116 CURVE SMOOTH",
"858 132 OFFCURVE",
"882 140 OFFCURVE",
"908 140 CURVE SMOOTH",
"919 140 OFFCURVE",
"930 131 OFFCURVE",
"941 115 CURVE SMOOTH",
"953 98 OFFCURVE",
"959 84 OFFCURVE",
"959 73 CURVE SMOOTH",
"959 30 OFFCURVE",
"939 -3 OFFCURVE",
"900 -29 CURVE SMOOTH",
"866 -51 OFFCURVE",
"826 -62 OFFCURVE",
"781 -62 CURVE SMOOTH",
"681 -62 OFFCURVE",
"631 -19 OFFCURVE",
"631 66 CURVE SMOOTH",
"631 138 OFFCURVE",
"654 200 OFFCURVE",
"701 249 CURVE",
"729 228 OFFCURVE",
"760 218 OFFCURVE",
"793 218 CURVE SMOOTH",
"870 218 OFFCURVE",
"908 236 OFFCURVE",
"908 271 CURVE SMOOTH",
"908 288 OFFCURVE",
"900 301 OFFCURVE",
"883 311 CURVE SMOOTH",
"867 320 OFFCURVE",
"850 325 OFFCURVE",
"833 325 CURVE SMOOTH",
"787 325 OFFCURVE",
"745 313 OFFCURVE",
"707 290 CURVE",
"699 310 OFFCURVE",
"695 333 OFFCURVE",
"695 360 CURVE SMOOTH",
"695 401 OFFCURVE",
"713 440 OFFCURVE",
"748 476 CURVE SMOOTH",
"783 513 OFFCURVE",
"822 531 OFFCURVE",
"863 531 CURVE SMOOTH",
"882 531 OFFCURVE",
"900 525 OFFCURVE",
"915 514 CURVE SMOOTH",
"933 501 OFFCURVE",
"942 486 OFFCURVE",
"942 467 CURVE SMOOTH",
"942 454 OFFCURVE",
"935 442 OFFCURVE",
"921 430 CURVE SMOOTH",
"907 418 OFFCURVE",
"900 411 OFFCURVE",
"900 407 CURVE SMOOTH",
"900 402 OFFCURVE",
"903 399 OFFCURVE",
"908 399 CURVE SMOOTH",
"923 399 OFFCURVE",
"937 406 OFFCURVE",
"951 422 CURVE SMOOTH",
"966 437 OFFCURVE",
"973 452 OFFCURVE",
"973 466 CURVE SMOOTH",
"973 492 OFFCURVE",
"960 514 OFFCURVE",
"935 531 CURVE SMOOTH",
"912 547 OFFCURVE",
"887 555 OFFCURVE",
"860 555 CURVE SMOOTH",
"803 555 OFFCURVE",
"754 536 OFFCURVE",
"712 499 CURVE SMOOTH",
"668 460 OFFCURVE",
"646 412 OFFCURVE",
"646 356 CURVE SMOOTH",
"646 324 OFFCURVE",
"657 296 OFFCURVE",
"678 271 CURVE",
"636 238 OFFCURVE",
"609 195 OFFCURVE",
"595 141 CURVE",
"591 172 OFFCURVE",
"589 204 OFFCURVE",
"589 239 CURVE SMOOTH",
"589 324 OFFCURVE",
"599 396 OFFCURVE",
"621 452 CURVE SMOOTH",
"622 455 OFFCURVE",
"622 457 OFFCURVE",
"622 458 CURVE SMOOTH",
"622 466 OFFCURVE",
"618 470 OFFCURVE",
"610 470 CURVE SMOOTH",
"606 470 OFFCURVE",
"601 467 OFFCURVE",
"597 462 CURVE SMOOTH",
"560 419 OFFCURVE",
"542 345 OFFCURVE",
"542 240 CURVE SMOOTH",
"542 230 OFFCURVE",
"542 219 OFFCURVE",
"543 207 CURVE",
"522 209 OFFCURVE",
"491 215 OFFCURVE",
"449 226 CURVE",
"459 251 OFFCURVE",
"466 269 OFFCURVE",
"471 283 CURVE SMOOTH",
"491 341 OFFCURVE",
"515 394 OFFCURVE",
"543 439 CURVE SMOOTH",
"584 508 OFFCURVE",
"625 542 OFFCURVE",
"664 542 CURVE SMOOTH",
"665 542 OFFCURVE",
"668 542 OFFCURVE",
"671 541 CURVE",
"679 541 LINE SMOOTH",
"685 541 OFFCURVE",
"688 544 OFFCURVE",
"688 549 CURVE SMOOTH",
"688 558 OFFCURVE",
"681 562 OFFCURVE",
"667 562 CURVE SMOOTH",
"626 562 OFFCURVE",
"582 533 OFFCURVE",
"536 476 CURVE SMOOTH",
"509 442 OFFCURVE",
"485 403 OFFCURVE",
"466 359 CURVE SMOOTH",
"449 318 OFFCURVE",
"433 277 OFFCURVE",
"416 236 CURVE",
"383 243 OFFCURVE",
"355 247 OFFCURVE",
"331 247 CURVE SMOOTH",
"322 247 OFFCURVE",
"310 243 OFFCURVE",
"296 235 CURVE SMOOTH",
"282 227 OFFCURVE",
"275 219 OFFCURVE",
"275 209 CURVE SMOOTH",
"275 204 OFFCURVE",
"277 202 OFFCURVE",
"281 202 CURVE",
"281 202 OFFCURVE",
"287 205 OFFCURVE",
"296 213 CURVE SMOOTH",
"306 220 OFFCURVE",
"315 224 OFFCURVE",
"323 224 CURVE SMOOTH",
"345 224 OFFCURVE",
"372 219 OFFCURVE",
"403 208 CURVE",
"331 57 OFFCURVE",
"236 -18 OFFCURVE",
"120 -18 CURVE SMOOTH",
"84 -18 OFFCURVE",
"67 -7 OFFCURVE",
"67 15 CURVE SMOOTH",
"67 41 OFFCURVE",
"84 64 OFFCURVE",
"119 85 CURVE SMOOTH",
"150 103 OFFCURVE",
"179 113 OFFCURVE",
"206 113 CURVE SMOOTH",
"239 113 OFFCURVE",
"255 108 OFFCURVE",
"255 99 CURVE SMOOTH",
"255 89 OFFCURVE",
"242 78 OFFCURVE",
"215 65 CURVE",
"201 60 OFFCURVE",
"187 55 OFFCURVE",
"173 51 CURVE SMOOTH",
"151 43 OFFCURVE",
"140 37 OFFCURVE",
"140 33 CURVE SMOOTH",
"140 29 OFFCURVE",
"143 27 OFFCURVE",
"149 27 CURVE SMOOTH",
"165 27 OFFCURVE",
"181 30 OFFCURVE",
"198 36 CURVE SMOOTH",
"216 42 OFFCURVE",
"232 51 OFFCURVE",
"248 64 CURVE SMOOTH",
"266 79 OFFCURVE",
"275 95 OFFCURVE",
"275 109 CURVE SMOOTH",
"275 131 OFFCURVE",
"252 141 OFFCURVE",
"206 141 CURVE SMOOTH",
"190 141 OFFCURVE",
"172 138 OFFCURVE",
"151 132 CURVE SMOOTH",
"73 105 OFFCURVE",
"33 62 OFFCURVE",
"33 5 CURVE SMOOTH",
"33 -25 OFFCURVE",
"59 -40 OFFCURVE",
"112 -40 CURVE SMOOTH",
"195 -40 OFFCURVE",
"262 -19 OFFCURVE",
"314 22 CURVE SMOOTH",
"360 57 OFFCURVE",
"401 115 OFFCURVE",
"437 195 CURVE",
"488 176 OFFCURVE",
"525 165 OFFCURVE",
"547 162 CURVE",
"551 127 OFFCURVE",
"559 94 OFFCURVE",
"572 64 CURVE SMOOTH",
"579 47 OFFCURVE",
"584 35 OFFCURVE",
"588 28 CURVE",
"598 -4 LINE",
"623 -60 OFFCURVE",
"684 -87 OFFCURVE",
"781 -87 CURVE SMOOTH"
);
},
{
closed = 1;
nodes = (
"755 237 OFFCURVE",
"734 247 OFFCURVE",
"720 267 CURVE",
"751 293 OFFCURVE",
"785 306 OFFCURVE",
"824 306 CURVE SMOOTH",
"839 306 OFFCURVE",
"846 298 OFFCURVE",
"846 283 CURVE SMOOTH",
"846 268 OFFCURVE",
"839 257 OFFCURVE",
"826 249 CURVE SMOOTH",
"812 241 OFFCURVE",
"798 237 OFFCURVE",
"782 237 CURVE SMOOTH"
);
}
);
};
layerId = "A20F32D1-A37C-460A-962C-541C205D5E83";
paths = (
{
closed = 1;
nodes = (
"832 -87 OFFCURVE",
"878 -74 OFFCURVE",
"922 -48 CURVE SMOOTH",
"973 -16 OFFCURVE",
"998 23 OFFCURVE",
"998 70 CURVE SMOOTH",
"998 99 OFFCURVE",
"990 122 OFFCURVE",
"975 139 CURVE SMOOTH",
"959 156 OFFCURVE",
"937 164 OFFCURVE",
"908 164 CURVE SMOOTH",
"873 164 OFFCURVE",
"842 155 OFFCURVE",
"815 138 CURVE SMOOTH",
"785 117 OFFCURVE",
"770 90 OFFCURVE",
"770 57 CURVE SMOOTH",
"770 20 OFFCURVE",
"788 1 OFFCURVE",
"825 1 CURVE SMOOTH",
"837 1 OFFCURVE",
"848 5 OFFCURVE",
"857 12 CURVE SMOOTH",
"867 19 OFFCURVE",
"871 28 OFFCURVE",
"871 40 CURVE SMOOTH",
"871 59 OFFCURVE",
"866 69 OFFCURVE",
"855 69 CURVE SMOOTH",
"851 69 OFFCURVE",
"850 66 OFFCURVE",
"850 62 CURVE SMOOTH",
"850 60 OFFCURVE",
"850 58 OFFCURVE",
"851 55 CURVE",
"853 52 OFFCURVE",
"853 50 OFFCURVE",
"853 48 CURVE SMOOTH",
"853 33 OFFCURVE",
"844 25 OFFCURVE",
"825 25 CURVE SMOOTH",
"813 25 OFFCURVE",
"807 34 OFFCURVE",
"807 51 CURVE SMOOTH",
"807 77 OFFCURVE",
"818 99 OFFCURVE",
"839 116 CURVE SMOOTH",
"858 132 OFFCURVE",
"882 140 OFFCURVE",
"908 140 CURVE SMOOTH",
"919 140 OFFCURVE",
"930 131 OFFCURVE",
"941 115 CURVE SMOOTH",
"953 98 OFFCURVE",
"959 84 OFFCURVE",
"959 73 CURVE SMOOTH",
"959 30 OFFCURVE",
"939 -3 OFFCURVE",
"900 -29 CURVE SMOOTH",
"866 -51 OFFCURVE",
"826 -62 OFFCURVE",
"781 -62 CURVE SMOOTH",
"681 -62 OFFCURVE",
"631 -19 OFFCURVE",
"631 66 CURVE SMOOTH",
"631 138 OFFCURVE",
"654 200 OFFCURVE",
"701 249 CURVE",
"729 228 OFFCURVE",
"760 218 OFFCURVE",
"793 218 CURVE SMOOTH",
"870 218 OFFCURVE",
"908 236 OFFCURVE",
"908 271 CURVE SMOOTH",
"908 288 OFFCURVE",
"900 301 OFFCURVE",
"883 311 CURVE SMOOTH",
"867 320 OFFCURVE",
"850 325 OFFCURVE",
"833 325 CURVE SMOOTH",
"787 325 OFFCURVE",
"745 313 OFFCURVE",
"707 290 CURVE",
"699 310 OFFCURVE",
"695 333 OFFCURVE",
"695 360 CURVE SMOOTH",
"695 401 OFFCURVE",
"713 440 OFFCURVE",
"748 476 CURVE SMOOTH",
"783 513 OFFCURVE",
"822 531 OFFCURVE",
"863 531 CURVE SMOOTH",
"882 531 OFFCURVE",
"900 525 OFFCURVE",
"915 514 CURVE SMOOTH",
"933 501 OFFCURVE",
"942 486 OFFCURVE",
"942 467 CURVE SMOOTH",
"942 454 OFFCURVE",
"935 442 OFFCURVE",
"921 430 CURVE SMOOTH",
"907 418 OFFCURVE",
"900 411 OFFCURVE",
"900 407 CURVE SMOOTH",
"900 402 OFFCURVE",
"903 399 OFFCURVE",
"908 399 CURVE SMOOTH",
"923 399 OFFCURVE",
"937 406 OFFCURVE",
"951 422 CURVE SMOOTH",
"966 437 OFFCURVE",
"973 452 OFFCURVE",
"973 466 CURVE SMOOTH",
"973 492 OFFCURVE",
"960 514 OFFCURVE",
"935 531 CURVE SMOOTH",
"912 547 OFFCURVE",
"887 555 OFFCURVE",
"860 555 CURVE SMOOTH",
"803 555 OFFCURVE",
"754 536 OFFCURVE",
"712 499 CURVE SMOOTH",
"668 460 OFFCURVE",
"646 412 OFFCURVE",
"646 356 CURVE SMOOTH",
"646 324 OFFCURVE",
"657 296 OFFCURVE",
"678 271 CURVE",
"636 238 OFFCURVE",
"609 195 OFFCURVE",
"595 141 CURVE",
"591 172 OFFCURVE",
"589 204 OFFCURVE",
"589 239 CURVE SMOOTH",
"589 324 OFFCURVE",
"599 396 OFFCURVE",
"621 452 CURVE SMOOTH",
"622 455 OFFCURVE",
"622 457 OFFCURVE",
"622 458 CURVE SMOOTH",
"622 466 OFFCURVE",
"618 470 OFFCURVE",
"610 470 CURVE SMOOTH",
"606 470 OFFCURVE",
"601 467 OFFCURVE",
"597 462 CURVE SMOOTH",
"560 419 OFFCURVE",
"542 345 OFFCURVE",
"542 240 CURVE SMOOTH",
"542 230 OFFCURVE",
"542 219 OFFCURVE",
"543 207 CURVE",
"522 209 OFFCURVE",
"491 215 OFFCURVE",
"449 226 CURVE",
"459 251 OFFCURVE",
"466 269 OFFCURVE",
"471 283 CURVE SMOOTH",
"491 341 OFFCURVE",
"515 394 OFFCURVE",
"543 439 CURVE SMOOTH",
"584 508 OFFCURVE",
"625 542 OFFCURVE",
"664 542 CURVE SMOOTH",
"665 542 OFFCURVE",
"668 542 OFFCURVE",
"671 541 CURVE",
"679 541 LINE SMOOTH",
"685 541 OFFCURVE",
"688 544 OFFCURVE",
"688 549 CURVE SMOOTH",
"688 558 OFFCURVE",
"681 562 OFFCURVE",
"667 562 CURVE SMOOTH",
"626 562 OFFCURVE",
"582 533 OFFCURVE",
"536 476 CURVE SMOOTH",
"509 442 OFFCURVE",
"485 403 OFFCURVE",
"466 359 CURVE SMOOTH",
"449 318 OFFCURVE",
"433 277 OFFCURVE",
"416 236 CURVE",
"383 243 OFFCURVE",
"355 247 OFFCURVE",
"331 247 CURVE SMOOTH",
"322 247 OFFCURVE",
"310 243 OFFCURVE",
"296 235 CURVE SMOOTH",
"282 227 OFFCURVE",
"275 219 OFFCURVE",
"275 209 CURVE SMOOTH",
"275 204 OFFCURVE",
"277 202 OFFCURVE",
"281 202 CURVE",
"281 202 OFFCURVE",
"287 205 OFFCURVE",
"296 213 CURVE SMOOTH",
"306 220 OFFCURVE",
"315 224 OFFCURVE",
"323 224 CURVE SMOOTH",
"345 224 OFFCURVE",
"372 219 OFFCURVE",
"403 208 CURVE",
"331 57 OFFCURVE",
"236 -18 OFFCURVE",
"120 -18 CURVE SMOOTH",
"84 -18 OFFCURVE",
"67 -7 OFFCURVE",
"67 15 CURVE SMOOTH",
"67 41 OFFCURVE",
"84 64 OFFCURVE",
"119 85 CURVE SMOOTH",
"150 103 OFFCURVE",
"179 113 OFFCURVE",
"206 113 CURVE SMOOTH",
"239 113 OFFCURVE",
"255 108 OFFCURVE",
"255 99 CURVE SMOOTH",
"255 89 OFFCURVE",
"242 78 OFFCURVE",
"215 65 CURVE",
"201 60 OFFCURVE",
"187 55 OFFCURVE",
"173 51 CURVE SMOOTH",
"151 43 OFFCURVE",
"140 37 OFFCURVE",
"140 33 CURVE SMOOTH",
"140 29 OFFCURVE",
"143 27 OFFCURVE",
"149 27 CURVE SMOOTH",
"165 27 OFFCURVE",
"181 30 OFFCURVE",
"198 36 CURVE SMOOTH",
"216 42 OFFCURVE",
"232 51 OFFCURVE",
"248 64 CURVE SMOOTH",
"266 79 OFFCURVE",
"275 95 OFFCURVE",
"275 109 CURVE SMOOTH",
"275 131 OFFCURVE",
"252 141 OFFCURVE",
"206 141 CURVE SMOOTH",
"190 141 OFFCURVE",
"172 138 OFFCURVE",
"151 132 CURVE SMOOTH",
"73 105 OFFCURVE",
"33 62 OFFCURVE",
"33 5 CURVE SMOOTH",
"33 -25 OFFCURVE",
"59 -40 OFFCURVE",
"112 -40 CURVE SMOOTH",
"195 -40 OFFCURVE",
"262 -19 OFFCURVE",
"314 22 CURVE SMOOTH",
"360 57 OFFCURVE",
"401 115 OFFCURVE",
"437 195 CURVE",
"488 176 OFFCURVE",
"525 165 OFFCURVE",
"547 162 CURVE",
"551 127 OFFCURVE",
"559 94 OFFCURVE",
"572 64 CURVE SMOOTH",
"579 47 OFFCURVE",
"584 35 OFFCURVE",
"588 28 CURVE",
"598 -4 LINE",
"623 -60 OFFCURVE",
"684 -87 OFFCURVE",
"781 -87 CURVE SMOOTH"
);
},
{
closed = 1;
nodes = (
"755 237 OFFCURVE",
"734 247 OFFCURVE",
"720 267 CURVE",
"751 293 OFFCURVE",
"785 306 OFFCURVE",
"824 306 CURVE SMOOTH",
"839 306 OFFCURVE",
"846 298 OFFCURVE",
"846 283 CURVE SMOOTH",
"846 268 OFFCURVE",
"839 257 OFFCURVE",
"826 249 CURVE SMOOTH",
"812 241 OFFCURVE",
"798 237 OFFCURVE",
"782 237 CURVE SMOOTH"
);
}
);
width = 1007;
}
);
note = AE;
unicode = 00C6;
},
{
glyphname = B;
lastChange = "2021-11-13 23:22:35 +0000";
layers = (
{
background = {
paths = (
{
closed = 1;
nodes = (
"367 -118 OFFCURVE",
"374 -113 OFFCURVE",
"374 -104 CURVE SMOOTH",
"374 -95 OFFCURVE",
"370 -91 OFFCURVE",
"362 -91 CURVE SMOOTH",
"341 -91 OFFCURVE",
"325 -84 OFFCURVE",
"314 -71 CURVE",
"419 -52 OFFCURVE",
"498 -27 OFFCURVE",
"552 5 CURVE SMOOTH",
"640 56 OFFCURVE",
"684 116 OFFCURVE",
"684 181 CURVE SMOOTH",
"684 223 OFFCURVE",
"664 254 OFFCURVE",
"623 275 CURVE SMOOTH",
"592 291 OFFCURVE",
"553 299 OFFCURVE",
"507 299 CURVE SMOOTH",
"487 299 LINE",
"578 369 OFFCURVE",
"623 431 OFFCURVE",
"623 486 CURVE SMOOTH",
"623 557 OFFCURVE",
"562 592 OFFCURVE",
"441 592 CURVE SMOOTH",
"392 592 OFFCURVE",
"342 586 OFFCURVE",
"292 573 CURVE SMOOTH",
"223 557 OFFCURVE",
"163 531 OFFCURVE",
"112 497 CURVE SMOOTH",
"44 452 OFFCURVE",
"10 401 OFFCURVE",
"10 343 CURVE SMOOTH",
"10 291 OFFCURVE",
"35 266 OFFCURVE",
"85 266 CURVE SMOOTH",
"111 266 OFFCURVE",
"139 276 OFFCURVE",
"169 297 CURVE SMOOTH",
"202 319 OFFCURVE",
"218 343 OFFCURVE",
"218 368 CURVE SMOOTH",
"218 377 OFFCURVE",
"214 381 OFFCURVE",
"205 381 CURVE SMOOTH",
"200 381 OFFCURVE",
"196 378 OFFCURVE",
"193 371 CURVE SMOOTH",
"186 357 OFFCURVE",
"182 348 OFFCURVE",
"179 344 CURVE SMOOTH",
"155 309 OFFCURVE",
"124 292 OFFCURVE",
"86 292 CURVE SMOOTH",
"52 292 OFFCURVE",
"35 309 OFFCURVE",
"35 343 CURVE SMOOTH",
"35 386 OFFCURVE",
"75 430 OFFCURVE",
"154 473 CURVE SMOOTH",
"265 533 OFFCURVE",
"371 563 OFFCURVE",
"472 563 CURVE SMOOTH",
"555 563 OFFCURVE",
"597 537 OFFCURVE",
"597 486 CURVE SMOOTH",
"597 452 OFFCURVE",
"569 413 OFFCURVE",
"515 369 CURVE SMOOTH",
"478 339 OFFCURVE",
"435 312 OFFCURVE",
"387 287 CURVE SMOOTH",
"372 279 OFFCURVE",
"350 269 OFFCURVE",
"320 257 CURVE",
"317 255 OFFCURVE",
"316 254 OFFCURVE",
"316 251 CURVE SMOOTH",
"316 246 OFFCURVE",
"320 240 OFFCURVE",
"329 233 CURVE",
"328 224 OFFCURVE",
"332 219 OFFCURVE",
"341 219 CURVE SMOOTH",
"344 219 OFFCURVE",
"347 220 OFFCURVE",
"349 222 CURVE",
"356 221 OFFCURVE",
"369 226 OFFCURVE",
"387 236 CURVE SMOOTH",
"406 246 OFFCURVE",
"418 252 OFFCURVE",
"422 255 CURVE",
"438 261 OFFCURVE",
"471 264 OFFCURVE",
"520 264 CURVE SMOOTH",
"554 264 OFFCURVE",
"582 256 OFFCURVE",
"603 240 CURVE SMOOTH",
"627 221 OFFCURVE",
"639 196 OFFCURVE",
"639 163 CURVE SMOOTH",
"639 110 OFFCURVE",
"611 65 OFFCURVE",
"555 29 CURVE SMOOTH",
"527 10 OFFCURVE",
"485 -5 OFFCURVE",
"430 -19 CURVE SMOOTH",
"383 -31 OFFCURVE",
"338 -39 OFFCURVE",
"296 -42 CURVE",
"282 -12 OFFCURVE",
"272 27 OFFCURVE",
"266 77 CURVE",
"303 95 OFFCURVE",
"342 104 OFFCURVE",
"383 104 CURVE SMOOTH",
"429 104 OFFCURVE",
"452 96 OFFCURVE",
"452 79 CURVE SMOOTH",
"452 69 OFFCURVE",
"437 59 OFFCURVE",
"408 50 CURVE",
"398 50 OFFCURVE",
"387 49 OFFCURVE",
"375 46 CURVE SMOOTH",
"360 42 OFFCURVE",
"352 37 OFFCURVE",
"352 31 CURVE SMOOTH",
"352 23 OFFCURVE",
"368 19 OFFCURVE",
"401 19 CURVE SMOOTH",
"422 19 OFFCURVE",
"441 22 OFFCURVE",
"457 29 CURVE SMOOTH",
"480 38 OFFCURVE",
"491 52 OFFCURVE",
"491 70 CURVE SMOOTH",
"491 90 OFFCURVE",
"479 104 OFFCURVE",
"455 114 CURVE SMOOTH",
"437 122 OFFCURVE",
"416 126 OFFCURVE",
"393 126 CURVE SMOOTH",
"355 126 OFFCURVE",
"311 116 OFFCURVE",
"263 96 CURVE",
"262 109 OFFCURVE",
"261 121 OFFCURVE",
"261 132 CURVE SMOOTH",
"261 192 OFFCURVE",
"274 276 OFFCURVE",
"299 383 CURVE SMOOTH",
"316 457 OFFCURVE",
"325 493 OFFCURVE",
"325 491 CURVE SMOOTH",
"325 494 OFFCURVE",
"323 495 OFFCURVE",
"320 495 CURVE SMOOTH",
"313 495 OFFCURVE",
"303 491 OFFCURVE",
"291 484 CURVE SMOOTH",
"278 476 OFFCURVE",
"270 469 OFFCURVE",
"267 463 CURVE",
"262 447 OFFCURVE",
"258 433 OFFCURVE",
"255 420 CURVE SMOOTH",
"232 325 OFFCURVE",
"220 225 OFFCURVE",
"220 122 CURVE SMOOTH",
"220 109 OFFCURVE",
"221 94 OFFCURVE",
"223 78 CURVE",
"193 63 OFFCURVE",
"172 50 OFFCURVE",
"160 40 CURVE SMOOTH",
"140 22 OFFCURVE",
"130 1 OFFCURVE",
"130 -23 CURVE SMOOTH",
"130 -61 OFFCURVE",
"161 -80 OFFCURVE",
"224 -80 CURVE SMOOTH",
"240 -80 OFFCURVE",
"259 -79 OFFCURVE",
"280 -77 CURVE",
"300 -104 OFFCURVE",
"324 -118 OFFCURVE",
"352 -118 CURVE SMOOTH"
);
},
{
closed = 1;
nodes = (
"204 -45 OFFCURVE",
"176 -34 OFFCURVE",
"176 -12 CURVE SMOOTH",
"176 6 OFFCURVE",
"194 27 OFFCURVE",
"228 53 CURVE",
"235 16 OFFCURVE",
"246 -17 OFFCURVE",
"260 -45 CURVE"
);
}
);
};
layerId = "A20F32D1-A37C-460A-962C-541C205D5E83";
paths = (
{
closed = 1;
nodes = (
"367 -118 OFFCURVE",
"374 -113 OFFCURVE",
"374 -104 CURVE SMOOTH",
"374 -95 OFFCURVE",
"370 -91 OFFCURVE",
"362 -91 CURVE SMOOTH",
"341 -91 OFFCURVE",
"325 -84 OFFCURVE",
"314 -71 CURVE",
"419 -52 OFFCURVE",
"498 -27 OFFCURVE",
"552 5 CURVE SMOOTH",
"640 56 OFFCURVE",
"684 116 OFFCURVE",
"684 181 CURVE SMOOTH",
"684 223 OFFCURVE",
"664 254 OFFCURVE",
"623 275 CURVE SMOOTH",
"592 291 OFFCURVE",
"553 299 OFFCURVE",
"507 299 CURVE SMOOTH",
"487 299 LINE",
"578 369 OFFCURVE",
"623 431 OFFCURVE",
"623 486 CURVE SMOOTH",
"623 557 OFFCURVE",
"562 592 OFFCURVE",
"441 592 CURVE SMOOTH",
"392 592 OFFCURVE",
"342 586 OFFCURVE",
"292 573 CURVE SMOOTH",
"223 557 OFFCURVE",
"163 531 OFFCURVE",
"112 497 CURVE SMOOTH",
"44 452 OFFCURVE",
"10 401 OFFCURVE",
"10 343 CURVE SMOOTH",
"10 291 OFFCURVE",
"35 266 OFFCURVE",
"85 266 CURVE SMOOTH",
"111 266 OFFCURVE",
"139 276 OFFCURVE",
"169 297 CURVE SMOOTH",
"202 319 OFFCURVE",
"218 343 OFFCURVE",
"218 368 CURVE SMOOTH",
"218 377 OFFCURVE",
"214 381 OFFCURVE",
"205 381 CURVE SMOOTH",
"200 381 OFFCURVE",
"196 378 OFFCURVE",
"193 371 CURVE SMOOTH",
"186 357 OFFCURVE",
"182 348 OFFCURVE",
"179 344 CURVE SMOOTH",
"155 309 OFFCURVE",
"124 292 OFFCURVE",
"86 292 CURVE SMOOTH",
"52 292 OFFCURVE",
"35 309 OFFCURVE",
"35 343 CURVE SMOOTH",
"35 386 OFFCURVE",
"75 430 OFFCURVE",
"154 473 CURVE SMOOTH",
"265 533 OFFCURVE",
"371 563 OFFCURVE",
"472 563 CURVE SMOOTH",
"555 563 OFFCURVE",
"597 537 OFFCURVE",
"597 486 CURVE SMOOTH",
"597 452 OFFCURVE",
"569 413 OFFCURVE",
"515 369 CURVE SMOOTH",
"478 339 OFFCURVE",
"435 312 OFFCURVE",
"387 287 CURVE SMOOTH",
"372 279 OFFCURVE",
"350 269 OFFCURVE",
"320 257 CURVE",
"317 255 OFFCURVE",
"316 254 OFFCURVE",
"316 251 CURVE SMOOTH",
"316 246 OFFCURVE",
"320 240 OFFCURVE",
"329 233 CURVE",
"328 224 OFFCURVE",
"332 219 OFFCURVE",
"341 219 CURVE SMOOTH",
"344 219 OFFCURVE",
"347 220 OFFCURVE",
"349 222 CURVE",
"356 221 OFFCURVE",
"369 226 OFFCURVE",
"387 236 CURVE SMOOTH",
"406 246 OFFCURVE",
"418 252 OFFCURVE",
"422 255 CURVE",
"438 261 OFFCURVE",
"471 264 OFFCURVE",
"520 264 CURVE SMOOTH",
"554 264 OFFCURVE",
"582 256 OFFCURVE",
"603 240 CURVE SMOOTH",
"627 221 OFFCURVE",
"639 196 OFFCURVE",
"639 163 CURVE SMOOTH",
"639 110 OFFCURVE",
"611 65 OFFCURVE",
"555 29 CURVE SMOOTH",
"527 10 OFFCURVE",
"485 -5 OFFCURVE",
"430 -19 CURVE SMOOTH",
"383 -31 OFFCURVE",
"338 -39 OFFCURVE",
"296 -42 CURVE",
"282 -12 OFFCURVE",
"272 27 OFFCURVE",
"266 77 CURVE",
"303 95 OFFCURVE",
"342 104 OFFCURVE",
"383 104 CURVE SMOOTH",
"429 104 OFFCURVE",
"452 96 OFFCURVE",
"452 79 CURVE SMOOTH",
"452 69 OFFCURVE",
"437 59 OFFCURVE",
"408 50 CURVE",
"398 50 OFFCURVE",
"387 49 OFFCURVE",
"375 46 CURVE SMOOTH",
"360 42 OFFCURVE",
"352 37 OFFCURVE",
"352 31 CURVE SMOOTH",
"352 23 OFFCURVE",
"368 19 OFFCURVE",
"401 19 CURVE SMOOTH",
"422 19 OFFCURVE",
"441 22 OFFCURVE",
"457 29 CURVE SMOOTH",
"480 38 OFFCURVE",
"491 52 OFFCURVE",
"491 70 CURVE SMOOTH",
"491 90 OFFCURVE",
"479 104 OFFCURVE",
"455 114 CURVE SMOOTH",
"437 122 OFFCURVE",
"416 126 OFFCURVE",
"393 126 CURVE SMOOTH",
"355 126 OFFCURVE",
"311 116 OFFCURVE",
"263 96 CURVE",
"262 109 OFFCURVE",
"261 121 OFFCURVE",
"261 132 CURVE SMOOTH",
"261 192 OFFCURVE",
"274 276 OFFCURVE",
"299 383 CURVE SMOOTH",
"316 457 OFFCURVE",
"325 493 OFFCURVE",
"325 491 CURVE SMOOTH",
"325 494 OFFCURVE",
"323 495 OFFCURVE",
"320 495 CURVE SMOOTH",
"313 495 OFFCURVE",
"303 491 OFFCURVE",
"291 484 CURVE SMOOTH",
"278 476 OFFCURVE",
"270 469 OFFCURVE",
"267 463 CURVE",
"262 447 OFFCURVE",
"258 433 OFFCURVE",
"255 420 CURVE SMOOTH",
"232 325 OFFCURVE",
"220 225 OFFCURVE",
"220 122 CURVE SMOOTH",
"220 109 OFFCURVE",
"221 94 OFFCURVE",
"223 78 CURVE",
"193 63 OFFCURVE",
"172 50 OFFCURVE",
"160 40 CURVE SMOOTH",
"140 22 OFFCURVE",
"130 1 OFFCURVE",
"130 -23 CURVE SMOOTH",
"130 -61 OFFCURVE",
"161 -80 OFFCURVE",
"224 -80 CURVE SMOOTH",
"240 -80 OFFCURVE",
"259 -79 OFFCURVE",
"280 -77 CURVE",
"300 -104 OFFCURVE",
"324 -118 OFFCURVE",
"352 -118 CURVE SMOOTH"
);
},
{
closed = 1;
nodes = (
"204 -45 OFFCURVE",
"176 -34 OFFCURVE",
"176 -12 CURVE SMOOTH",
"176 6 OFFCURVE",
"194 27 OFFCURVE",
"228 53 CURVE",
"235 16 OFFCURVE",
"246 -17 OFFCURVE",
"260 -45 CURVE"
);
}
);
width = 684;
}
);
note = B;
unicode = 0042;
},
{
glyphname = C;
lastChange = "2021-11-14 00:37:04 +0000";
layers = (
{
anchors = (
{
name = bottom;
position = "{267, -41}";
},
{
name = top;
position = "{315, 517}";
}
);
background = {
paths = (
{
closed = 1;
nodes = (
"280 -43 OFFCURVE",
"305 -40 OFFCURVE",
"330 -34 CURVE SMOOTH",
"374 -24 OFFCURVE",
"407 -11 OFFCURVE",
"428 4 CURVE SMOOTH",
"450 18 OFFCURVE",
"473 43 OFFCURVE",
"497 79 CURVE SMOOTH",
"505 92 OFFCURVE",
"509 102 OFFCURVE",
"509 108 CURVE SMOOTH",
"509 112 OFFCURVE",
"509 114 OFFCURVE",
"507 114 CURVE SMOOTH",
"501 114 OFFCURVE",
"493 107 OFFCURVE",
"483 93 CURVE SMOOTH",
"470 74 OFFCURVE",
"462 62 OFFCURVE",
"457 58 CURVE",
"414 13 OFFCURVE",
"356 -10 OFFCURVE",
"284 -10 CURVE SMOOTH",
"221 -10 OFFCURVE",
"172 8 OFFCURVE",
"135 44 CURVE SMOOTH",
"99 80 OFFCURVE",
"81 130 OFFCURVE",
"81 193 CURVE SMOOTH",
"81 253 OFFCURVE",
"94 309 OFFCURVE",
"120 358 CURVE SMOOTH",
"147 412 OFFCURVE",
"187 453 OFFCURVE",
"239 480 CURVE SMOOTH",
"267 495 OFFCURVE",
"293 501 OFFCURVE",
"318 501 CURVE SMOOTH",
"341 501 OFFCURVE",
"360 495 OFFCURVE",
"376 483 CURVE SMOOTH",
"392 470 OFFCURVE",
"400 453 OFFCURVE",
"400 430 CURVE SMOOTH",
"400 402 OFFCURVE",
"386 374 OFFCURVE",
"357 347 CURVE SMOOTH",
"329 320 OFFCURVE",
"301 306 OFFCURVE",
"273 306 CURVE SMOOTH",
"248 306 OFFCURVE",
"235 317 OFFCURVE",
"235 338 CURVE SMOOTH",
"235 360 OFFCURVE",
"249 378 OFFCURVE",
"277 393 CURVE SMOOTH",
"288 399 OFFCURVE",
"293 404 OFFCURVE",
"293 408 CURVE SMOOTH",
"293 414 OFFCURVE",
"290 417 OFFCURVE",
"284 417 CURVE SMOOTH",
"280 417 OFFCURVE",
"277 416 OFFCURVE",
"275 414 CURVE",
"255 405 OFFCURVE",
"239 392 OFFCURVE",
"224 375 CURVE SMOOTH",
"207 356 OFFCURVE",
"198 337 OFFCURVE",
"198 319 CURVE SMOOTH",
"198 291 OFFCURVE",
"215 276 OFFCURVE",
"249 276 CURVE SMOOTH",
"286 276 OFFCURVE",
"328 292 OFFCURVE",
"374 323 CURVE SMOOTH",
"423 357 OFFCURVE",
"447 392 OFFCURVE",
"447 426 CURVE SMOOTH",
"447 432 OFFCURVE",
"447 439 OFFCURVE",
"445 445 CURVE SMOOTH",
"429 493 OFFCURVE",
"385 517 OFFCURVE",
"315 517 CURVE SMOOTH",
"275 517 OFFCURVE",
"237 506 OFFCURVE",
"203 486 CURVE SMOOTH",
"79 414 OFFCURVE",
"17 314 OFFCURVE",
"17 185 CURVE SMOOTH",
"17 120 OFFCURVE",
"41 66 OFFCURVE",
"88 22 CURVE SMOOTH",
"135 -21 OFFCURVE",
"191 -43 OFFCURVE",
"257 -43 CURVE SMOOTH"
);
}
);
};
layerId = "A20F32D1-A37C-460A-962C-541C205D5E83";
paths = (
{
closed = 1;
nodes = (
"280 -43 OFFCURVE",
"305 -40 OFFCURVE",
"330 -34 CURVE SMOOTH",
"374 -24 OFFCURVE",
"407 -11 OFFCURVE",
"428 4 CURVE SMOOTH",
"450 18 OFFCURVE",
"473 43 OFFCURVE",
"497 79 CURVE SMOOTH",
"505 92 OFFCURVE",
"509 102 OFFCURVE",
"509 108 CURVE SMOOTH",
"509 112 OFFCURVE",
"509 114 OFFCURVE",
"507 114 CURVE SMOOTH",
"501 114 OFFCURVE",
"493 107 OFFCURVE",
"483 93 CURVE SMOOTH",
"470 74 OFFCURVE",
"462 62 OFFCURVE",
"457 58 CURVE",
"414 13 OFFCURVE",
"356 -10 OFFCURVE",
"284 -10 CURVE SMOOTH",
"221 -10 OFFCURVE",
"172 8 OFFCURVE",
"135 44 CURVE SMOOTH",
"99 80 OFFCURVE",
"81 130 OFFCURVE",
"81 193 CURVE SMOOTH",
"81 253 OFFCURVE",
"94 309 OFFCURVE",
"120 358 CURVE SMOOTH",
"147 412 OFFCURVE",
"187 453 OFFCURVE",
"239 480 CURVE SMOOTH",
"267 495 OFFCURVE",
"293 501 OFFCURVE",
"318 501 CURVE SMOOTH",
"341 501 OFFCURVE",
"360 495 OFFCURVE",
"376 483 CURVE SMOOTH",
"392 470 OFFCURVE",
"400 453 OFFCURVE",
"400 430 CURVE SMOOTH",
"400 402 OFFCURVE",
"386 374 OFFCURVE",
"357 347 CURVE SMOOTH",
"329 320 OFFCURVE",
"301 306 OFFCURVE",
"273 306 CURVE SMOOTH",
"248 306 OFFCURVE",
"235 317 OFFCURVE",
"235 338 CURVE SMOOTH",
"235 360 OFFCURVE",
"249 378 OFFCURVE",
"277 393 CURVE SMOOTH",
"288 399 OFFCURVE",
"293 404 OFFCURVE",
"293 408 CURVE SMOOTH",
"293 414 OFFCURVE",
"290 417 OFFCURVE",
"284 417 CURVE SMOOTH",
"280 417 OFFCURVE",
"277 416 OFFCURVE",
"275 414 CURVE",
"255 405 OFFCURVE",
"239 392 OFFCURVE",
"224 375 CURVE SMOOTH",
"207 356 OFFCURVE",
"198 337 OFFCURVE",
"198 319 CURVE SMOOTH",
"198 291 OFFCURVE",
"215 276 OFFCURVE",
"249 276 CURVE SMOOTH",
"286 276 OFFCURVE",
"328 292 OFFCURVE",
"374 323 CURVE SMOOTH",
"423 357 OFFCURVE",
"447 392 OFFCURVE",
"447 426 CURVE SMOOTH",
"447 432 OFFCURVE",
"447 439 OFFCURVE",
"445 445 CURVE SMOOTH",
"429 493 OFFCURVE",
"385 517 OFFCURVE",
"315 517 CURVE SMOOTH",
"275 517 OFFCURVE",
"237 506 OFFCURVE",
"203 486 CURVE SMOOTH",
"79 414 OFFCURVE",
"17 314 OFFCURVE",
"17 185 CURVE SMOOTH",
"17 120 OFFCURVE",
"41 66 OFFCURVE",
"88 22 CURVE SMOOTH",
"135 -21 OFFCURVE",
"191 -43 OFFCURVE",
"257 -43 CURVE SMOOTH"
);
}
);
width = 483;
}
);
note = C;
unicode = 0043;
},
{
glyphname = D;
lastChange = "2021-11-14 00:37:04 +0000";
layers = (
{
anchors = (
{
name = bottom;
position = "{333, 0}";
},
{
name = center;
position = "{242, 253}";
},
{
name = top;
position = "{472, 510}";
}
);
background = {
paths = (
{
closed = 1;
nodes = (
"290 -92 OFFCURVE",
"353 -69 OFFCURVE",
"420 -21 CURVE SMOOTH",
"479 20 OFFCURVE",
"529 72 OFFCURVE",
"572 133 CURVE SMOOTH",
"621 204 OFFCURVE",
"646 270 OFFCURVE",
"646 332 CURVE SMOOTH",
"646 387 OFFCURVE",
"625 431 OFFCURVE",
"581 462 CURVE SMOOTH",
"547 486 OFFCURVE",
"489 499 OFFCURVE",
"406 499 CURVE SMOOTH",
"384 499 OFFCURVE",
"361 497 OFFCURVE",
"337 494 CURVE",
"337 496 OFFCURVE",
"338 498 OFFCURVE",
"338 499 CURVE SMOOTH",
"338 505 OFFCURVE",
"333 510 OFFCURVE",
"324 515 CURVE SMOOTH",
"315 521 OFFCURVE",
"307 523 OFFCURVE",
"300 523 CURVE SMOOTH",
"292 523 OFFCURVE",
"282 511 OFFCURVE",
"271 486 CURVE",
"203 474 OFFCURVE",
"147 454 OFFCURVE",
"104 429 CURVE SMOOTH",
"40 393 OFFCURVE",
"8 348 OFFCURVE",
"8 294 CURVE SMOOTH",
"8 284 OFFCURVE",
"11 274 OFFCURVE",
"16 264 CURVE SMOOTH",
"23 252 OFFCURVE",
"31 246 OFFCURVE",
"40 246 CURVE SMOOTH",
"73 246 OFFCURVE",
"101 260 OFFCURVE",
"126 286 CURVE SMOOTH",
"134 294 OFFCURVE",
"153 321 OFFCURVE",
"185 367 CURVE SMOOTH",
"189 372 OFFCURVE",
"191 377 OFFCURVE",
"191 382 CURVE SMOOTH",
"191 388 OFFCURVE",
"189 392 OFFCURVE",
"185 392 CURVE",
"130 315 OFFCURVE",
"83 277 OFFCURVE",
"44 277 CURVE SMOOTH",
"37 277 OFFCURVE",
"33 282 OFFCURVE",
"33 290 CURVE SMOOTH",
"33 329 OFFCURVE",
"61 362 OFFCURVE",
"117 390 CURVE SMOOTH",
"154 409 OFFCURVE",
"198 423 OFFCURVE",
"249 433 CURVE",
"220 345 OFFCURVE",
"203 239 OFFCURVE",
"199 114 CURVE",
"149 82 OFFCURVE",
"124 48 OFFCURVE",
"124 11 CURVE SMOOTH",
"124 -15 OFFCURVE",
"136 -38 OFFCURVE",
"159 -60 CURVE SMOOTH",
"182 -81 OFFCURVE",
"206 -92 OFFCURVE",
"232 -92 CURVE SMOOTH"
);
},
{
closed = 1;
nodes = (
"214 -66 OFFCURVE",
"199 -60 OFFCURVE",
"186 -49 CURVE SMOOTH",
"173 -37 OFFCURVE",
"167 -22 OFFCURVE",
"167 -4 CURVE SMOOTH",
"167 19 OFFCURVE",
"177 42 OFFCURVE",
"199 65 CURVE",
"200 7 OFFCURVE",
"202 -30 OFFCURVE",
"207 -48 CURVE SMOOTH",
"209 -55 OFFCURVE",
"214 -59 OFFCURVE",
"220 -59 CURVE SMOOTH",
"229 -59 OFFCURVE",
"234 -56 OFFCURVE",
"234 -49 CURVE SMOOTH",
"234 -47 LINE",
"232 -43 LINE",
"228 7 OFFCURVE",
"226 37 OFFCURVE",
"226 46 CURVE SMOOTH",
"226 60 OFFCURVE",
"227 75 OFFCURVE",
"228 90 CURVE",
"275 124 OFFCURVE",
"318 141 OFFCURVE",
"356 141 CURVE SMOOTH",
"387 141 OFFCURVE",
"402 129 OFFCURVE",
"402 105 CURVE SMOOTH",
"402 87 OFFCURVE",
"395 78 OFFCURVE",
"381 78 CURVE SMOOTH",
"377 78 OFFCURVE",
"372 79 OFFCURVE",
"365 83 CURVE SMOOTH",
"358 87 OFFCURVE",
"353 88 OFFCURVE",
"348 88 CURVE SMOOTH",
"341 88 OFFCURVE",
"338 85 OFFCURVE",
"338 79 CURVE SMOOTH",
"338 76 OFFCURVE",
"340 73 OFFCURVE",
"344 69 CURVE",
"355 54 OFFCURVE",
"366 47 OFFCURVE",
"377 47 CURVE SMOOTH",
"390 47 OFFCURVE",
"401 57 OFFCURVE",
"412 77 CURVE SMOOTH",
"422 94 OFFCURVE",
"427 110 OFFCURVE",
"427 124 CURVE SMOOTH",
"427 155 OFFCURVE",
"407 170 OFFCURVE",
"369 170 CURVE SMOOTH",
"332 170 OFFCURVE",
"286 157 OFFCURVE",
"230 131 CURVE",
"242 253 OFFCURVE",
"267 357 OFFCURVE",
"307 443 CURVE",
"337 446 OFFCURVE",
"366 447 OFFCURVE",
"395 447 CURVE SMOOTH",
"546 447 OFFCURVE",
"622 402 OFFCURVE",
"622 312 CURVE SMOOTH",
"622 234 OFFCURVE",
"577 152 OFFCURVE",
"486 65 CURVE SMOOTH",
"395 -22 OFFCURVE",
"311 -66 OFFCURVE",
"232 -66 CURVE SMOOTH"
);
}
);
};
layerId = "A20F32D1-A37C-460A-962C-541C205D5E83";
paths = (
{
closed = 1;
nodes = (
"290 -92 OFFCURVE",
"353 -69 OFFCURVE",
"420 -21 CURVE SMOOTH",
"479 20 OFFCURVE",
"529 72 OFFCURVE",
"572 133 CURVE SMOOTH",
"621 204 OFFCURVE",
"646 270 OFFCURVE",
"646 332 CURVE SMOOTH",
"646 387 OFFCURVE",
"625 431 OFFCURVE",
"581 462 CURVE SMOOTH",
"547 486 OFFCURVE",
"489 499 OFFCURVE",
"406 499 CURVE SMOOTH",
"384 499 OFFCURVE",
"361 497 OFFCURVE",
"337 494 CURVE",
"337 496 OFFCURVE",
"338 498 OFFCURVE",
"338 499 CURVE SMOOTH",
"338 505 OFFCURVE",
"333 510 OFFCURVE",
"324 515 CURVE SMOOTH",
"315 521 OFFCURVE",
"307 523 OFFCURVE",
"300 523 CURVE SMOOTH",
"292 523 OFFCURVE",
"282 511 OFFCURVE",
"271 486 CURVE",
"203 474 OFFCURVE",
"147 454 OFFCURVE",
"104 429 CURVE SMOOTH",
"40 393 OFFCURVE",
"8 348 OFFCURVE",
"8 294 CURVE SMOOTH",
"8 284 OFFCURVE",
"11 274 OFFCURVE",
"16 264 CURVE SMOOTH",
"23 252 OFFCURVE",
"31 246 OFFCURVE",
"40 246 CURVE SMOOTH",
"73 246 OFFCURVE",
"101 260 OFFCURVE",
"126 286 CURVE SMOOTH",
"134 294 OFFCURVE",
"153 321 OFFCURVE",
"185 367 CURVE SMOOTH",
"189 372 OFFCURVE",
"191 377 OFFCURVE",
"191 382 CURVE SMOOTH",
"191 388 OFFCURVE",
"189 392 OFFCURVE",
"185 392 CURVE",
"130 315 OFFCURVE",
"83 277 OFFCURVE",
"44 277 CURVE SMOOTH",
"37 277 OFFCURVE",
"33 282 OFFCURVE",
"33 290 CURVE SMOOTH",
"33 329 OFFCURVE",
"61 362 OFFCURVE",
"117 390 CURVE SMOOTH",
"154 409 OFFCURVE",
"198 423 OFFCURVE",
"249 433 CURVE",
"220 345 OFFCURVE",
"203 239 OFFCURVE",
"199 114 CURVE",
"149 82 OFFCURVE",
"124 48 OFFCURVE",
"124 11 CURVE SMOOTH",
"124 -15 OFFCURVE",
"136 -38 OFFCURVE",
"159 -60 CURVE SMOOTH",
"182 -81 OFFCURVE",
"206 -92 OFFCURVE",
"232 -92 CURVE SMOOTH"
);
},
{
closed = 1;
nodes = (
"214 -66 OFFCURVE",
"199 -60 OFFCURVE",
"186 -49 CURVE SMOOTH",
"173 -37 OFFCURVE",
"167 -22 OFFCURVE",
"167 -4 CURVE SMOOTH",
"167 19 OFFCURVE",
"177 42 OFFCURVE",
"199 65 CURVE",
"200 7 OFFCURVE",
"202 -30 OFFCURVE",
"207 -48 CURVE SMOOTH",
"209 -55 OFFCURVE",
"214 -59 OFFCURVE",
"220 -59 CURVE SMOOTH",
"229 -59 OFFCURVE",
"234 -56 OFFCURVE",
"234 -49 CURVE SMOOTH",
"234 -47 LINE",
"232 -43 LINE",
"228 7 OFFCURVE",
"226 37 OFFCURVE",
"226 46 CURVE SMOOTH",
"226 60 OFFCURVE",
"227 75 OFFCURVE",
"228 90 CURVE",
"275 124 OFFCURVE",
"318 141 OFFCURVE",
"356 141 CURVE SMOOTH",
"387 141 OFFCURVE",
"402 129 OFFCURVE",
"402 105 CURVE SMOOTH",
"402 87 OFFCURVE",
"395 78 OFFCURVE",
"381 78 CURVE SMOOTH",
"377 78 OFFCURVE",
"372 79 OFFCURVE",
"365 83 CURVE SMOOTH",
"358 87 OFFCURVE",
"353 88 OFFCURVE",
"348 88 CURVE SMOOTH",
"341 88 OFFCURVE",
"338 85 OFFCURVE",
"338 79 CURVE SMOOTH",
"338 76 OFFCURVE",
"340 73 OFFCURVE",
"344 69 CURVE",
"355 54 OFFCURVE",
"366 47 OFFCURVE",
"377 47 CURVE SMOOTH",
"390 47 OFFCURVE",
"401 57 OFFCURVE",
"412 77 CURVE SMOOTH",
"422 94 OFFCURVE",
"427 110 OFFCURVE",
"427 124 CURVE SMOOTH",
"427 155 OFFCURVE",
"407 170 OFFCURVE",
"369 170 CURVE SMOOTH",
"332 170 OFFCURVE",
"286 157 OFFCURVE",
"230 131 CURVE",
"242 253 OFFCURVE",
"267 357 OFFCURVE",
"307 443 CURVE",
"337 446 OFFCURVE",
"366 447 OFFCURVE",
"395 447 CURVE SMOOTH",
"546 447 OFFCURVE",
"622 402 OFFCURVE",
"622 312 CURVE SMOOTH",
"622 234 OFFCURVE",
"577 152 OFFCURVE",
"486 65 CURVE SMOOTH",
"395 -22 OFFCURVE",
"311 -66 OFFCURVE",
"232 -66 CURVE SMOOTH"
);
}
);
width = 665;
}
);
note = D;
unicode = 0044;
},
{
glyphname = Eth;
lastChange = "2021-11-13 23:40:42 +0000";
layers = (
{
background = {
paths = (
{
closed = 1;
nodes = (
"290 -92 OFFCURVE",
"353 -69 OFFCURVE",
"420 -21 CURVE SMOOTH",
"479 20 OFFCURVE",
"529 72 OFFCURVE",
"572 133 CURVE SMOOTH",
"621 204 OFFCURVE",
"646 270 OFFCURVE",
"646 332 CURVE SMOOTH",
"646 387 OFFCURVE",
"625 431 OFFCURVE",
"581 462 CURVE SMOOTH",
"547 486 OFFCURVE",
"489 499 OFFCURVE",
"406 499 CURVE SMOOTH",
"384 499 OFFCURVE",
"361 497 OFFCURVE",
"337 494 CURVE",
"337 496 OFFCURVE",
"338 498 OFFCURVE",
"338 499 CURVE SMOOTH",
"338 505 OFFCURVE",
"333 511 OFFCURVE",
"324 516 CURVE SMOOTH",
"315 521 OFFCURVE",
"307 523 OFFCURVE",
"300 523 CURVE SMOOTH",
"292 523 OFFCURVE",
"282 511 OFFCURVE",
"271 486 CURVE",
"203 474 OFFCURVE",
"147 454 OFFCURVE",
"104 429 CURVE SMOOTH",
"40 393 OFFCURVE",
"8 348 OFFCURVE",
"8 294 CURVE SMOOTH",
"8 284 OFFCURVE",
"11 274 OFFCURVE",
"16 264 CURVE SMOOTH",
"23 252 OFFCURVE",
"31 246 OFFCURVE",
"40 246 CURVE SMOOTH",
"67 246 OFFCURVE",
"92 255 OFFCURVE",
"113 275 CURVE SMOOTH",
"128 287 OFFCURVE",
"144 308 OFFCURVE",
"164 337 CURVE SMOOTH",
"182 363 OFFCURVE",
"191 378 OFFCURVE",
"191 382 CURVE SMOOTH",
"191 388 OFFCURVE",
"189 392 OFFCURVE",
"185 392 CURVE",
"130 315 OFFCURVE",
"83 277 OFFCURVE",
"44 277 CURVE SMOOTH",
"37 277 OFFCURVE",
"33 282 OFFCURVE",
"33 290 CURVE SMOOTH",
"33 329 OFFCURVE",
"61 362 OFFCURVE",
"117 390 CURVE SMOOTH",
"154 409 OFFCURVE",
"198 423 OFFCURVE",
"249 433 CURVE",
"233 383 OFFCURVE",
"220 324 OFFCURVE",
"211 255 CURVE",
"184 245 OFFCURVE",
"156 231 OFFCURVE",
"126 215 CURVE SMOOTH",
"84 192 OFFCURVE",
"63 175 OFFCURVE",
"63 162 CURVE SMOOTH",
"63 147 OFFCURVE",
"70 140 OFFCURVE",
"85 140 CURVE SMOOTH",
"89 140 OFFCURVE",
"93 141 OFFCURVE",
"98 145 CURVE SMOOTH",
"143 179 OFFCURVE",
"179 203 OFFCURVE",
"206 215 CURVE",
"203 181 OFFCURVE",
"200 147 OFFCURVE",
"199 114 CURVE",
"149 82 OFFCURVE",
"124 48 OFFCURVE",
"124 11 CURVE SMOOTH",
"124 -15 OFFCURVE",
"136 -38 OFFCURVE",
"159 -60 CURVE SMOOTH",
"182 -81 OFFCURVE",
"206 -92 OFFCURVE",
"232 -92 CURVE SMOOTH"
);
},
{
closed = 1;
nodes = (
"214 -66 OFFCURVE",
"199 -60 OFFCURVE",
"186 -49 CURVE SMOOTH",
"173 -37 OFFCURVE",
"167 -22 OFFCURVE",
"167 -4 CURVE SMOOTH",
"167 19 OFFCURVE",
"177 42 OFFCURVE",
"199 65 CURVE",
"200 7 OFFCURVE",
"202 -31 OFFCURVE",
"207 -48 CURVE SMOOTH",
"209 -55 OFFCURVE",
"214 -59 OFFCURVE",
"220 -59 CURVE SMOOTH",
"229 -59 OFFCURVE",
"234 -56 OFFCURVE",
"234 -49 CURVE SMOOTH",
"234 -47 LINE",
"232 -43 LINE",
"228 7 OFFCURVE",
"226 37 OFFCURVE",
"226 46 CURVE SMOOTH",
"226 60 OFFCURVE",
"227 75 OFFCURVE",
"228 90 CURVE",
"275 124 OFFCURVE",
"318 141 OFFCURVE",
"356 141 CURVE SMOOTH",
"387 141 OFFCURVE",
"402 129 OFFCURVE",
"402 105 CURVE SMOOTH",
"402 87 OFFCURVE",
"395 78 OFFCURVE",
"381 78 CURVE SMOOTH",
"377 78 OFFCURVE",
"372 79 OFFCURVE",
"365 83 CURVE SMOOTH",
"358 87 OFFCURVE",
"353 88 OFFCURVE",
"348 88 CURVE SMOOTH",
"341 88 OFFCURVE",
"338 85 OFFCURVE",
"338 79 CURVE SMOOTH",
"338 76 OFFCURVE",
"340 73 OFFCURVE",
"344 69 CURVE",
"355 54 OFFCURVE",
"366 47 OFFCURVE",
"377 47 CURVE SMOOTH",
"390 47 OFFCURVE",
"401 57 OFFCURVE",
"412 77 CURVE SMOOTH",
"422 94 OFFCURVE",
"427 110 OFFCURVE",
"427 124 CURVE SMOOTH",
"427 155 OFFCURVE",
"407 170 OFFCURVE",
"369 170 CURVE SMOOTH",
"332 170 OFFCURVE",
"286 157 OFFCURVE",
"230 131 CURVE",
"233 164 OFFCURVE",
"238 198 OFFCURVE",
"244 233 CURVE",
"288 250 OFFCURVE",
"331 258 OFFCURVE",
"371 258 CURVE SMOOTH",
"387 258 OFFCURVE",
"395 264 OFFCURVE",
"395 274 CURVE SMOOTH",
"395 280 OFFCURVE",
"389 283 OFFCURVE",
"377 283 CURVE SMOOTH",
"336 283 OFFCURVE",
"293 277 OFFCURVE",
"250 266 CURVE",
"265 335 OFFCURVE",
"284 394 OFFCURVE",
"307 443 CURVE",
"337 446 OFFCURVE",
"366 447 OFFCURVE",
"395 447 CURVE SMOOTH",
"546 447 OFFCURVE",
"622 402 OFFCURVE",
"622 312 CURVE SMOOTH",
"622 234 OFFCURVE",
"577 152 OFFCURVE",
"486 65 CURVE SMOOTH",
"395 -22 OFFCURVE",
"311 -66 OFFCURVE",
"232 -66 CURVE SMOOTH"
);
}
);
};
components = (
{
name = D;
},
{
name = strokeshortcomb;
transform = "{1, 0, 0, 1, 155, 102}";
}
);
layerId = "A20F32D1-A37C-460A-962C-541C205D5E83";
width = 665;
}
);
note = Eth;
unicode = 00D0;
},
{
glyphname = E;
lastChange = "2021-11-14 00:37:04 +0000";
layers = (
{
anchors = (
{
name = bottom;
position = "{202, -82}";
},
{
name = ogonek;
position = "{449, -37}";
},
{
name = top;
position = "{272, 550}";
},
{
name = topleft;
position = "{20, 510}";
}
);
background = {
paths = (
{
closed = 1;
nodes = (
"260 -87 OFFCURVE",
"307 -74 OFFCURVE",
"349 -48 CURVE SMOOTH",
"399 -17 OFFCURVE",
"424 23 OFFCURVE",
"424 70 CURVE SMOOTH",
"424 133 OFFCURVE",
"395 164 OFFCURVE",
"336 164 CURVE SMOOTH",
"300 164 OFFCURVE",
"269 155 OFFCURVE",
"243 138 CURVE SMOOTH",
"212 117 OFFCURVE",
"197 90 OFFCURVE",
"197 57 CURVE SMOOTH",
"197 20 OFFCURVE",
"216 1 OFFCURVE",
"253 1 CURVE SMOOTH",
"264 1 OFFCURVE",
"275 5 OFFCURVE",
"284 12 CURVE SMOOTH",
"294 19 OFFCURVE",
"299 28 OFFCURVE",
"299 40 CURVE SMOOTH",
"299 59 OFFCURVE",
"293 69 OFFCURVE",
"282 69 CURVE SMOOTH",
"279 69 OFFCURVE",
"277 66 OFFCURVE",
"277 62 CURVE SMOOTH",
"277 60 OFFCURVE",
"278 58 OFFCURVE",
"279 55 CURVE SMOOTH",
"280 52 OFFCURVE",
"281 50 OFFCURVE",
"281 48 CURVE SMOOTH",
"281 42 OFFCURVE",
"278 37 OFFCURVE",
"272 32 CURVE SMOOTH",
"266 28 OFFCURVE",
"260 25 OFFCURVE",
"253 25 CURVE SMOOTH",
"240 25 OFFCURVE",
"234 34 OFFCURVE",
"234 51 CURVE SMOOTH",
"234 77 OFFCURVE",
"245 98 OFFCURVE",
"266 115 CURVE SMOOTH",
"286 131 OFFCURVE",
"309 140 OFFCURVE",
"336 140 CURVE SMOOTH",
"346 140 OFFCURVE",
"357 131 OFFCURVE",
"369 115 CURVE SMOOTH",
"380 98 OFFCURVE",
"386 84 OFFCURVE",
"386 73 CURVE SMOOTH",
"386 30 OFFCURVE",
"367 -3 OFFCURVE",
"328 -29 CURVE SMOOTH",
"293 -51 OFFCURVE",
"254 -62 OFFCURVE",
"209 -62 CURVE SMOOTH",
"108 -62 OFFCURVE",
"58 -19 OFFCURVE",
"58 66 CURVE SMOOTH",
"58 138 OFFCURVE",
"81 200 OFFCURVE",
"129 249 CURVE",
"156 228 OFFCURVE",
"187 218 OFFCURVE",
"220 218 CURVE SMOOTH",
"296 218 OFFCURVE",
"335 236 OFFCURVE",
"335 271 CURVE SMOOTH",
"335 287 OFFCURVE",
"326 301 OFFCURVE",
"309 312 CURVE SMOOTH",
"294 321 OFFCURVE",
"278 325 OFFCURVE",
"260 325 CURVE SMOOTH",
"215 325 OFFCURVE",
"173 313 OFFCURVE",
"134 290 CURVE",
"126 310 OFFCURVE",
"122 333 OFFCURVE",
"122 360 CURVE SMOOTH",
"122 401 OFFCURVE",
"140 440 OFFCURVE",
"176 476 CURVE SMOOTH",
"211 513 OFFCURVE",
"249 531 OFFCURVE",
"291 531 CURVE SMOOTH",
"310 531 OFFCURVE",
"328 525 OFFCURVE",
"344 513 CURVE SMOOTH",
"361 501 OFFCURVE",
"369 486 OFFCURVE",
"369 467 CURVE SMOOTH",
"369 454 OFFCURVE",
"362 442 OFFCURVE",
"348 430 CURVE SMOOTH",
"335 418 OFFCURVE",
"328 411 OFFCURVE",
"328 407 CURVE SMOOTH",
"328 402 OFFCURVE",
"330 399 OFFCURVE",
"335 399 CURVE SMOOTH",
"349 399 OFFCURVE",
"364 406 OFFCURVE",
"378 422 CURVE SMOOTH",
"392 437 OFFCURVE",
"400 452 OFFCURVE",
"400 466 CURVE SMOOTH",
"400 492 OFFCURVE",
"387 513 OFFCURVE",
"362 531 CURVE SMOOTH",
"339 548 OFFCURVE",
"314 555 OFFCURVE",
"287 555 CURVE SMOOTH",
"230 555 OFFCURVE",
"181 536 OFFCURVE",
"139 499 CURVE SMOOTH",
"95 460 OFFCURVE",
"73 412 OFFCURVE",
"73 356 CURVE SMOOTH",
"73 324 OFFCURVE",
"84 296 OFFCURVE",
"105 271 CURVE",
"43 221 OFFCURVE",
"12 152 OFFCURVE",
"12 62 CURVE SMOOTH",
"12 -37 OFFCURVE",
"77 -87 OFFCURVE",
"209 -87 CURVE SMOOTH"
);
},
{
closed = 1;
nodes = (
"183 237 OFFCURVE",
"162 247 OFFCURVE",
"147 267 CURVE",
"178 293 OFFCURVE",
"213 306 OFFCURVE",
"252 306 CURVE SMOOTH",
"266 306 OFFCURVE",
"274 298 OFFCURVE",
"274 283 CURVE SMOOTH",
"274 268 OFFCURVE",
"267 257 OFFCURVE",
"253 249 CURVE SMOOTH",
"240 241 OFFCURVE",
"225 237 OFFCURVE",
"210 237 CURVE SMOOTH"
);
}
);
};
layerId = "A20F32D1-A37C-460A-962C-541C205D5E83";
paths = (
{
closed = 1;
nodes = (
"260 -87 OFFCURVE",
"307 -74 OFFCURVE",
"349 -48 CURVE SMOOTH",
"399 -17 OFFCURVE",
"424 23 OFFCURVE",
"424 70 CURVE SMOOTH",
"424 133 OFFCURVE",
"395 164 OFFCURVE",
"336 164 CURVE SMOOTH",
"300 164 OFFCURVE",
"269 155 OFFCURVE",
"243 138 CURVE SMOOTH",
"212 117 OFFCURVE",
"197 90 OFFCURVE",
"197 57 CURVE SMOOTH",
"197 20 OFFCURVE",
"216 1 OFFCURVE",
"253 1 CURVE SMOOTH",
"264 1 OFFCURVE",
"275 5 OFFCURVE",
"284 12 CURVE SMOOTH",
"294 19 OFFCURVE",
"299 28 OFFCURVE",
"299 40 CURVE SMOOTH",
"299 59 OFFCURVE",
"293 69 OFFCURVE",
"282 69 CURVE SMOOTH",
"279 69 OFFCURVE",
"277 66 OFFCURVE",
"277 62 CURVE SMOOTH",
"277 60 OFFCURVE",
"278 58 OFFCURVE",
"279 55 CURVE SMOOTH",
"280 52 OFFCURVE",
"281 50 OFFCURVE",
"281 48 CURVE SMOOTH",
"281 42 OFFCURVE",
"278 37 OFFCURVE",
"272 32 CURVE SMOOTH",
"266 28 OFFCURVE",
"260 25 OFFCURVE",
"253 25 CURVE SMOOTH",
"240 25 OFFCURVE",
"234 34 OFFCURVE",
"234 51 CURVE SMOOTH",
"234 77 OFFCURVE",
"245 98 OFFCURVE",
"266 115 CURVE SMOOTH",
"286 131 OFFCURVE",
"309 140 OFFCURVE",
"336 140 CURVE SMOOTH",
"346 140 OFFCURVE",
"357 131 OFFCURVE",
"369 115 CURVE SMOOTH",
"380 98 OFFCURVE",
"386 84 OFFCURVE",
"386 73 CURVE SMOOTH",
"386 30 OFFCURVE",
"367 -3 OFFCURVE",
"328 -29 CURVE SMOOTH",
"293 -51 OFFCURVE",
"254 -62 OFFCURVE",
"209 -62 CURVE SMOOTH",
"108 -62 OFFCURVE",
"58 -19 OFFCURVE",
"58 66 CURVE SMOOTH",
"58 138 OFFCURVE",
"81 200 OFFCURVE",
"129 249 CURVE",
"156 228 OFFCURVE",
"187 218 OFFCURVE",
"220 218 CURVE SMOOTH",
"296 218 OFFCURVE",
"335 236 OFFCURVE",
"335 271 CURVE SMOOTH",
"335 287 OFFCURVE",
"326 301 OFFCURVE",
"309 312 CURVE SMOOTH",
"294 321 OFFCURVE",
"278 325 OFFCURVE",
"260 325 CURVE SMOOTH",
"215 325 OFFCURVE",
"173 313 OFFCURVE",
"134 290 CURVE",
"126 310 OFFCURVE",
"122 333 OFFCURVE",
"122 360 CURVE SMOOTH",
"122 401 OFFCURVE",
"140 440 OFFCURVE",
"176 476 CURVE SMOOTH",
"211 513 OFFCURVE",
"249 531 OFFCURVE",
"291 531 CURVE SMOOTH",
"310 531 OFFCURVE",
"328 525 OFFCURVE",
"344 513 CURVE SMOOTH",
"361 501 OFFCURVE",
"369 486 OFFCURVE",
"369 467 CURVE SMOOTH",
"369 454 OFFCURVE",
"362 442 OFFCURVE",
"348 430 CURVE SMOOTH",
"335 418 OFFCURVE",
"328 411 OFFCURVE",
"328 407 CURVE SMOOTH",
"328 402 OFFCURVE",
"330 399 OFFCURVE",
"335 399 CURVE SMOOTH",
"349 399 OFFCURVE",
"364 406 OFFCURVE",
"378 422 CURVE SMOOTH",
"392 437 OFFCURVE",
"400 452 OFFCURVE",
"400 466 CURVE SMOOTH",
"400 492 OFFCURVE",
"387 513 OFFCURVE",
"362 531 CURVE SMOOTH",
"339 548 OFFCURVE",
"314 555 OFFCURVE",
"287 555 CURVE SMOOTH",
"230 555 OFFCURVE",
"181 536 OFFCURVE",
"139 499 CURVE SMOOTH",
"95 460 OFFCURVE",
"73 412 OFFCURVE",
"73 356 CURVE SMOOTH",
"73 324 OFFCURVE",
"84 296 OFFCURVE",
"105 271 CURVE",
"43 221 OFFCURVE",
"12 152 OFFCURVE",
"12 62 CURVE SMOOTH",
"12 -37 OFFCURVE",
"77 -87 OFFCURVE",
"209 -87 CURVE SMOOTH"
);
},
{
closed = 1;
nodes = (
"183 237 OFFCURVE",
"162 247 OFFCURVE",
"147 267 CURVE",
"178 293 OFFCURVE",
"213 306 OFFCURVE",
"252 306 CURVE SMOOTH",
"266 306 OFFCURVE",
"274 298 OFFCURVE",
"274 283 CURVE SMOOTH",
"274 268 OFFCURVE",
"267 257 OFFCURVE",
"253 249 CURVE SMOOTH",
"240 241 OFFCURVE",
"225 237 OFFCURVE",
"210 237 CURVE SMOOTH"
);
}
);
width = 423;
}
);
note = E;
unicode = 0045;
},
{
glyphname = F;
lastChange = "2021-11-13 23:22:35 +0000";
layers = (
{
background = {
paths = (
{
closed = 1;
nodes = (
"296 -121 OFFCURVE",
"325 -109 OFFCURVE",
"350 -87 CURVE SMOOTH",
"430 -17 OFFCURVE",
"476 84 OFFCURVE",
"487 217 CURVE",
"515 219 OFFCURVE",
"547 225 OFFCURVE",
"583 233 CURVE SMOOTH",
"635 245 OFFCURVE",
"661 257 OFFCURVE",
"661 268 CURVE SMOOTH",
"661 277 OFFCURVE",
"657 281 OFFCURVE",
"650 281 CURVE SMOOTH",
"648 281 OFFCURVE",
"646 281 OFFCURVE",
"644 280 CURVE SMOOTH",
"610 266 OFFCURVE",
"573 258 OFFCURVE",
"535 258 CURVE SMOOTH",
"521 258 OFFCURVE",
"506 259 OFFCURVE",
"490 261 CURVE",
"491 328 OFFCURVE",
"485 393 OFFCURVE",
"471 458 CURVE",
"545 430 OFFCURVE",
"596 416 OFFCURVE",
"626 416 CURVE SMOOTH",
"650 416 OFFCURVE",
"671 422 OFFCURVE",
"691 433 CURVE SMOOTH",
"715 446 OFFCURVE",
"726 464 OFFCURVE",
"726 487 CURVE SMOOTH",
"726 497 OFFCURVE",
"722 507 OFFCURVE",
"715 515 CURVE SMOOTH",
"707 524 OFFCURVE",
"698 528 OFFCURVE",
"689 528 CURVE SMOOTH",
"682 528 OFFCURVE",
"679 525 OFFCURVE",
"679 519 CURVE SMOOTH",
"679 513 OFFCURVE",
"682 509 OFFCURVE",
"687 509 CURVE SMOOTH",
"688 509 OFFCURVE",
"689 510 OFFCURVE",
"690 510 CURVE",
"701 506 OFFCURVE",
"706 500 OFFCURVE",
"706 491 CURVE SMOOTH",
"706 474 OFFCURVE",
"694 460 OFFCURVE",
"670 451 CURVE SMOOTH",
"652 444 OFFCURVE",
"634 441 OFFCURVE",
"615 441 CURVE SMOOTH",
"590 441 OFFCURVE",
"564 445 OFFCURVE",
"538 455 CURVE SMOOTH",
"506 466 OFFCURVE",
"482 476 OFFCURVE",
"465 482 CURVE",
"460 504 OFFCURVE",
"456 517 OFFCURVE",
"452 522 CURVE SMOOTH",
"445 531 OFFCURVE",
"433 535 OFFCURVE",
"415 535 CURVE SMOOTH",
"396 535 OFFCURVE",
"387 531 OFFCURVE",
"387 524 CURVE SMOOTH",
"387 521 OFFCURVE",
"389 516 OFFCURVE",
"392 508 CURVE",
"322 532 OFFCURVE",
"262 544 OFFCURVE",
"211 544 CURVE SMOOTH",
"169 544 OFFCURVE",
"129 537 OFFCURVE",
"92 525 CURVE SMOOTH",
"65 516 OFFCURVE",
"43 494 OFFCURVE",
"24 459 CURVE SMOOTH",
"7 427 OFFCURVE",
"-1 396 OFFCURVE",
"-1 366 CURVE SMOOTH",
"-1 358 OFFCURVE",
"2 354 OFFCURVE",
"7 354 CURVE SMOOTH",
"14 354 OFFCURVE",
"18 358 OFFCURVE",
"20 367 CURVE SMOOTH",
"26 394 OFFCURVE",
"30 410 OFFCURVE",
"32 413 CURVE",
"61 475 OFFCURVE",
"131 506 OFFCURVE",
"243 506 CURVE SMOOTH",
"291 506 OFFCURVE",
"344 497 OFFCURVE",
"403 480 CURVE",
"425 416 OFFCURVE",
"437 344 OFFCURVE",
"439 266 CURVE",
"404 269 OFFCURVE",
"377 271 OFFCURVE",
"356 271 CURVE SMOOTH",
"351 271 OFFCURVE",
"348 266 OFFCURVE",
"348 255 CURVE SMOOTH",
"348 248 OFFCURVE",
"350 239 OFFCURVE",
"354 230 CURVE SMOOTH",
"358 218 OFFCURVE",
"362 212 OFFCURVE",
"367 212 CURVE SMOOTH",
"394 212 OFFCURVE",
"419 212 OFFCURVE",
"440 213 CURVE",
"440 150 OFFCURVE",
"432 98 OFFCURVE",
"419 57 CURVE SMOOTH",
"403 5 OFFCURVE",
"375 -39 OFFCURVE",
"335 -75 CURVE SMOOTH",
"317 -90 OFFCURVE",
"297 -98 OFFCURVE",
"273 -98 CURVE SMOOTH",
"231 -98 OFFCURVE",
"190 -79 OFFCURVE",
"152 -40 CURVE SMOOTH",
"113 -2 OFFCURVE",
"94 38 OFFCURVE",
"94 79 CURVE SMOOTH",
"94 109 OFFCURVE",
"106 133 OFFCURVE",
"129 153 CURVE SMOOTH",
"169 188 OFFCURVE",
"206 205 OFFCURVE",
"242 205 CURVE SMOOTH",
"266 205 OFFCURVE",
"286 198 OFFCURVE",
"303 182 CURVE SMOOTH",
"319 167 OFFCURVE",
"328 148 OFFCURVE",
"328 124 CURVE SMOOTH",
"328 103 OFFCURVE",
"318 81 OFFCURVE",
"298 60 CURVE SMOOTH",
"279 38 OFFCURVE",
"259 27 OFFCURVE",
"238 27 CURVE SMOOTH",
"227 27 OFFCURVE",
"222 41 OFFCURVE",
"222 69 CURVE SMOOTH",
"222 89 OFFCURVE",
"228 104 OFFCURVE",
"239 114 CURVE SMOOTH",
"257 131 LINE",
"257 134 OFFCURVE",
"254 135 OFFCURVE",
"250 135 CURVE SMOOTH",
"247 135 OFFCURVE",
"243 134 OFFCURVE",
"238 131 CURVE SMOOTH",
"210 112 OFFCURVE",
"196 88 OFFCURVE",
"196 60 CURVE SMOOTH",
"196 43 OFFCURVE",
"200 28 OFFCURVE",
"208 15 CURVE SMOOTH",
"216 3 OFFCURVE",
"229 -3 OFFCURVE",
"245 -3 CURVE SMOOTH",
"269 -3 OFFCURVE",
"292 12 OFFCURVE",
"313 42 CURVE SMOOTH",
"335 73 OFFCURVE",
"346 105 OFFCURVE",
"346 139 CURVE SMOOTH",
"346 210 OFFCURVE",
"319 246 OFFCURVE",
"266 246 CURVE SMOOTH",
"222 246 OFFCURVE",
"170 219 OFFCURVE",
"111 165 CURVE SMOOTH",
"87 143 OFFCURVE",
"75 114 OFFCURVE",
"75 76 CURVE SMOOTH",
"75 22 OFFCURVE",
"93 -23 OFFCURVE",
"128 -61 CURVE SMOOTH",
"164 -100 OFFCURVE",
"208 -121 OFFCURVE",
"261 -121 CURVE SMOOTH"
);
}
);
};
layerId = "A20F32D1-A37C-460A-962C-541C205D5E83";
paths = (
{
closed = 1;
nodes = (
"296 -121 OFFCURVE",
"325 -109 OFFCURVE",
"350 -87 CURVE SMOOTH",
"430 -17 OFFCURVE",
"476 84 OFFCURVE",
"487 217 CURVE",
"515 219 OFFCURVE",
"547 225 OFFCURVE",
"583 233 CURVE SMOOTH",
"635 245 OFFCURVE",
"661 257 OFFCURVE",
"661 268 CURVE SMOOTH",
"661 277 OFFCURVE",
"657 281 OFFCURVE",
"650 281 CURVE SMOOTH",
"648 281 OFFCURVE",
"646 281 OFFCURVE",
"644 280 CURVE SMOOTH",
"610 266 OFFCURVE",
"573 258 OFFCURVE",
"535 258 CURVE SMOOTH",
"521 258 OFFCURVE",
"506 259 OFFCURVE",
"490 261 CURVE",
"491 328 OFFCURVE",
"485 393 OFFCURVE",
"471 458 CURVE",
"545 430 OFFCURVE",
"596 416 OFFCURVE",
"626 416 CURVE SMOOTH",
"650 416 OFFCURVE",
"671 422 OFFCURVE",
"691 433 CURVE SMOOTH",
"715 446 OFFCURVE",
"726 464 OFFCURVE",
"726 487 CURVE SMOOTH",
"726 497 OFFCURVE",
"722 507 OFFCURVE",
"715 515 CURVE SMOOTH",
"707 524 OFFCURVE",
"698 528 OFFCURVE",
"689 528 CURVE SMOOTH",
"682 528 OFFCURVE",
"679 525 OFFCURVE",
"679 519 CURVE SMOOTH",
"679 513 OFFCURVE",
"682 509 OFFCURVE",
"687 509 CURVE SMOOTH",
"688 509 OFFCURVE",
"689 510 OFFCURVE",
"690 510 CURVE",
"701 506 OFFCURVE",
"706 500 OFFCURVE",
"706 491 CURVE SMOOTH",
"706 474 OFFCURVE",
"694 460 OFFCURVE",
"670 451 CURVE SMOOTH",
"652 444 OFFCURVE",
"634 441 OFFCURVE",
"615 441 CURVE SMOOTH",
"590 441 OFFCURVE",
"564 445 OFFCURVE",
"538 455 CURVE SMOOTH",
"506 466 OFFCURVE",
"482 476 OFFCURVE",
"465 482 CURVE",
"460 504 OFFCURVE",
"456 517 OFFCURVE",
"452 522 CURVE SMOOTH",
"445 531 OFFCURVE",
"433 535 OFFCURVE",
"415 535 CURVE SMOOTH",
"396 535 OFFCURVE",
"387 531 OFFCURVE",
"387 524 CURVE SMOOTH",
"387 521 OFFCURVE",
"389 516 OFFCURVE",
"392 508 CURVE",
"322 532 OFFCURVE",
"262 544 OFFCURVE",
"211 544 CURVE SMOOTH",
"169 544 OFFCURVE",
"129 537 OFFCURVE",
"92 525 CURVE SMOOTH",
"65 516 OFFCURVE",
"43 494 OFFCURVE",
"24 459 CURVE SMOOTH",
"7 427 OFFCURVE",
"-1 396 OFFCURVE",
"-1 366 CURVE SMOOTH",
"-1 358 OFFCURVE",
"2 354 OFFCURVE",
"7 354 CURVE SMOOTH",
"14 354 OFFCURVE",
"18 358 OFFCURVE",
"20 367 CURVE SMOOTH",
"26 394 OFFCURVE",
"30 410 OFFCURVE",
"32 413 CURVE",
"61 475 OFFCURVE",
"131 506 OFFCURVE",
"243 506 CURVE SMOOTH",
"291 506 OFFCURVE",
"344 497 OFFCURVE",
"403 480 CURVE",
"425 416 OFFCURVE",
"437 344 OFFCURVE",
"439 266 CURVE",
"404 269 OFFCURVE",
"377 271 OFFCURVE",
"356 271 CURVE SMOOTH",
"351 271 OFFCURVE",
"348 266 OFFCURVE",
"348 255 CURVE SMOOTH",
"348 248 OFFCURVE",
"350 239 OFFCURVE",
"354 230 CURVE SMOOTH",
"358 218 OFFCURVE",
"362 212 OFFCURVE",
"367 212 CURVE SMOOTH",
"394 212 OFFCURVE",
"419 212 OFFCURVE",
"440 213 CURVE",
"440 150 OFFCURVE",
"432 98 OFFCURVE",
"419 57 CURVE SMOOTH",
"403 5 OFFCURVE",
"375 -39 OFFCURVE",
"335 -75 CURVE SMOOTH",
"317 -90 OFFCURVE",
"297 -98 OFFCURVE",
"273 -98 CURVE SMOOTH",
"231 -98 OFFCURVE",
"190 -79 OFFCURVE",
"152 -40 CURVE SMOOTH",
"113 -2 OFFCURVE",
"94 38 OFFCURVE",
"94 79 CURVE SMOOTH",
"94 109 OFFCURVE",
"106 133 OFFCURVE",
"129 153 CURVE SMOOTH",
"169 188 OFFCURVE",
"206 205 OFFCURVE",
"242 205 CURVE SMOOTH",
"266 205 OFFCURVE",
"286 198 OFFCURVE",
"303 182 CURVE SMOOTH",
"319 167 OFFCURVE",
"328 148 OFFCURVE",
"328 124 CURVE SMOOTH",
"328 103 OFFCURVE",
"318 81 OFFCURVE",
"298 60 CURVE SMOOTH",
"279 38 OFFCURVE",
"259 27 OFFCURVE",
"238 27 CURVE SMOOTH",
"227 27 OFFCURVE",
"222 41 OFFCURVE",
"222 69 CURVE SMOOTH",
"222 89 OFFCURVE",
"228 104 OFFCURVE",
"239 114 CURVE SMOOTH",
"257 131 LINE",
"257 134 OFFCURVE",
"254 135 OFFCURVE",
"250 135 CURVE SMOOTH",
"247 135 OFFCURVE",
"243 134 OFFCURVE",
"238 131 CURVE SMOOTH",
"210 112 OFFCURVE",
"196 88 OFFCURVE",
"196 60 CURVE SMOOTH",
"196 43 OFFCURVE",
"200 28 OFFCURVE",
"208 15 CURVE SMOOTH",
"216 3 OFFCURVE",
"229 -3 OFFCURVE",
"245 -3 CURVE SMOOTH",
"269 -3 OFFCURVE",
"292 12 OFFCURVE",
"313 42 CURVE SMOOTH",
"335 73 OFFCURVE",
"346 105 OFFCURVE",
"346 139 CURVE SMOOTH",
"346 210 OFFCURVE",
"319 246 OFFCURVE",
"266 246 CURVE SMOOTH",
"222 246 OFFCURVE",
"170 219 OFFCURVE",
"111 165 CURVE SMOOTH",
"87 143 OFFCURVE",
"75 114 OFFCURVE",
"75 76 CURVE SMOOTH",
"75 22 OFFCURVE",
"93 -23 OFFCURVE",
"128 -61 CURVE SMOOTH",
"164 -100 OFFCURVE",
"208 -121 OFFCURVE",
"261 -121 CURVE SMOOTH"
);
}
);
width = 634;
}
);
note = F;
unicode = 0046;
},
{
glyphname = G;
lastChange = "2021-11-14 00:49:54 +0000";
layers = (
{
anchors = (
{
name = bottom;
position = "{256, -154}";
},
{
name = top;
position = "{372, 510}";
}
);
background = {
paths = (
{
closed = 1;
nodes = (
"356 -172 OFFCURVE",
"387 -143 OFFCURVE",
"406 -85 CURVE SMOOTH",
"413 -62 OFFCURVE",
"420 -15 OFFCURVE",
"428 57 CURVE SMOOTH",
"438 136 OFFCURVE",
"448 191 OFFCURVE",
"454 222 CURVE SMOOTH",
"461 258 OFFCURVE",
"464 282 OFFCURVE",
"464 294 CURVE SMOOTH",
"464 301 OFFCURVE",
"460 304 OFFCURVE",
"452 304 CURVE SMOOTH",
"439 304 OFFCURVE",
"429 299 OFFCURVE",
"425 288 CURVE SMOOTH",
"418 272 OFFCURVE",
"413 260 OFFCURVE",
"409 252 CURVE SMOOTH",
"389 218 OFFCURVE",
"364 191 OFFCURVE",
"333 170 CURVE SMOOTH",
"300 148 OFFCURVE",
"264 137 OFFCURVE",
"228 137 CURVE SMOOTH",
"171 137 OFFCURVE",
"130 155 OFFCURVE",
"106 193 CURVE SMOOTH",
"100 202 OFFCURVE",
"97 218 OFFCURVE",
"97 240 CURVE SMOOTH",
"97 285 OFFCURVE",
"110 327 OFFCURVE",
"137 367 CURVE",
"199 348 OFFCURVE",
"269 338 OFFCURVE",
"347 338 CURVE SMOOTH",
"473 338 OFFCURVE",
"536 367 OFFCURVE",
"536 427 CURVE SMOOTH",
"536 484 OFFCURVE",
"491 513 OFFCURVE",
"403 513 CURVE SMOOTH",
"350 513 OFFCURVE",
"298 504 OFFCURVE",
"249 485 CURVE SMOOTH",
"196 465 OFFCURVE",
"154 436 OFFCURVE",
"122 398 CURVE",
"54 425 OFFCURVE",
"20 455 OFFCURVE",
"20 488 CURVE SMOOTH",
"20 520 OFFCURVE",
"42 536 OFFCURVE",
"86 536 CURVE SMOOTH",
"122 536 OFFCURVE",
"140 514 OFFCURVE",
"140 472 CURVE SMOOTH",
"140 459 OFFCURVE",
"143 452 OFFCURVE",
"149 452 CURVE SMOOTH",
"167 452 OFFCURVE",
"176 460 OFFCURVE",
"176 476 CURVE SMOOTH",
"176 497 OFFCURVE",
"165 516 OFFCURVE",
"144 532 CURVE SMOOTH",
"123 548 OFFCURVE",
"102 556 OFFCURVE",
"80 556 CURVE SMOOTH",
"58 556 OFFCURVE",
"39 550 OFFCURVE",
"23 537 CURVE SMOOTH",
"8 525 OFFCURVE",
"0 508 OFFCURVE",
"0 486 CURVE SMOOTH",
"0 442 OFFCURVE",
"35 405 OFFCURVE",
"106 377 CURVE",
"73 330 OFFCURVE",
"56 286 OFFCURVE",
"56 245 CURVE SMOOTH",
"56 225 OFFCURVE",
"60 205 OFFCURVE",
"70 188 CURVE SMOOTH",
"99 138 OFFCURVE",
"146 114 OFFCURVE",
"210 114 CURVE SMOOTH",
"299 114 OFFCURVE",
"364 143 OFFCURVE",
"405 201 CURVE",
"399 165 OFFCURVE",
"396 123 OFFCURVE",
"396 77 CURVE SMOOTH",
"396 12 OFFCURVE",
"393 -31 OFFCURVE",
"387 -53 CURVE SMOOTH",
"374 -102 OFFCURVE",
"345 -127 OFFCURVE",
"300 -127 CURVE SMOOTH",
"264 -127 OFFCURVE",
"227 -113 OFFCURVE",
"187 -85 CURVE SMOOTH",
"145 -54 OFFCURVE",
"123 -24 OFFCURVE",
"123 8 CURVE SMOOTH",
"123 41 OFFCURVE",
"146 58 OFFCURVE",
"193 58 CURVE SMOOTH",
"219 58 OFFCURVE",
"238 55 OFFCURVE",
"250 50 CURVE",
"275 35 OFFCURVE",
"287 18 OFFCURVE",
"287 -2 CURVE SMOOTH",
"287 -17 OFFCURVE",
"280 -24 OFFCURVE",
"266 -24 CURVE SMOOTH",
"257 -24 OFFCURVE",
"249 -20 OFFCURVE",
"242 -10 CURVE SMOOTH",
"235 -1 OFFCURVE",
"230 4 OFFCURVE",
"228 4 CURVE SMOOTH",
"221 4 OFFCURVE",
"218 1 OFFCURVE",
"218 -5 CURVE SMOOTH",
"218 -15 OFFCURVE",
"225 -23 OFFCURVE",
"238 -30 CURVE SMOOTH",
"249 -35 OFFCURVE",
"259 -39 OFFCURVE",
"269 -39 CURVE SMOOTH",
"294 -39 OFFCURVE",
"306 -29 OFFCURVE",
"306 -10 CURVE SMOOTH",
"306 -4 OFFCURVE",
"304 4 OFFCURVE",
"299 15 CURVE SMOOTH",
"278 58 OFFCURVE",
"245 79 OFFCURVE",
"200 79 CURVE SMOOTH",
"174 79 OFFCURVE",
"152 74 OFFCURVE",
"134 64 CURVE SMOOTH",
"112 51 OFFCURVE",
"101 33 OFFCURVE",
"101 9 CURVE SMOOTH",
"101 -2 OFFCURVE",
"103 -13 OFFCURVE",
"108 -25 CURVE SMOOTH",
"127 -73 OFFCURVE",
"157 -108 OFFCURVE",
"198 -132 CURVE SMOOTH",
"244 -159 OFFCURVE",
"281 -172 OFFCURVE",
"311 -172 CURVE SMOOTH"
);
},
{
closed = 1;
nodes = (
"259 354 OFFCURVE",
"201 363 OFFCURVE",
"143 382 CURVE",
"172 418 OFFCURVE",
"210 446 OFFCURVE",
"258 465 CURVE SMOOTH",
"303 484 OFFCURVE",
"350 493 OFFCURVE",
"399 493 CURVE SMOOTH",
"425 493 OFFCURVE",
"447 489 OFFCURVE",
"466 482 CURVE SMOOTH",
"492 471 OFFCURVE",
"505 455 OFFCURVE",
"505 433 CURVE SMOOTH",
"505 404 OFFCURVE",
"480 382 OFFCURVE",
"429 368 CURVE SMOOTH",
"395 358 OFFCURVE",
"357 354 OFFCURVE",
"317 354 CURVE SMOOTH"
);
}
);
};
layerId = "A20F32D1-A37C-460A-962C-541C205D5E83";
paths = (
{
closed = 1;
nodes = (
"356 -172 OFFCURVE",
"387 -143 OFFCURVE",
"406 -85 CURVE SMOOTH",
"413 -62 OFFCURVE",
"420 -15 OFFCURVE",
"428 57 CURVE SMOOTH",
"438 136 OFFCURVE",
"448 191 OFFCURVE",
"454 222 CURVE SMOOTH",
"461 258 OFFCURVE",
"464 282 OFFCURVE",
"464 294 CURVE SMOOTH",
"464 301 OFFCURVE",
"460 304 OFFCURVE",
"452 304 CURVE SMOOTH",
"439 304 OFFCURVE",
"429 299 OFFCURVE",
"425 288 CURVE SMOOTH",
"418 272 OFFCURVE",
"413 260 OFFCURVE",
"409 252 CURVE SMOOTH",
"389 218 OFFCURVE",
"364 191 OFFCURVE",
"333 170 CURVE SMOOTH",
"300 148 OFFCURVE",
"264 137 OFFCURVE",
"228 137 CURVE SMOOTH",
"171 137 OFFCURVE",
"130 155 OFFCURVE",
"106 193 CURVE SMOOTH",
"100 202 OFFCURVE",
"97 218 OFFCURVE",
"97 240 CURVE SMOOTH",
"97 285 OFFCURVE",
"110 327 OFFCURVE",
"137 367 CURVE",
"199 348 OFFCURVE",
"269 338 OFFCURVE",
"347 338 CURVE SMOOTH",
"473 338 OFFCURVE",
"536 367 OFFCURVE",
"536 427 CURVE SMOOTH",
"536 484 OFFCURVE",
"491 513 OFFCURVE",
"403 513 CURVE SMOOTH",
"350 513 OFFCURVE",
"298 504 OFFCURVE",
"249 485 CURVE SMOOTH",
"196 465 OFFCURVE",
"154 436 OFFCURVE",
"122 398 CURVE",
"54 425 OFFCURVE",
"20 455 OFFCURVE",
"20 488 CURVE SMOOTH",
"20 520 OFFCURVE",
"42 536 OFFCURVE",
"86 536 CURVE SMOOTH",
"122 536 OFFCURVE",
"140 514 OFFCURVE",
"140 472 CURVE SMOOTH",
"140 459 OFFCURVE",
"143 452 OFFCURVE",
"149 452 CURVE SMOOTH",
"167 452 OFFCURVE",
"176 460 OFFCURVE",
"176 476 CURVE SMOOTH",
"176 497 OFFCURVE",
"165 516 OFFCURVE",
"144 532 CURVE SMOOTH",
"123 548 OFFCURVE",
"102 556 OFFCURVE",
"80 556 CURVE SMOOTH",
"58 556 OFFCURVE",
"39 550 OFFCURVE",
"23 537 CURVE SMOOTH",
"8 525 OFFCURVE",
"0 508 OFFCURVE",
"0 486 CURVE SMOOTH",
"0 442 OFFCURVE",
"35 405 OFFCURVE",
"106 377 CURVE",
"73 330 OFFCURVE",
"56 286 OFFCURVE",
"56 245 CURVE SMOOTH",
"56 225 OFFCURVE",
"60 205 OFFCURVE",
"70 188 CURVE SMOOTH",
"99 138 OFFCURVE",
"146 114 OFFCURVE",
"210 114 CURVE SMOOTH",
"299 114 OFFCURVE",
"364 143 OFFCURVE",
"405 201 CURVE",
"399 165 OFFCURVE",
"396 123 OFFCURVE",
"396 77 CURVE SMOOTH",
"396 12 OFFCURVE",
"393 -31 OFFCURVE",
"387 -53 CURVE SMOOTH",
"374 -102 OFFCURVE",
"345 -127 OFFCURVE",
"300 -127 CURVE SMOOTH",
"264 -127 OFFCURVE",
"227 -113 OFFCURVE",
"187 -85 CURVE SMOOTH",
"145 -54 OFFCURVE",
"123 -24 OFFCURVE",
"123 8 CURVE SMOOTH",
"123 41 OFFCURVE",
"146 58 OFFCURVE",
"193 58 CURVE SMOOTH",
"219 58 OFFCURVE",
"238 55 OFFCURVE",
"250 50 CURVE",
"275 35 OFFCURVE",
"287 18 OFFCURVE",
"287 -2 CURVE SMOOTH",
"287 -17 OFFCURVE",
"280 -24 OFFCURVE",
"266 -24 CURVE SMOOTH",
"257 -24 OFFCURVE",
"249 -20 OFFCURVE",
"242 -10 CURVE SMOOTH",
"235 -1 OFFCURVE",
"230 4 OFFCURVE",
"228 4 CURVE SMOOTH",
"221 4 OFFCURVE",
"218 1 OFFCURVE",
"218 -5 CURVE SMOOTH",
"218 -15 OFFCURVE",
"225 -23 OFFCURVE",
"238 -30 CURVE SMOOTH",
"249 -35 OFFCURVE",
"259 -39 OFFCURVE",
"269 -39 CURVE SMOOTH",
"294 -39 OFFCURVE",
"306 -29 OFFCURVE",
"306 -10 CURVE SMOOTH",
"306 -4 OFFCURVE",
"304 4 OFFCURVE",
"299 15 CURVE SMOOTH",
"278 58 OFFCURVE",
"245 79 OFFCURVE",
"200 79 CURVE SMOOTH",
"174 79 OFFCURVE",
"152 74 OFFCURVE",
"134 64 CURVE SMOOTH",
"112 51 OFFCURVE",
"101 33 OFFCURVE",
"101 9 CURVE SMOOTH",
"101 -2 OFFCURVE",
"103 -13 OFFCURVE",
"108 -25 CURVE SMOOTH",
"127 -73 OFFCURVE",
"157 -108 OFFCURVE",
"198 -132 CURVE SMOOTH",
"244 -159 OFFCURVE",
"281 -172 OFFCURVE",
"311 -172 CURVE SMOOTH"
);
},
{
closed = 1;
nodes = (
"259 354 OFFCURVE",
"201 363 OFFCURVE",
"143 382 CURVE",
"172 418 OFFCURVE",
"210 446 OFFCURVE",
"258 465 CURVE SMOOTH",
"303 484 OFFCURVE",
"350 493 OFFCURVE",
"399 493 CURVE SMOOTH",
"425 493 OFFCURVE",
"447 489 OFFCURVE",
"466 482 CURVE SMOOTH",
"492 471 OFFCURVE",
"505 455 OFFCURVE",
"505 433 CURVE SMOOTH",
"505 404 OFFCURVE",
"480 382 OFFCURVE",
"429 368 CURVE SMOOTH",
"395 358 OFFCURVE",
"357 354 OFFCURVE",
"317 354 CURVE SMOOTH"
);
}
);
width = 507;
}
);
note = G;
unicode = 0047;
},
{
glyphname = H;
lastChange = "2021-11-14 00:37:04 +0000";
layers = (
{
anchors = (
{
name = bottom;
position = "{382, 0}";
},
{
name = center;
position = "{382, 255}";
},
{
name = top;
position = "{534, 575}";
},
{
name = topleft;
position = "{20, 510}";
}
);
background = {
paths = (
{
closed = 1;
nodes = (
"204 -148 OFFCURVE",
"247 -122 OFFCURVE",
"272 -72 CURVE SMOOTH",
"289 -35 OFFCURVE",
"298 17 OFFCURVE",
"298 86 CURVE SMOOTH",
"298 102 OFFCURVE",
"297 127 OFFCURVE",
"295 160 CURVE SMOOTH",
"293 193 OFFCURVE",
"293 217 OFFCURVE",
"293 233 CURVE",
"314 233 LINE SMOOTH",
"360 233 OFFCURVE",
"409 229 OFFCURVE",
"459 218 CURVE SMOOTH",
"522 204 OFFCURVE",
"569 192 OFFCURVE",
"601 185 CURVE",
"598 153 OFFCURVE",
"597 124 OFFCURVE",
"597 97 CURVE SMOOTH",
"597 -32 OFFCURVE",
"633 -97 OFFCURVE",
"707 -97 CURVE SMOOTH",
"732 -97 OFFCURVE",
"745 -89 OFFCURVE",
"745 -73 CURVE SMOOTH",
"745 -63 OFFCURVE",
"741 -58 OFFCURVE",
"734 -58 CURVE SMOOTH",
"731 -58 OFFCURVE",
"728 -61 OFFCURVE",
"723 -65 CURVE SMOOTH",
"719 -69 OFFCURVE",
"713 -71 OFFCURVE",
"707 -71 CURVE SMOOTH",
"650 -71 OFFCURVE",
"621 -29 OFFCURVE",
"621 54 CURVE SMOOTH",
"621 88 OFFCURVE",
"626 130 OFFCURVE",
"635 178 CURVE",
"659 174 OFFCURVE",
"681 172 OFFCURVE",
"700 172 CURVE SMOOTH",
"742 172 OFFCURVE",
"763 187 OFFCURVE",
"763 218 CURVE SMOOTH",
"763 229 OFFCURVE",
"759 243 OFFCURVE",
"751 262 CURVE SMOOTH",
"743 280 OFFCURVE",
"734 289 OFFCURVE",
"725 289 CURVE SMOOTH",
"717 289 OFFCURVE",
"713 285 OFFCURVE",
"713 276 CURVE SMOOTH",
"713 274 OFFCURVE",
"715 270 OFFCURVE",
"719 264 CURVE SMOOTH",
"723 257 OFFCURVE",
"725 251 OFFCURVE",
"725 245 CURVE SMOOTH",
"725 223 OFFCURVE",
"701 213 OFFCURVE",
"653 213 CURVE SMOOTH",
"642 213 LINE",
"652 256 OFFCURVE",
"668 316 OFFCURVE",
"689 393 CURVE SMOOTH",
"719 496 OFFCURVE",
"734 557 OFFCURVE",
"734 573 CURVE SMOOTH",
"734 585 OFFCURVE",
"721 591 OFFCURVE",
"697 591 CURVE SMOOTH",
"684 591 OFFCURVE",
"676 587 OFFCURVE",
"673 581 CURVE",
"671 569 OFFCURVE",
"669 560 OFFCURVE",
"669 554 CURVE",
"653 486 LINE SMOOTH",
"628 373 OFFCURVE",
"612 282 OFFCURVE",
"604 214 CURVE",
"569 218 OFFCURVE",
"517 228 OFFCURVE",
"449 244 CURVE SMOOTH",
"380 260 OFFCURVE",
"328 270 OFFCURVE",
"293 274 CURVE",
"295 397 OFFCURVE",
"311 477 OFFCURVE",
"341 514 CURVE SMOOTH",
"347 522 OFFCURVE",
"355 529 OFFCURVE",
"365 535 CURVE SMOOTH",
"373 539 OFFCURVE",
"377 543 OFFCURVE",
"377 548 CURVE SMOOTH",
"377 562 OFFCURVE",
"367 569 OFFCURVE",
"347 569 CURVE SMOOTH",
"336 569 OFFCURVE",
"325 564 OFFCURVE",
"314 555 CURVE SMOOTH",
"272 521 OFFCURVE",
"250 455 OFFCURVE",
"250 357 CURVE SMOOTH",
"250 333 OFFCURVE",
"251 306 OFFCURVE",
"254 276 CURVE",
"217 276 OFFCURVE",
"192 273 OFFCURVE",
"178 265 CURVE",
"168 277 OFFCURVE",
"156 284 OFFCURVE",
"142 284 CURVE SMOOTH",
"96 284 OFFCURVE",
"60 255 OFFCURVE",
"33 196 CURVE SMOOTH",
"12 150 OFFCURVE",
"2 101 OFFCURVE",
"2 50 CURVE SMOOTH",
"2 -3 OFFCURVE",
"12 -46 OFFCURVE",
"32 -82 CURVE SMOOTH",
"57 -125 OFFCURVE",
"94 -148 OFFCURVE",
"142 -148 CURVE SMOOTH"
);
},
{
closed = 1;
nodes = (
"106 -122 OFFCURVE",
"78 -103 OFFCURVE",
"61 -64 CURVE SMOOTH",
"48 -35 OFFCURVE",
"42 1 OFFCURVE",
"42 43 CURVE SMOOTH",
"42 87 OFFCURVE",
"49 129 OFFCURVE",
"63 171 CURVE SMOOTH",
"82 229 OFFCURVE",
"109 258 OFFCURVE",
"142 258 CURVE SMOOTH",
"148 258 OFFCURVE",
"153 255 OFFCURVE",
"158 249 CURVE",
"138 236 OFFCURVE",
"123 214 OFFCURVE",
"110 184 CURVE SMOOTH",
"98 155 OFFCURVE",
"92 129 OFFCURVE",
"92 103 CURVE SMOOTH",
"92 61 OFFCURVE",
"107 40 OFFCURVE",
"137 40 CURVE SMOOTH",
"161 40 OFFCURVE",
"180 54 OFFCURVE",
"193 81 CURVE SMOOTH",
"202 102 OFFCURVE",
"207 127 OFFCURVE",
"207 155 CURVE SMOOTH",
"207 176 OFFCURVE",
"204 198 OFFCURVE",
"198 220 CURVE",
"214 225 OFFCURVE",
"234 229 OFFCURVE",
"258 231 CURVE",
"267 147 OFFCURVE",
"271 94 OFFCURVE",
"271 70 CURVE SMOOTH",
"271 -58 OFFCURVE",
"228 -122 OFFCURVE",
"142 -122 CURVE SMOOTH"
);
},
{
closed = 1;
nodes = (
"124 74 OFFCURVE",
"118 87 OFFCURVE",
"118 105 CURVE SMOOTH",
"118 123 OFFCURVE",
"124 142 OFFCURVE",
"135 163 CURVE SMOOTH",
"146 185 OFFCURVE",
"159 200 OFFCURVE",
"174 208 CURVE",
"179 187 OFFCURVE",
"181 169 OFFCURVE",
"181 155 CURVE SMOOTH",
"181 135 OFFCURVE",
"178 117 OFFCURVE",
"173 101 CURVE SMOOTH",
"165 77 OFFCURVE",
"152 66 OFFCURVE",
"137 66 CURVE"
);
}
);
};
layerId = "A20F32D1-A37C-460A-962C-541C205D5E83";
paths = (
{
closed = 1;
nodes = (
"204 -148 OFFCURVE",
"247 -122 OFFCURVE",
"272 -72 CURVE SMOOTH",
"289 -35 OFFCURVE",
"298 17 OFFCURVE",
"298 86 CURVE SMOOTH",
"298 102 OFFCURVE",
"297 127 OFFCURVE",
"295 160 CURVE SMOOTH",
"293 193 OFFCURVE",
"293 217 OFFCURVE",
"293 233 CURVE",
"314 233 LINE SMOOTH",
"360 233 OFFCURVE",
"409 229 OFFCURVE",
"459 218 CURVE SMOOTH",
"522 204 OFFCURVE",
"569 192 OFFCURVE",
"601 185 CURVE",
"598 153 OFFCURVE",
"597 124 OFFCURVE",
"597 97 CURVE SMOOTH",
"597 -32 OFFCURVE",
"633 -97 OFFCURVE",
"707 -97 CURVE SMOOTH",
"732 -97 OFFCURVE",
"745 -89 OFFCURVE",
"745 -73 CURVE SMOOTH",
"745 -63 OFFCURVE",
"741 -58 OFFCURVE",
"734 -58 CURVE SMOOTH",
"731 -58 OFFCURVE",
"728 -61 OFFCURVE",
"723 -65 CURVE SMOOTH",
"719 -69 OFFCURVE",
"713 -71 OFFCURVE",
"707 -71 CURVE SMOOTH",
"650 -71 OFFCURVE",
"621 -29 OFFCURVE",
"621 54 CURVE SMOOTH",
"621 88 OFFCURVE",
"626 130 OFFCURVE",
"635 178 CURVE",
"659 174 OFFCURVE",
"681 172 OFFCURVE",
"700 172 CURVE SMOOTH",
"742 172 OFFCURVE",
"763 187 OFFCURVE",
"763 218 CURVE SMOOTH",
"763 229 OFFCURVE",
"759 243 OFFCURVE",
"751 262 CURVE SMOOTH",
"743 280 OFFCURVE",
"734 289 OFFCURVE",
"725 289 CURVE SMOOTH",
"717 289 OFFCURVE",
"713 285 OFFCURVE",
"713 276 CURVE SMOOTH",
"713 274 OFFCURVE",
"715 270 OFFCURVE",
"719 264 CURVE SMOOTH",
"723 257 OFFCURVE",
"725 251 OFFCURVE",
"725 245 CURVE SMOOTH",
"725 223 OFFCURVE",
"701 213 OFFCURVE",
"653 213 CURVE SMOOTH",
"642 213 LINE",
"652 256 OFFCURVE",
"668 316 OFFCURVE",
"689 393 CURVE SMOOTH",
"719 496 OFFCURVE",
"734 557 OFFCURVE",
"734 573 CURVE SMOOTH",
"734 585 OFFCURVE",
"721 591 OFFCURVE",
"697 591 CURVE SMOOTH",
"684 591 OFFCURVE",
"676 587 OFFCURVE",
"673 581 CURVE",
"671 569 OFFCURVE",
"669 560 OFFCURVE",
"669 554 CURVE",
"653 486 LINE SMOOTH",
"626 373 OFFCURVE",
"612 282 OFFCURVE",
"604 214 CURVE",
"569 218 OFFCURVE",
"517 228 OFFCURVE",
"449 244 CURVE SMOOTH",
"380 260 OFFCURVE",
"328 270 OFFCURVE",
"293 274 CURVE",
"295 397 OFFCURVE",
"311 477 OFFCURVE",
"341 514 CURVE SMOOTH",
"347 522 OFFCURVE",
"355 529 OFFCURVE",
"365 535 CURVE SMOOTH",
"373 539 OFFCURVE",
"377 543 OFFCURVE",
"377 548 CURVE SMOOTH",
"377 562 OFFCURVE",
"367 569 OFFCURVE",
"347 569 CURVE SMOOTH",
"336 569 OFFCURVE",
"325 564 OFFCURVE",
"314 555 CURVE SMOOTH",
"272 521 OFFCURVE",
"250 455 OFFCURVE",
"250 357 CURVE SMOOTH",
"250 333 OFFCURVE",
"251 306 OFFCURVE",
"254 276 CURVE",
"217 276 OFFCURVE",
"192 273 OFFCURVE",
"178 265 CURVE",
"168 277 OFFCURVE",
"156 284 OFFCURVE",
"142 284 CURVE SMOOTH",
"96 284 OFFCURVE",
"60 255 OFFCURVE",
"33 196 CURVE SMOOTH",
"12 150 OFFCURVE",
"2 101 OFFCURVE",
"2 50 CURVE SMOOTH",
"2 -3 OFFCURVE",
"12 -46 OFFCURVE",
"32 -82 CURVE SMOOTH",
"57 -125 OFFCURVE",
"94 -148 OFFCURVE",
"142 -148 CURVE SMOOTH"
);
},
{
closed = 1;
nodes = (
"106 -122 OFFCURVE",
"78 -103 OFFCURVE",
"61 -64 CURVE SMOOTH",
"48 -35 OFFCURVE",
"42 1 OFFCURVE",
"42 43 CURVE SMOOTH",
"42 87 OFFCURVE",
"49 129 OFFCURVE",
"63 171 CURVE SMOOTH",
"82 229 OFFCURVE",
"109 258 OFFCURVE",
"142 258 CURVE SMOOTH",
"148 258 OFFCURVE",
"153 255 OFFCURVE",
"158 249 CURVE",
"138 236 OFFCURVE",
"123 214 OFFCURVE",
"110 184 CURVE SMOOTH",
"98 155 OFFCURVE",
"92 129 OFFCURVE",
"92 103 CURVE SMOOTH",
"92 61 OFFCURVE",
"107 40 OFFCURVE",
"137 40 CURVE SMOOTH",
"161 40 OFFCURVE",
"180 54 OFFCURVE",
"193 81 CURVE SMOOTH",
"202 102 OFFCURVE",
"207 127 OFFCURVE",
"207 155 CURVE SMOOTH",
"207 176 OFFCURVE",
"204 198 OFFCURVE",
"198 220 CURVE",
"214 225 OFFCURVE",
"234 229 OFFCURVE",
"258 231 CURVE",
"267 147 OFFCURVE",
"271 94 OFFCURVE",
"271 70 CURVE SMOOTH",
"271 -58 OFFCURVE",
"228 -122 OFFCURVE",
"142 -122 CURVE SMOOTH"
);
},
{
closed = 1;
nodes = (
"124 74 OFFCURVE",
"118 87 OFFCURVE",
"118 105 CURVE SMOOTH",
"118 123 OFFCURVE",
"124 142 OFFCURVE",
"135 163 CURVE SMOOTH",
"146 185 OFFCURVE",
"159 200 OFFCURVE",
"174 208 CURVE",
"179 187 OFFCURVE",
"181 169 OFFCURVE",
"181 155 CURVE SMOOTH",
"181 135 OFFCURVE",
"178 117 OFFCURVE",
"173 101 CURVE SMOOTH",
"165 77 OFFCURVE",
"152 66 OFFCURVE",
"137 66 CURVE"
);
}
);
width = 763;
}
);
note = H;
unicode = 0048;
},
{
glyphname = Hbar;
lastChange = "2021-11-14 00:50:18 +0000";
layers = (
{
anchors = (
{
name = bottom;
position = "{382, 0}";
},
{
name = center;
position = "{382, 255}";
},
{
name = top;
position = "{534, 575}";
},
{
name = topleft;
position = "{20, 510}";
}
);
background = {
components = (
{
name = H;
},
{
name = emdash;
transform = "{1.53747, 0, 0, 1, 127, 330}";
}
);
};
layerId = "A20F32D1-A37C-460A-962C-541C205D5E83";
paths = (
{
closed = 1;
nodes = (
"204 -148 OFFCURVE",
"247 -122 OFFCURVE",
"272 -72 CURVE SMOOTH",
"289 -35 OFFCURVE",
"298 17 OFFCURVE",
"298 86 CURVE SMOOTH",
"298 102 OFFCURVE",
"297 127 OFFCURVE",
"295 160 CURVE SMOOTH",
"293 193 OFFCURVE",
"293 217 OFFCURVE",
"293 233 CURVE",
"314 233 LINE SMOOTH",
"360 233 OFFCURVE",
"409 229 OFFCURVE",
"459 218 CURVE SMOOTH",
"522 204 OFFCURVE",
"569 192 OFFCURVE",
"601 185 CURVE",
"598 153 OFFCURVE",
"597 124 OFFCURVE",
"597 97 CURVE SMOOTH",
"597 -32 OFFCURVE",
"633 -97 OFFCURVE",
"707 -97 CURVE SMOOTH",
"732 -97 OFFCURVE",
"745 -89 OFFCURVE",
"745 -73 CURVE SMOOTH",
"745 -63 OFFCURVE",
"741 -58 OFFCURVE",
"734 -58 CURVE SMOOTH",
"731 -58 OFFCURVE",
"728 -61 OFFCURVE",
"723 -65 CURVE SMOOTH",
"719 -69 OFFCURVE",
"713 -71 OFFCURVE",
"707 -71 CURVE SMOOTH",
"650 -71 OFFCURVE",
"621 -29 OFFCURVE",
"621 54 CURVE SMOOTH",
"621 88 OFFCURVE",
"626 130 OFFCURVE",
"635 178 CURVE",
"659 174 OFFCURVE",
"681 172 OFFCURVE",
"700 172 CURVE SMOOTH",
"742 172 OFFCURVE",
"763 187 OFFCURVE",
"763 218 CURVE SMOOTH",
"763 229 OFFCURVE",
"759 243 OFFCURVE",
"751 262 CURVE SMOOTH",
"743 280 OFFCURVE",
"734 289 OFFCURVE",
"725 289 CURVE SMOOTH",
"717 289 OFFCURVE",
"713 285 OFFCURVE",
"713 276 CURVE SMOOTH",
"713 274 OFFCURVE",
"715 270 OFFCURVE",
"719 264 CURVE SMOOTH",
"723 257 OFFCURVE",
"725 251 OFFCURVE",
"725 245 CURVE SMOOTH",
"725 223 OFFCURVE",
"701 213 OFFCURVE",
"653 213 CURVE SMOOTH",
"642 213 LINE",
"652 256 OFFCURVE",
"668 316 OFFCURVE",
"689 393 CURVE SMOOTH",
"719 496 OFFCURVE",
"734 557 OFFCURVE",
"734 573 CURVE SMOOTH",
"734 585 OFFCURVE",
"721 591 OFFCURVE",
"697 591 CURVE SMOOTH",
"684 591 OFFCURVE",
"676 587 OFFCURVE",
"673 581 CURVE",
"671 569 OFFCURVE",
"669 560 OFFCURVE",
"669 554 CURVE",
"653 486 LINE SMOOTH",
"626 373 OFFCURVE",
"612 282 OFFCURVE",
"604 214 CURVE",
"569 218 OFFCURVE",
"517 228 OFFCURVE",
"449 244 CURVE SMOOTH",
"380 260 OFFCURVE",
"328 270 OFFCURVE",
"293 274 CURVE",
"295 397 OFFCURVE",
"311 477 OFFCURVE",
"341 514 CURVE SMOOTH",
"347 522 OFFCURVE",
"355 529 OFFCURVE",
"365 535 CURVE SMOOTH",
"373 539 OFFCURVE",
"377 543 OFFCURVE",
"377 548 CURVE SMOOTH",
"377 562 OFFCURVE",
"367 569 OFFCURVE",
"347 569 CURVE SMOOTH",
"336 569 OFFCURVE",
"325 564 OFFCURVE",
"314 555 CURVE SMOOTH",
"272 521 OFFCURVE",
"250 455 OFFCURVE",
"250 357 CURVE SMOOTH",
"250 333 OFFCURVE",
"251 306 OFFCURVE",
"254 276 CURVE",
"217 276 OFFCURVE",
"192 273 OFFCURVE",
"178 265 CURVE",
"168 277 OFFCURVE",
"156 284 OFFCURVE",
"142 284 CURVE SMOOTH",
"96 284 OFFCURVE",
"60 255 OFFCURVE",
"33 196 CURVE SMOOTH",
"12 150 OFFCURVE",
"2 101 OFFCURVE",
"2 50 CURVE SMOOTH",
"2 -3 OFFCURVE",
"12 -46 OFFCURVE",
"32 -82 CURVE SMOOTH",
"57 -125 OFFCURVE",
"94 -148 OFFCURVE",
"142 -148 CURVE SMOOTH"
);
},
{
closed = 1;
nodes = (
"106 -122 OFFCURVE",
"78 -103 OFFCURVE",
"61 -64 CURVE SMOOTH",
"48 -35 OFFCURVE",
"42 1 OFFCURVE",
"42 43 CURVE SMOOTH",
"42 87 OFFCURVE",
"49 129 OFFCURVE",
"63 171 CURVE SMOOTH",
"82 229 OFFCURVE",
"109 258 OFFCURVE",
"142 258 CURVE SMOOTH",
"148 258 OFFCURVE",
"153 255 OFFCURVE",
"158 249 CURVE",
"138 236 OFFCURVE",
"123 214 OFFCURVE",
"110 184 CURVE SMOOTH",
"98 155 OFFCURVE",
"92 129 OFFCURVE",
"92 103 CURVE SMOOTH",
"92 61 OFFCURVE",
"107 40 OFFCURVE",
"137 40 CURVE SMOOTH",
"161 40 OFFCURVE",
"180 54 OFFCURVE",
"193 81 CURVE SMOOTH",
"202 102 OFFCURVE",
"207 127 OFFCURVE",
"207 155 CURVE SMOOTH",
"207 176 OFFCURVE",
"204 198 OFFCURVE",
"198 220 CURVE",
"214 225 OFFCURVE",
"234 229 OFFCURVE",
"258 231 CURVE",
"267 147 OFFCURVE",
"271 94 OFFCURVE",
"271 70 CURVE SMOOTH",
"271 -58 OFFCURVE",
"228 -122 OFFCURVE",
"142 -122 CURVE SMOOTH"
);
},
{
closed = 1;
nodes = (
"124 74 OFFCURVE",
"118 87 OFFCURVE",
"118 105 CURVE SMOOTH",
"118 123 OFFCURVE",
"124 142 OFFCURVE",
"135 163 CURVE SMOOTH",
"146 185 OFFCURVE",
"159 200 OFFCURVE",
"174 208 CURVE",
"179 187 OFFCURVE",
"181 169 OFFCURVE",
"181 155 CURVE SMOOTH",
"181 135 OFFCURVE",
"178 117 OFFCURVE",
"173 101 CURVE SMOOTH",
"165 77 OFFCURVE",
"152 66 OFFCURVE",
"137 66 CURVE"
);
},
{
closed = 1;
nodes = (
"195 396 LINE",
"195 396 OFFCURVE",
"322 400 OFFCURVE",
"576 405 CURVE SMOOTH",
"597 406 OFFCURVE",
"617 406 OFFCURVE",
"639 406 CURVE SMOOTH",
"702 406 LINE SMOOTH",
"754 407 OFFCURVE",
"780 411 OFFCURVE",
"780 416 CURVE SMOOTH",
"780 419 OFFCURVE",
"767 423 OFFCURVE",
"742 426 CURVE",
"685 429 OFFCURVE",
"644 430 OFFCURVE",
"616 431 CURVE SMOOTH",
"528 433 OFFCURVE",
"448 434 OFFCURVE",
"372.995 434 CURVE SMOOTH",
"279 434 OFFCURVE",
"225 432 OFFCURVE",
"210 429 CURVE SMOOTH",
"175 421 OFFCURVE",
"156 412 OFFCURVE",
"156 402 CURVE SMOOTH",
"156 398 OFFCURVE",
"167 396 OFFCURVE",
"187 396 CURVE SMOOTH"
);
}
);
width = 763;
}
);
unicode = 0126;
},
{
glyphname = I;
lastChange = "2021-11-14 00:37:34 +0000";
layers = (
{
anchors = (
{
name = bottom;
position = "{180, -122}";
},
{
name = ogonek;
position = "{280, -106}";
},
{
name = top;
position = "{243, 582}";
},
{
name = topleft;
position = "{20, 510}";
}
);
background = {
paths = (
{
closed = 1;
nodes = (
"218 -122 OFFCURVE",
"247 -101 OFFCURVE",
"271 -58 CURVE",
"275 -58 OFFCURVE",
"302 -64 OFFCURVE",
"350 -75 CURVE SMOOTH",
"394 -85 OFFCURVE",
"418 -90 OFFCURVE",
"422 -90 CURVE SMOOTH",
"424 -90 LINE SMOOTH",
"430 -90 OFFCURVE",
"436 -87 OFFCURVE",
"442 -80 CURVE SMOOTH",
"449 -73 OFFCURVE",
"452 -67 OFFCURVE",
"452 -61 CURVE SMOOTH",
"452 -58 OFFCURVE",
"450 -55 OFFCURVE",
"446 -54 CURVE SMOOTH",
"413 -44 OFFCURVE",
"358 -37 OFFCURVE",
"282 -33 CURVE",
"290 -12 OFFCURVE",
"294 6 OFFCURVE",
"294 23 CURVE SMOOTH",
"294 71 OFFCURVE",
"287 142 OFFCURVE",
"271 235 CURVE SMOOTH",
"256 329 OFFCURVE",
"248 400 OFFCURVE",
"248 448 CURVE SMOOTH",
"248 471 OFFCURVE",
"250 492 OFFCURVE",
"253 512 CURVE",
"284 522 OFFCURVE",
"308 529 OFFCURVE",
"324 534 CURVE SMOOTH",
"356 543 OFFCURVE",
"372 550 OFFCURVE",
"372 556 CURVE SMOOTH",
"372 565 OFFCURVE",
"368 570 OFFCURVE",
"359 570 CURVE SMOOTH",
"351 570 OFFCURVE",
"335 567 OFFCURVE",
"311 559 CURVE SMOOTH",
"285 550 OFFCURVE",
"268 545 OFFCURVE",
"260 544 CURVE",
"266 563 OFFCURVE",
"268 571 OFFCURVE",
"268 569 CURVE SMOOTH",
"268 577 OFFCURVE",
"260 582 OFFCURVE",
"243 582 CURVE SMOOTH",
"227 582 OFFCURVE",
"213 569 OFFCURVE",
"203 543 CURVE",
"198 543 OFFCURVE",
"190 546 OFFCURVE",
"180 551 CURVE SMOOTH",
"169 555 OFFCURVE",
"162 557 OFFCURVE",
"158 557 CURVE SMOOTH",
"150 557 OFFCURVE",
"143 552 OFFCURVE",
"135 540 CURVE SMOOTH",
"127 529 OFFCURVE",
"123 519 OFFCURVE",
"123 511 CURVE SMOOTH",
"123 508 OFFCURVE",
"124 506 OFFCURVE",
"126 505 CURVE",
"130 501 OFFCURVE",
"144 500 OFFCURVE",
"167 500 CURVE SMOOTH",
"179 500 OFFCURVE",
"191 501 OFFCURVE",
"203 503 CURVE",
"201 487 OFFCURVE",
"200 471 OFFCURVE",
"200 456 CURVE SMOOTH",
"200 423 OFFCURVE",
"208 369 OFFCURVE",
"222 296 CURVE SMOOTH",
"249 165 OFFCURVE",
"262 73 OFFCURVE",
"262 22 CURVE SMOOTH",
"262 5 OFFCURVE",
"259 -13 OFFCURVE",
"252 -31 CURVE",
"138 -31 LINE",
"138 -24 OFFCURVE",
"142 -14 OFFCURVE",
"149 1 CURVE SMOOTH",
"156 15 OFFCURVE",
"162 22 OFFCURVE",
"168 22 CURVE SMOOTH",
"173 22 OFFCURVE",
"175 15 OFFCURVE",
"177 0 CURVE SMOOTH",
"178 -14 OFFCURVE",
"183 -21 OFFCURVE",
"191 -21 CURVE SMOOTH",
"200 -21 OFFCURVE",
"204 -17 OFFCURVE",
"204 -8 CURVE SMOOTH",
"204 36 OFFCURVE",
"194 59 OFFCURVE",
"172 59 CURVE SMOOTH",
"155 59 OFFCURVE",
"138 48 OFFCURVE",
"123 26 CURVE SMOOTH",
"108 5 OFFCURVE",
"101 -15 OFFCURVE",
"100 -33 CURVE",
"66 -34 OFFCURVE",
"39 -34 OFFCURVE",
"18 -34 CURVE SMOOTH",
"14 -34 OFFCURVE",
"11 -38 OFFCURVE",
"9 -45 CURVE SMOOTH",
"6 -52 OFFCURVE",
"5 -58 OFFCURVE",
"5 -62 CURVE SMOOTH",
"5 -76 OFFCURVE",
"12 -84 OFFCURVE",
"27 -84 CURVE SMOOTH",
"37 -84 OFFCURVE",
"51 -80 OFFCURVE",
"69 -74 CURVE SMOOTH",
"87 -67 OFFCURVE",
"99 -63 OFFCURVE",
"106 -60 CURVE",
"113 -76 OFFCURVE",
"124 -91 OFFCURVE",
"139 -103 CURVE SMOOTH",
"154 -116 OFFCURVE",
"169 -122 OFFCURVE",
"185 -122 CURVE SMOOTH"
);
},
{
closed = 1;
nodes = (
"175 -96 OFFCURVE",
"165 -92 OFFCURVE",
"156 -83 CURVE SMOOTH",
"147 -74 OFFCURVE",
"141 -64 OFFCURVE",
"139 -54 CURVE",
"168 -54 LINE",
"205 -54 LINE SMOOTH",
"211 -54 OFFCURVE",
"219 -54 OFFCURVE",
"228 -55 CURVE SMOOTH",
"242 -55 LINE",
"227 -82 OFFCURVE",
"208 -96 OFFCURVE",
"185 -96 CURVE SMOOTH"
);
}
);
};
layerId = "A20F32D1-A37C-460A-962C-541C205D5E83";
paths = (
{
closed = 1;
nodes = (
"218 -122 OFFCURVE",
"247 -101 OFFCURVE",
"271 -58 CURVE",
"275 -58 OFFCURVE",
"302 -64 OFFCURVE",
"350 -75 CURVE SMOOTH",
"394 -85 OFFCURVE",
"418 -90 OFFCURVE",
"422 -90 CURVE SMOOTH",
"424 -90 LINE SMOOTH",
"430 -90 OFFCURVE",
"436 -87 OFFCURVE",
"442 -80 CURVE SMOOTH",
"449 -73 OFFCURVE",
"452 -67 OFFCURVE",
"452 -61 CURVE SMOOTH",
"452 -58 OFFCURVE",
"450 -55 OFFCURVE",
"446 -54 CURVE SMOOTH",
"413 -44 OFFCURVE",
"358 -37 OFFCURVE",
"282 -33 CURVE",
"290 -12 OFFCURVE",
"294 6 OFFCURVE",
"294 23 CURVE SMOOTH",
"294 71 OFFCURVE",
"287 142 OFFCURVE",
"271 235 CURVE SMOOTH",
"256 329 OFFCURVE",
"248 400 OFFCURVE",
"248 448 CURVE SMOOTH",
"248 471 OFFCURVE",
"250 492 OFFCURVE",
"253 512 CURVE",
"284 522 OFFCURVE",
"308 529 OFFCURVE",
"324 534 CURVE SMOOTH",
"356 543 OFFCURVE",
"372 550 OFFCURVE",
"372 556 CURVE SMOOTH",
"372 565 OFFCURVE",
"368 570 OFFCURVE",
"359 570 CURVE SMOOTH",
"351 570 OFFCURVE",
"335 567 OFFCURVE",
"311 559 CURVE SMOOTH",
"285 550 OFFCURVE",
"268 545 OFFCURVE",
"260 544 CURVE",
"266 563 OFFCURVE",
"268 571 OFFCURVE",
"268 569 CURVE SMOOTH",
"268 577 OFFCURVE",
"260 582 OFFCURVE",
"243 582 CURVE SMOOTH",
"227 582 OFFCURVE",
"213 569 OFFCURVE",
"203 543 CURVE",
"198 543 OFFCURVE",
"190 546 OFFCURVE",
"180 551 CURVE SMOOTH",
"169 555 OFFCURVE",
"162 557 OFFCURVE",
"158 557 CURVE SMOOTH",
"150 557 OFFCURVE",
"143 552 OFFCURVE",
"135 540 CURVE SMOOTH",
"127 529 OFFCURVE",
"123 519 OFFCURVE",
"123 511 CURVE SMOOTH",
"123 508 OFFCURVE",
"124 506 OFFCURVE",
"126 505 CURVE",
"130 501 OFFCURVE",
"144 500 OFFCURVE",
"167 500 CURVE SMOOTH",
"179 500 OFFCURVE",
"191 501 OFFCURVE",
"203 503 CURVE",
"201 487 OFFCURVE",
"200 471 OFFCURVE",
"200 456 CURVE SMOOTH",
"200 423 OFFCURVE",
"208 369 OFFCURVE",
"222 296 CURVE SMOOTH",
"249 165 OFFCURVE",
"262 73 OFFCURVE",
"262 22 CURVE SMOOTH",
"262 5 OFFCURVE",
"259 -13 OFFCURVE",
"252 -31 CURVE",
"138 -31 LINE",
"138 -24 OFFCURVE",
"142 -14 OFFCURVE",
"149 1 CURVE SMOOTH",
"156 15 OFFCURVE",
"162 22 OFFCURVE",
"168 22 CURVE SMOOTH",
"173 22 OFFCURVE",
"175 15 OFFCURVE",
"177 0 CURVE SMOOTH",
"178 -14 OFFCURVE",
"183 -21 OFFCURVE",
"191 -21 CURVE SMOOTH",
"200 -21 OFFCURVE",
"204 -17 OFFCURVE",
"204 -8 CURVE SMOOTH",
"204 36 OFFCURVE",
"194 59 OFFCURVE",
"172 59 CURVE SMOOTH",
"155 59 OFFCURVE",
"138 48 OFFCURVE",
"123 26 CURVE SMOOTH",
"108 5 OFFCURVE",
"101 -15 OFFCURVE",
"100 -33 CURVE",
"66 -34 OFFCURVE",
"39 -34 OFFCURVE",
"18 -34 CURVE SMOOTH",
"14 -34 OFFCURVE",
"11 -38 OFFCURVE",
"9 -45 CURVE SMOOTH",
"6 -52 OFFCURVE",
"5 -58 OFFCURVE",
"5 -62 CURVE SMOOTH",
"5 -76 OFFCURVE",
"12 -84 OFFCURVE",
"27 -84 CURVE SMOOTH",
"37 -84 OFFCURVE",
"51 -80 OFFCURVE",
"69 -74 CURVE SMOOTH",
"87 -67 OFFCURVE",
"99 -63 OFFCURVE",
"106 -60 CURVE",
"113 -76 OFFCURVE",
"124 -91 OFFCURVE",
"139 -103 CURVE SMOOTH",
"154 -116 OFFCURVE",
"169 -122 OFFCURVE",
"185 -122 CURVE SMOOTH"
);
},
{
closed = 1;
nodes = (
"175 -96 OFFCURVE",
"165 -92 OFFCURVE",
"156 -83 CURVE SMOOTH",
"147 -74 OFFCURVE",
"141 -64 OFFCURVE",
"139 -54 CURVE",
"205 -54 LINE SMOOTH",
"211 -54 OFFCURVE",
"219 -55 OFFCURVE",
"228 -55 CURVE SMOOTH",
"242 -55 LINE",
"227 -82 OFFCURVE",
"208 -96 OFFCURVE",
"185 -96 CURVE SMOOTH"
);
}
);
width = 374;
}
);
note = I;
unicode = 0049;
},
{
glyphname = J;
lastChange = "2021-11-14 00:37:04 +0000";
layers = (
{
anchors = (
{
name = bottom;
position = "{162, -332}";
},
{
name = top;
position = "{464, 481}";
}
);
background = {
paths = (
{
closed = 1;
nodes = (
"242 -346 OFFCURVE",
"336 -312 OFFCURVE",
"424 -246 CURVE SMOOTH",
"481 -202 OFFCURVE",
"511 -157 OFFCURVE",
"515 -108 CURVE SMOOTH",
"516 -99 OFFCURVE",
"516 -89 OFFCURVE",
"516 -79 CURVE SMOOTH",
"516 -25 OFFCURVE",
"509 30 OFFCURVE",
"495 83 CURVE SMOOTH",
"464 200 LINE SMOOTH",
"451 247 OFFCURVE",
"445 287 OFFCURVE",
"445 320 CURVE SMOOTH",
"445 355 OFFCURVE",
"449 388 OFFCURVE",
"459 419 CURVE",
"483 416 OFFCURVE",
"506 414 OFFCURVE",
"529 414 CURVE SMOOTH",
"605 414 OFFCURVE",
"644 430 OFFCURVE",
"644 462 CURVE SMOOTH",
"644 483 OFFCURVE",
"638 493 OFFCURVE",
"626 493 CURVE SMOOTH",
"616 493 OFFCURVE",
"611 489 OFFCURVE",
"611 481 CURVE SMOOTH",
"611 479 OFFCURVE",
"612 476 OFFCURVE",
"614 472 CURVE SMOOTH",
"616 468 OFFCURVE",
"617 465 OFFCURVE",
"617 463 CURVE SMOOTH",
"617 450 OFFCURVE",
"603 444 OFFCURVE",
"575 444 CURVE SMOOTH",
"551 444 OFFCURVE",
"518 448 OFFCURVE",
"477 457 CURVE",
"482 464 OFFCURVE",
"486 470 OFFCURVE",
"491 474 CURVE",
"491 479 OFFCURVE",
"482 481 OFFCURVE",
"464 481 CURVE SMOOTH",
"447 481 OFFCURVE",
"434 477 OFFCURVE",
"427 469 CURVE",
"395 475 OFFCURVE",
"361 478 OFFCURVE",
"323 478 CURVE SMOOTH",
"217 478 OFFCURVE",
"164 457 OFFCURVE",
"164 414 CURVE SMOOTH",
"164 386 OFFCURVE",
"188 353 OFFCURVE",
"236 314 CURVE SMOOTH",
"238 312 OFFCURVE",
"241 312 OFFCURVE",
"244 312 CURVE SMOOTH",
"254 312 OFFCURVE",
"258 316 OFFCURVE",
"258 325 CURVE SMOOTH",
"258 327 OFFCURVE",
"251 335 OFFCURVE",
"236 351 CURVE SMOOTH",
"221 366 OFFCURVE",
"213 379 OFFCURVE",
"213 390 CURVE SMOOTH",
"213 419 OFFCURVE",
"254 433 OFFCURVE",
"337 433 CURVE SMOOTH",
"360 433 OFFCURVE",
"382 432 OFFCURVE",
"401 430 CURVE",
"388 399 OFFCURVE",
"381 361 OFFCURVE",
"381 319 CURVE SMOOTH",
"381 273 OFFCURVE",
"397 205 OFFCURVE",
"428 118 CURVE SMOOTH",
"460 30 OFFCURVE",
"476 -37 OFFCURVE",
"476 -84 CURVE SMOOTH",
"476 -143 OFFCURVE",
"442 -196 OFFCURVE",
"373 -241 CURVE SMOOTH",
"311 -282 OFFCURVE",
"249 -302 OFFCURVE",
"186 -302 CURVE SMOOTH",
"96 -302 OFFCURVE",
"38 -260 OFFCURVE",
"13 -176 CURVE",
"8 -163 OFFCURVE",
"6 -150 OFFCURVE",
"6 -139 CURVE SMOOTH",
"6 -88 OFFCURVE",
"44 -47 OFFCURVE",
"121 -16 CURVE SMOOTH",
"181 9 OFFCURVE",
"241 21 OFFCURVE",
"299 21 CURVE SMOOTH",
"330 21 OFFCURVE",
"346 9 OFFCURVE",
"346 -14 CURVE SMOOTH",
"346 -37 OFFCURVE",
"332 -60 OFFCURVE",
"307 -87 CURVE SMOOTH",
"261 -135 OFFCURVE",
"208 -160 OFFCURVE",
"148 -160 CURVE SMOOTH",
"127 -160 OFFCURVE",
"116 -157 OFFCURVE",
"116 -149 CURVE SMOOTH",
"116 -134 OFFCURVE",
"150 -112 OFFCURVE",
"218 -85 CURVE SMOOTH",
"225 -82 OFFCURVE",
"232 -80 OFFCURVE",
"239 -77 CURVE SMOOTH",
"249 -73 OFFCURVE",
"254 -69 OFFCURVE",
"254 -64 CURVE SMOOTH",
"254 -54 OFFCURVE",
"250 -49 OFFCURVE",
"241 -49 CURVE SMOOTH",
"221 -49 OFFCURVE",
"190 -64 OFFCURVE",
"148 -92 CURVE SMOOTH",
"106 -121 OFFCURVE",
"85 -144 OFFCURVE",
"85 -163 CURVE SMOOTH",
"85 -178 OFFCURVE",
"104 -186 OFFCURVE",
"142 -186 CURVE SMOOTH",
"209 -186 OFFCURVE",
"271 -159 OFFCURVE",
"327 -104 CURVE SMOOTH",
"358 -74 OFFCURVE",
"373 -45 OFFCURVE",
"373 -17 CURVE SMOOTH",
"373 6 OFFCURVE",
"359 25 OFFCURVE",
"330 36 CURVE SMOOTH",
"310 44 OFFCURVE",
"286 48 OFFCURVE",
"258 48 CURVE SMOOTH",
"189 48 OFFCURVE",
"123 28 OFFCURVE",
"60 -11 CURVE SMOOTH",
"-12 -55 OFFCURVE",
"-48 -109 OFFCURVE",
"-48 -174 CURVE SMOOTH",
"-48 -229 OFFCURVE",
"-30 -273 OFFCURVE",
"5 -303 CURVE SMOOTH",
"38 -332 OFFCURVE",
"83 -346 OFFCURVE",
"140 -346 CURVE SMOOTH"
);
}
);
};
layerId = "A20F32D1-A37C-460A-962C-541C205D5E83";
paths = (
{
closed = 1;
nodes = (
"242 -346 OFFCURVE",
"336 -312 OFFCURVE",
"424 -246 CURVE SMOOTH",
"481 -202 OFFCURVE",
"511 -157 OFFCURVE",
"515 -108 CURVE SMOOTH",
"516 -99 OFFCURVE",
"516 -89 OFFCURVE",
"516 -79 CURVE SMOOTH",
"516 -25 OFFCURVE",
"509 30 OFFCURVE",
"495 83 CURVE SMOOTH",
"464 200 LINE SMOOTH",
"452 247 OFFCURVE",
"445 287 OFFCURVE",
"445 320 CURVE SMOOTH",
"445 355 OFFCURVE",
"449 388 OFFCURVE",
"459 419 CURVE",
"483 416 OFFCURVE",
"506 414 OFFCURVE",
"529 414 CURVE SMOOTH",
"605 414 OFFCURVE",
"644 430 OFFCURVE",
"644 462 CURVE SMOOTH",
"644 483 OFFCURVE",
"638 493 OFFCURVE",
"626 493 CURVE SMOOTH",
"616 493 OFFCURVE",
"611 489 OFFCURVE",
"611 481 CURVE SMOOTH",
"611 479 OFFCURVE",
"612 476 OFFCURVE",
"614 472 CURVE SMOOTH",
"616 468 OFFCURVE",
"617 465 OFFCURVE",
"617 463 CURVE SMOOTH",
"617 450 OFFCURVE",
"603 444 OFFCURVE",
"575 444 CURVE SMOOTH",
"551 444 OFFCURVE",
"518 448 OFFCURVE",
"477 457 CURVE",
"482 464 OFFCURVE",
"486 470 OFFCURVE",
"491 474 CURVE",
"491 479 OFFCURVE",
"482 481 OFFCURVE",
"464 481 CURVE SMOOTH",
"447 481 OFFCURVE",
"434 477 OFFCURVE",
"427 469 CURVE",
"395 475 OFFCURVE",
"361 478 OFFCURVE",
"323 478 CURVE SMOOTH",
"217 478 OFFCURVE",
"164 457 OFFCURVE",
"164 414 CURVE SMOOTH",
"164 386 OFFCURVE",
"188 353 OFFCURVE",
"236 314 CURVE SMOOTH",
"238 312 OFFCURVE",
"241 312 OFFCURVE",
"244 312 CURVE SMOOTH",
"254 312 OFFCURVE",
"258 316 OFFCURVE",
"258 325 CURVE SMOOTH",
"258 327 OFFCURVE",
"251 335 OFFCURVE",
"236 351 CURVE SMOOTH",
"221 366 OFFCURVE",
"213 379 OFFCURVE",
"213 390 CURVE SMOOTH",
"213 419 OFFCURVE",
"254 433 OFFCURVE",
"337 433 CURVE SMOOTH",
"360 433 OFFCURVE",
"382 432 OFFCURVE",
"401 430 CURVE",
"388 399 OFFCURVE",
"381 361 OFFCURVE",
"381 319 CURVE SMOOTH",
"381 273 OFFCURVE",
"397 205 OFFCURVE",
"428 118 CURVE SMOOTH",
"460 30 OFFCURVE",
"476 -37 OFFCURVE",
"476 -84 CURVE SMOOTH",
"476 -143 OFFCURVE",
"442 -196 OFFCURVE",
"373 -241 CURVE SMOOTH",
"311 -282 OFFCURVE",
"249 -302 OFFCURVE",
"186 -302 CURVE SMOOTH",
"96 -302 OFFCURVE",
"38 -260 OFFCURVE",
"13 -176 CURVE",
"8 -163 OFFCURVE",
"6 -150 OFFCURVE",
"6 -139 CURVE SMOOTH",
"6 -88 OFFCURVE",
"44 -47 OFFCURVE",
"121 -16 CURVE SMOOTH",
"181 9 OFFCURVE",
"241 21 OFFCURVE",
"299 21 CURVE SMOOTH",
"330 21 OFFCURVE",
"346 9 OFFCURVE",
"346 -14 CURVE SMOOTH",
"346 -37 OFFCURVE",
"332 -60 OFFCURVE",
"307 -87 CURVE SMOOTH",
"261 -135 OFFCURVE",
"208 -160 OFFCURVE",
"148 -160 CURVE SMOOTH",
"127 -160 OFFCURVE",
"116 -157 OFFCURVE",
"116 -149 CURVE SMOOTH",
"116 -134 OFFCURVE",
"150 -112 OFFCURVE",
"218 -85 CURVE SMOOTH",
"225 -82 OFFCURVE",
"232 -80 OFFCURVE",
"239 -77 CURVE SMOOTH",
"249 -73 OFFCURVE",
"254 -69 OFFCURVE",
"254 -64 CURVE SMOOTH",
"254 -54 OFFCURVE",
"250 -49 OFFCURVE",
"241 -49 CURVE SMOOTH",
"221 -49 OFFCURVE",
"190 -64 OFFCURVE",
"148 -92 CURVE SMOOTH",
"106 -121 OFFCURVE",
"85 -144 OFFCURVE",
"85 -163 CURVE SMOOTH",
"85 -178 OFFCURVE",
"104 -186 OFFCURVE",
"142 -186 CURVE SMOOTH",
"209 -186 OFFCURVE",
"271 -159 OFFCURVE",
"327 -104 CURVE SMOOTH",
"358 -74 OFFCURVE",
"373 -45 OFFCURVE",
"373 -17 CURVE SMOOTH",
"373 6 OFFCURVE",
"359 25 OFFCURVE",
"330 36 CURVE SMOOTH",
"310 44 OFFCURVE",
"286 48 OFFCURVE",
"258 48 CURVE SMOOTH",
"189 48 OFFCURVE",
"123 28 OFFCURVE",
"60 -11 CURVE SMOOTH",
"-12 -55 OFFCURVE",
"-48 -109 OFFCURVE",
"-48 -174 CURVE SMOOTH",
"-48 -229 OFFCURVE",
"-30 -273 OFFCURVE",
"5 -303 CURVE SMOOTH",
"38 -332 OFFCURVE",
"83 -346 OFFCURVE",
"140 -346 CURVE SMOOTH"
);
}
);
width = 590;
}
);
note = J;
unicode = 004A;
},
{
glyphname = K;
lastChange = "2021-11-14 00:37:04 +0000";
layers = (
{
anchors = (
{
name = bottom;
position = "{172, 0}";
},
{
name = top;
position = "{210, 510}";
}
);
background = {
paths = (
{
closed = 1;
nodes = (
"40 -78 OFFCURVE",
"61 -49 OFFCURVE",
"82 9 CURVE SMOOTH",
"93 41 OFFCURVE",
"104 80 OFFCURVE",
"113 125 CURVE",
"132 152 OFFCURVE",
"154 179 OFFCURVE",
"178 207 CURVE",
"200 215 OFFCURVE",
"218 219 OFFCURVE",
"231 219 CURVE SMOOTH",
"269 219 OFFCURVE",
"287 191 OFFCURVE",
"287 134 CURVE SMOOTH",
"287 120 OFFCURVE",
"285 99 OFFCURVE",
"280 71 CURVE SMOOTH",
"275 43 OFFCURVE",
"273 22 OFFCURVE",
"273 7 CURVE SMOOTH",
"273 -33 OFFCURVE",
"296 -53 OFFCURVE",
"341 -53 CURVE SMOOTH",
"366 -53 OFFCURVE",
"389 -44 OFFCURVE",
"411 -27 CURVE SMOOTH",
"434 -9 OFFCURVE",
"445 11 OFFCURVE",
"445 35 CURVE SMOOTH",
"445 44 OFFCURVE",
"442 48 OFFCURVE",
"437 48 CURVE SMOOTH",
"431 48 OFFCURVE",
"424 38 OFFCURVE",
"417 19 CURVE SMOOTH",
"413 8 OFFCURVE",
"405 -3 OFFCURVE",
"392 -14 CURVE SMOOTH",
"378 -24 OFFCURVE",
"366 -30 OFFCURVE",
"355 -30 CURVE SMOOTH",
"343 -30 OFFCURVE",
"332 -23 OFFCURVE",
"323 -9 CURVE SMOOTH",
"315 3 OFFCURVE",
"311 15 OFFCURVE",
"311 28 CURVE SMOOTH",
"311 45 OFFCURVE",
"316 71 OFFCURVE",
"328 104 CURVE SMOOTH",
"340 137 OFFCURVE",
"346 162 OFFCURVE",
"346 178 CURVE SMOOTH",
"346 230 OFFCURVE",
"307 259 OFFCURVE",
"230 266 CURVE",
"318 364 OFFCURVE",
"391 431 OFFCURVE",
"451 464 CURVE SMOOTH",
"458 468 OFFCURVE",
"467 471 OFFCURVE",
"474 474 CURVE SMOOTH",
"486 480 OFFCURVE",
"491 486 OFFCURVE",
"491 491 CURVE SMOOTH",
"491 497 OFFCURVE",
"488 501 OFFCURVE",
"480 501 CURVE SMOOTH",
"440 501 OFFCURVE",
"376 462 OFFCURVE",
"288 385 CURVE SMOOTH",
"214 320 OFFCURVE",
"160 263 OFFCURVE",
"125 215 CURVE",
"134 287 OFFCURVE",
"138 356 OFFCURVE",
"138 422 CURVE SMOOTH",
"138 455 OFFCURVE",
"137 474 OFFCURVE",
"136 479 CURVE SMOOTH",
"131 497 OFFCURVE",
"116 506 OFFCURVE",
"92 506 CURVE SMOOTH",
"65 506 OFFCURVE",
"51 497 OFFCURVE",
"51 480 CURVE SMOOTH",
"52 472 LINE SMOOTH",
"56 442 OFFCURVE",
"59 421 OFFCURVE",
"60 410 CURVE SMOOTH",
"70 324 OFFCURVE",
"76 258 OFFCURVE",
"76 212 CURVE SMOOTH",
"76 95 OFFCURVE",
"55 10 OFFCURVE",
"14 -43 CURVE SMOOTH",
"6 -53 OFFCURVE",
"2 -61 OFFCURVE",
"2 -65 CURVE SMOOTH",
"2 -74 OFFCURVE",
"7 -78 OFFCURVE",
"18 -78 CURVE SMOOTH"
);
}
);
};
layerId = "A20F32D1-A37C-460A-962C-541C205D5E83";
paths = (
{
closed = 1;
nodes = (
"40 -78 OFFCURVE",
"61 -49 OFFCURVE",
"82 9 CURVE SMOOTH",
"93 41 OFFCURVE",
"104 80 OFFCURVE",
"113 125 CURVE",
"132 152 OFFCURVE",
"154 179 OFFCURVE",
"178 207 CURVE",
"200 215 OFFCURVE",
"218 219 OFFCURVE",
"231 219 CURVE SMOOTH",
"269 219 OFFCURVE",
"287 191 OFFCURVE",
"287 134 CURVE SMOOTH",
"287 120 OFFCURVE",
"285 99 OFFCURVE",
"280 71 CURVE SMOOTH",
"275 43 OFFCURVE",
"273 22 OFFCURVE",
"273 7 CURVE SMOOTH",
"273 -33 OFFCURVE",
"296 -53 OFFCURVE",
"341 -53 CURVE SMOOTH",
"366 -53 OFFCURVE",
"389 -44 OFFCURVE",
"411 -27 CURVE SMOOTH",
"434 -9 OFFCURVE",
"445 11 OFFCURVE",
"445 35 CURVE SMOOTH",
"445 44 OFFCURVE",
"442 48 OFFCURVE",
"437 48 CURVE SMOOTH",
"431 48 OFFCURVE",
"424 38 OFFCURVE",
"417 19 CURVE SMOOTH",
"413 8 OFFCURVE",
"405 -3 OFFCURVE",
"392 -14 CURVE SMOOTH",
"378 -24 OFFCURVE",
"366 -30 OFFCURVE",
"355 -30 CURVE SMOOTH",
"343 -30 OFFCURVE",
"332 -23 OFFCURVE",
"323 -9 CURVE SMOOTH",
"315 3 OFFCURVE",
"311 15 OFFCURVE",
"311 28 CURVE SMOOTH",
"311 45 OFFCURVE",
"316 71 OFFCURVE",
"328 104 CURVE SMOOTH",
"340 137 OFFCURVE",
"346 162 OFFCURVE",
"346 178 CURVE SMOOTH",
"346 230 OFFCURVE",
"307 259 OFFCURVE",
"230 266 CURVE",
"318 364 OFFCURVE",
"391 431 OFFCURVE",
"451 464 CURVE SMOOTH",
"458 468 OFFCURVE",
"467 471 OFFCURVE",
"474 474 CURVE SMOOTH",
"486 480 OFFCURVE",
"491 486 OFFCURVE",
"491 491 CURVE SMOOTH",
"491 497 OFFCURVE",
"488 501 OFFCURVE",
"480 501 CURVE SMOOTH",
"440 501 OFFCURVE",
"376 462 OFFCURVE",
"288 385 CURVE SMOOTH",
"214 320 OFFCURVE",
"160 263 OFFCURVE",
"125 215 CURVE",
"134 287 OFFCURVE",
"138 356 OFFCURVE",
"138 422 CURVE SMOOTH",
"138 455 OFFCURVE",
"137 474 OFFCURVE",
"136 479 CURVE SMOOTH",
"131 497 OFFCURVE",
"116 506 OFFCURVE",
"92 506 CURVE SMOOTH",
"65 506 OFFCURVE",
"49 497 OFFCURVE",
"51 480 CURVE SMOOTH",
"52 472 LINE SMOOTH",
"56 442 OFFCURVE",
"59 421 OFFCURVE",
"60 410 CURVE SMOOTH",
"70 324 OFFCURVE",
"76 258 OFFCURVE",
"76 212 CURVE SMOOTH",
"76 95 OFFCURVE",
"55 10 OFFCURVE",
"14 -43 CURVE SMOOTH",
"6 -53 OFFCURVE",
"2 -61 OFFCURVE",
"2 -65 CURVE SMOOTH",
"2 -74 OFFCURVE",
"7 -78 OFFCURVE",
"18 -78 CURVE SMOOTH"
);
}
);
width = 419;
}
);
note = K;
unicode = 004B;
},
{
glyphname = L;
lastChange = "2021-11-14 00:37:04 +0000";
layers = (
{
anchors = (
{
name = bottom;
position = "{333, 0}";
},
{
name = center;
position = "{257, 255}";
},
{
name = top;
position = "{358, 510}";
},
{
name = topright;
position = "{493, 510}";
}
);
background = {
paths = (
{
closed = 1;
nodes = (
"132 -65 OFFCURVE",
"162 -54 OFFCURVE",
"188 -32 CURVE SMOOTH",
"213 -11 OFFCURVE",
"229 17 OFFCURVE",
"236 51 CURVE",
"316 -6 OFFCURVE",
"377 -34 OFFCURVE",
"421 -34 CURVE SMOOTH",
"448 -34 OFFCURVE",
"469 -23 OFFCURVE",
"485 -2 CURVE SMOOTH",
"500 18 OFFCURVE",
"508 41 OFFCURVE",
"508 69 CURVE SMOOTH",
"508 94 OFFCURVE",
"497 115 OFFCURVE",
"476 134 CURVE SMOOTH",
"455 152 OFFCURVE",
"432 161 OFFCURVE",
"406 161 CURVE SMOOTH",
"386 161 OFFCURVE",
"367 154 OFFCURVE",
"350 140 CURVE SMOOTH",
"333 126 OFFCURVE",
"325 109 OFFCURVE",
"325 88 CURVE SMOOTH",
"325 75 OFFCURVE",
"330 64 OFFCURVE",
"341 55 CURVE SMOOTH",
"351 47 OFFCURVE",
"364 43 OFFCURVE",
"378 43 CURVE SMOOTH",
"383 43 OFFCURVE",
"386 45 OFFCURVE",
"386 48 CURVE SMOOTH",
"386 53 OFFCURVE",
"379 57 OFFCURVE",
"366 62 CURVE SMOOTH",
"352 67 OFFCURVE",
"346 76 OFFCURVE",
"346 88 CURVE SMOOTH",
"346 121 OFFCURVE",
"364 137 OFFCURVE",
"400 137 CURVE SMOOTH",
"421 137 OFFCURVE",
"441 130 OFFCURVE",
"460 115 CURVE SMOOTH",
"479 101 OFFCURVE",
"489 84 OFFCURVE",
"489 63 CURVE SMOOTH",
"489 42 OFFCURVE",
"480 26 OFFCURVE",
"463 15 CURVE SMOOTH",
"448 6 OFFCURVE",
"430 1 OFFCURVE",
"409 1 CURVE SMOOTH",
"354 1 OFFCURVE",
"297 26 OFFCURVE",
"239 77 CURVE",
"239 87 OFFCURVE",
"240 98 OFFCURVE",
"240 110 CURVE SMOOTH",
"240 127 OFFCURVE",
"239 145 OFFCURVE",
"238 164 CURVE SMOOTH",
"231 252 LINE",
"290 252 OFFCURVE",
"344 267 OFFCURVE",
"392 296 CURVE SMOOTH",
"449 330 OFFCURVE",
"477 375 OFFCURVE",
"477 431 CURVE SMOOTH",
"477 453 OFFCURVE",
"464 474 OFFCURVE",
"437 493 CURVE SMOOTH",
"410 513 OFFCURVE",
"385 522 OFFCURVE",
"362 522 CURVE SMOOTH",
"349 522 OFFCURVE",
"334 519 OFFCURVE",
"318 513 CURVE SMOOTH",
"277 499 OFFCURVE",
"249 465 OFFCURVE",
"234 411 CURVE SMOOTH",
"225 378 OFFCURVE",
"219 331 OFFCURVE",
"219 270 CURVE",
"206 270 LINE SMOOTH",
"168 270 OFFCURVE",
"132 276 OFFCURVE",
"99 288 CURVE SMOOTH",
"54 304 OFFCURVE",
"32 328 OFFCURVE",
"32 358 CURVE SMOOTH",
"32 387 OFFCURVE",
"50 415 OFFCURVE",
"87 442 CURVE SMOOTH",
"123 468 OFFCURVE",
"155 481 OFFCURVE",
"185 481 CURVE SMOOTH",
"201 481 OFFCURVE",
"210 474 OFFCURVE",
"210 462 CURVE SMOOTH",
"210 448 OFFCURVE",
"198 432 OFFCURVE",
"174 414 CURVE SMOOTH",
"154 400 OFFCURVE",
"136 389 OFFCURVE",
"119 383 CURVE",
"92 377 LINE SMOOTH",
"79 374 OFFCURVE",
"73 370 OFFCURVE",
"73 366 CURVE SMOOTH",
"73 362 OFFCURVE",
"77 360 OFFCURVE",
"85 360 CURVE SMOOTH",
"111 360 OFFCURVE",
"141 370 OFFCURVE",
"173 390 CURVE SMOOTH",
"208 412 OFFCURVE",
"226 436 OFFCURVE",
"226 461 CURVE SMOOTH",
"226 490 OFFCURVE",
"205 505 OFFCURVE",
"164 505 CURVE SMOOTH",
"123 505 OFFCURVE",
"88 491 OFFCURVE",
"58 463 CURVE SMOOTH",
"28 435 OFFCURVE",
"13 401 OFFCURVE",
"13 360 CURVE SMOOTH",
"13 291 OFFCURVE",
"81 255 OFFCURVE",
"218 252 CURVE",
"218 178 OFFCURVE",
"216 127 OFFCURVE",
"212 100 CURVE",
"163 145 OFFCURVE",
"127 168 OFFCURVE",
"104 168 CURVE SMOOTH",
"74 168 OFFCURVE",
"49 156 OFFCURVE",
"30 134 CURVE SMOOTH",
"11 112 OFFCURVE",
"1 85 OFFCURVE",
"1 54 CURVE SMOOTH",
"1 24 OFFCURVE",
"10 -3 OFFCURVE",
"26 -26 CURVE SMOOTH",
"44 -52 OFFCURVE",
"68 -65 OFFCURVE",
"98 -65 CURVE SMOOTH"
);
},
{
closed = 1;
nodes = (
"74 -39 OFFCURVE",
"59 -27 OFFCURVE",
"48 -4 CURVE SMOOTH",
"38 15 OFFCURVE",
"32 35 OFFCURVE",
"32 56 CURVE SMOOTH",
"32 103 OFFCURVE",
"56 126 OFFCURVE",
"102 126 CURVE SMOOTH",
"117 126 OFFCURVE",
"135 120 OFFCURVE",
"158 106 CURVE",
"207 70 LINE",
"191 -2 OFFCURVE",
"155 -39 OFFCURVE",
"98 -39 CURVE SMOOTH",
"94 -39 LINE SMOOTH"
);
},
{
closed = 1;
nodes = (
"230 295 LINE SMOOTH",
"229 341 OFFCURVE",
"240 381 OFFCURVE",
"266 417 CURVE SMOOTH",
"291 452 OFFCURVE",
"326 470 OFFCURVE",
"371 470 CURVE SMOOTH",
"385 470 OFFCURVE",
"401 467 OFFCURVE",
"418 461 CURVE SMOOTH",
"440 453 OFFCURVE",
"451 443 OFFCURVE",
"451 431 CURVE SMOOTH",
"451 386 OFFCURVE",
"425 347 OFFCURVE",
"373 315 CURVE SMOOTH",
"330 289 OFFCURVE",
"282 275 OFFCURVE",
"231 271 CURVE"
);
}
);
};
layerId = "A20F32D1-A37C-460A-962C-541C205D5E83";
paths = (
{
closed = 1;
nodes = (
"132 -65 OFFCURVE",
"162 -54 OFFCURVE",
"188 -32 CURVE SMOOTH",
"213 -11 OFFCURVE",
"229 17 OFFCURVE",
"236 51 CURVE",
"316 -6 OFFCURVE",
"377 -34 OFFCURVE",
"421 -34 CURVE SMOOTH",
"448 -34 OFFCURVE",
"469 -23 OFFCURVE",
"485 -2 CURVE SMOOTH",
"500 18 OFFCURVE",
"508 41 OFFCURVE",
"508 69 CURVE SMOOTH",
"508 94 OFFCURVE",
"497 115 OFFCURVE",
"476 134 CURVE SMOOTH",
"455 152 OFFCURVE",
"432 161 OFFCURVE",
"406 161 CURVE SMOOTH",
"386 161 OFFCURVE",
"367 154 OFFCURVE",
"350 140 CURVE SMOOTH",
"333 126 OFFCURVE",
"325 109 OFFCURVE",
"325 88 CURVE SMOOTH",
"325 75 OFFCURVE",
"330 64 OFFCURVE",
"341 55 CURVE SMOOTH",
"351 47 OFFCURVE",
"364 43 OFFCURVE",
"378 43 CURVE SMOOTH",
"383 43 OFFCURVE",
"386 45 OFFCURVE",
"386 48 CURVE SMOOTH",
"386 53 OFFCURVE",
"379 57 OFFCURVE",
"366 62 CURVE SMOOTH",
"352 67 OFFCURVE",
"346 76 OFFCURVE",
"346 88 CURVE SMOOTH",
"346 121 OFFCURVE",
"364 137 OFFCURVE",
"400 137 CURVE SMOOTH",
"421 137 OFFCURVE",
"441 130 OFFCURVE",
"460 115 CURVE SMOOTH",
"479 101 OFFCURVE",
"489 84 OFFCURVE",
"489 63 CURVE SMOOTH",
"489 42 OFFCURVE",
"480 26 OFFCURVE",
"463 15 CURVE SMOOTH",
"448 6 OFFCURVE",
"430 1 OFFCURVE",
"409 1 CURVE SMOOTH",
"354 1 OFFCURVE",
"297 26 OFFCURVE",
"239 77 CURVE",
"239 87 OFFCURVE",
"240 98 OFFCURVE",
"240 110 CURVE SMOOTH",
"240 127 OFFCURVE",
"240 145 OFFCURVE",
"238 164 CURVE SMOOTH",
"231 252 LINE",
"290 252 OFFCURVE",
"344 267 OFFCURVE",
"392 296 CURVE SMOOTH",
"449 330 OFFCURVE",
"477 375 OFFCURVE",
"477 431 CURVE SMOOTH",
"477 453 OFFCURVE",
"464 474 OFFCURVE",
"437 493 CURVE SMOOTH",
"410 513 OFFCURVE",
"385 522 OFFCURVE",
"362 522 CURVE SMOOTH",
"349 522 OFFCURVE",
"334 519 OFFCURVE",
"318 513 CURVE SMOOTH",
"277 499 OFFCURVE",
"249 465 OFFCURVE",
"234 411 CURVE SMOOTH",
"225 378 OFFCURVE",
"219 331 OFFCURVE",
"219 270 CURVE",
"206 270 LINE SMOOTH",
"168 270 OFFCURVE",
"132 276 OFFCURVE",
"99 288 CURVE SMOOTH",
"54 304 OFFCURVE",
"32 328 OFFCURVE",
"32 358 CURVE SMOOTH",
"32 387 OFFCURVE",
"50 415 OFFCURVE",
"87 442 CURVE SMOOTH",
"123 468 OFFCURVE",
"155 481 OFFCURVE",
"185 481 CURVE SMOOTH",
"201 481 OFFCURVE",
"210 474 OFFCURVE",
"210 462 CURVE SMOOTH",
"210 448 OFFCURVE",
"198 432 OFFCURVE",
"174 414 CURVE SMOOTH",
"154 400 OFFCURVE",
"136 389 OFFCURVE",
"119 383 CURVE",
"92 377 LINE SMOOTH",
"79 374 OFFCURVE",
"73 370 OFFCURVE",
"73 366 CURVE SMOOTH",
"73 362 OFFCURVE",
"77 360 OFFCURVE",
"85 360 CURVE SMOOTH",
"111 360 OFFCURVE",
"141 370 OFFCURVE",
"173 390 CURVE SMOOTH",
"208 412 OFFCURVE",
"226 436 OFFCURVE",
"226 461 CURVE SMOOTH",
"226 490 OFFCURVE",
"205 505 OFFCURVE",
"164 505 CURVE SMOOTH",
"123 505 OFFCURVE",
"88 491 OFFCURVE",
"58 463 CURVE SMOOTH",
"28 435 OFFCURVE",
"13 401 OFFCURVE",
"13 360 CURVE SMOOTH",
"13 291 OFFCURVE",
"81 255 OFFCURVE",
"218 252 CURVE",
"218 178 OFFCURVE",
"216 127 OFFCURVE",
"212 100 CURVE",
"163 145 OFFCURVE",
"127 168 OFFCURVE",
"104 168 CURVE SMOOTH",
"74 168 OFFCURVE",
"49 156 OFFCURVE",
"30 134 CURVE SMOOTH",
"11 112 OFFCURVE",
"1 85 OFFCURVE",
"1 54 CURVE SMOOTH",
"1 24 OFFCURVE",
"10 -3 OFFCURVE",
"26 -26 CURVE SMOOTH",
"44 -52 OFFCURVE",
"68 -65 OFFCURVE",
"98 -65 CURVE SMOOTH"
);
},
{
closed = 1;
nodes = (
"74 -39 OFFCURVE",
"59 -27 OFFCURVE",
"48 -4 CURVE SMOOTH",
"38 15 OFFCURVE",
"32 35 OFFCURVE",
"32 56 CURVE SMOOTH",
"32 103 OFFCURVE",
"56 126 OFFCURVE",
"102 126 CURVE SMOOTH",
"117 126 OFFCURVE",
"135 120 OFFCURVE",
"158 106 CURVE",
"207 70 LINE",
"191 -2 OFFCURVE",
"155 -39 OFFCURVE",
"98 -39 CURVE SMOOTH",
"94 -39 LINE SMOOTH"
);
},
{
closed = 1;
nodes = (
"230 295 LINE SMOOTH",
"228 341 OFFCURVE",
"240 381 OFFCURVE",
"266 417 CURVE SMOOTH",
"291 452 OFFCURVE",
"326 470 OFFCURVE",
"371 470 CURVE SMOOTH",
"385 470 OFFCURVE",
"401 467 OFFCURVE",
"418 461 CURVE SMOOTH",
"440 453 OFFCURVE",
"451 443 OFFCURVE",
"451 431 CURVE SMOOTH",
"451 386 OFFCURVE",
"425 347 OFFCURVE",
"373 315 CURVE SMOOTH",
"330 289 OFFCURVE",
"282 275 OFFCURVE",
"231 271 CURVE"
);
}
);
width = 513;
}
);
note = L;
unicode = 004C;
},
{
glyphname = Lslash;
lastChange = "2021-11-14 00:55:50 +0000";
layers = (
{
anchors = (
{
name = bottom;
position = "{333, 0}";
},
{
name = center;
position = "{257, 255}";
},
{
name = top;
position = "{358, 510}";
},
{
name = topright;
position = "{493, 510}";
}
);
background = {
components = (
{
name = L;
},
{
name = hyphen;
transform = "{0.8718, 0.18531, -0.14863, 0.69923, 150, 107}";
}
);
};
layerId = "A20F32D1-A37C-460A-962C-541C205D5E83";
paths = (
{
closed = 1;
nodes = (
"132 -65 OFFCURVE",
"162 -54 OFFCURVE",
"188 -32 CURVE SMOOTH",
"213 -11 OFFCURVE",
"229 17 OFFCURVE",
"236 51 CURVE",
"316 -6 OFFCURVE",
"377 -34 OFFCURVE",
"421 -34 CURVE SMOOTH",
"448 -34 OFFCURVE",
"469 -23 OFFCURVE",
"485 -2 CURVE SMOOTH",
"500 18 OFFCURVE",
"508 41 OFFCURVE",
"508 69 CURVE SMOOTH",
"508 94 OFFCURVE",
"497 115 OFFCURVE",
"476 134 CURVE SMOOTH",
"455 152 OFFCURVE",
"432 161 OFFCURVE",
"406 161 CURVE SMOOTH",
"386 161 OFFCURVE",
"367 154 OFFCURVE",
"350 140 CURVE SMOOTH",
"333 126 OFFCURVE",
"325 109 OFFCURVE",
"325 88 CURVE SMOOTH",
"325 75 OFFCURVE",
"330 64 OFFCURVE",
"341 55 CURVE SMOOTH",
"351 47 OFFCURVE",
"364 43 OFFCURVE",
"378 43 CURVE SMOOTH",
"383 43 OFFCURVE",
"386 45 OFFCURVE",
"386 48 CURVE SMOOTH",
"386 53 OFFCURVE",
"379 57 OFFCURVE",
"366 62 CURVE SMOOTH",
"352 67 OFFCURVE",
"346 76 OFFCURVE",
"346 88 CURVE SMOOTH",
"346 121 OFFCURVE",
"364 137 OFFCURVE",
"400 137 CURVE SMOOTH",
"421 137 OFFCURVE",
"441 130 OFFCURVE",
"460 115 CURVE SMOOTH",
"479 101 OFFCURVE",
"489 84 OFFCURVE",
"489 63 CURVE SMOOTH",
"489 42 OFFCURVE",
"480 26 OFFCURVE",
"463 15 CURVE SMOOTH",
"448 6 OFFCURVE",
"430 1 OFFCURVE",
"409 1 CURVE SMOOTH",
"354 1 OFFCURVE",
"297 26 OFFCURVE",
"239 77 CURVE",
"239 87 OFFCURVE",
"240 98 OFFCURVE",
"240 110 CURVE SMOOTH",
"240 127 OFFCURVE",
"240 145 OFFCURVE",
"238 164 CURVE SMOOTH",
"231 252 LINE",
"290 252 OFFCURVE",
"344 267 OFFCURVE",
"392 296 CURVE SMOOTH",
"449 330 OFFCURVE",
"477 375 OFFCURVE",
"477 431 CURVE SMOOTH",
"477 453 OFFCURVE",
"464 474 OFFCURVE",
"437 493 CURVE SMOOTH",
"410 513 OFFCURVE",
"385 522 OFFCURVE",
"362 522 CURVE SMOOTH",
"349 522 OFFCURVE",
"334 519 OFFCURVE",
"318 513 CURVE SMOOTH",
"277 499 OFFCURVE",
"249 465 OFFCURVE",
"234 411 CURVE SMOOTH",
"225 378 OFFCURVE",
"219 331 OFFCURVE",
"219 270 CURVE",
"206 270 LINE SMOOTH",
"168 270 OFFCURVE",
"132 276 OFFCURVE",
"99 288 CURVE SMOOTH",
"54 304 OFFCURVE",
"32 328 OFFCURVE",
"32 358 CURVE SMOOTH",
"32 387 OFFCURVE",
"50 415 OFFCURVE",
"87 442 CURVE SMOOTH",
"123 468 OFFCURVE",
"155 481 OFFCURVE",
"185 481 CURVE SMOOTH",
"201 481 OFFCURVE",
"210 474 OFFCURVE",
"210 462 CURVE SMOOTH",
"210 448 OFFCURVE",
"198 432 OFFCURVE",
"174 414 CURVE SMOOTH",
"154 400 OFFCURVE",
"136 389 OFFCURVE",
"119 383 CURVE",
"92 377 LINE SMOOTH",
"79 374 OFFCURVE",
"73 370 OFFCURVE",
"73 366 CURVE SMOOTH",
"73 362 OFFCURVE",
"77 360 OFFCURVE",
"85 360 CURVE SMOOTH",
"111 360 OFFCURVE",
"141 370 OFFCURVE",
"173 390 CURVE SMOOTH",
"208 412 OFFCURVE",
"226 436 OFFCURVE",
"226 461 CURVE SMOOTH",
"226 490 OFFCURVE",
"205 505 OFFCURVE",
"164 505 CURVE SMOOTH",
"123 505 OFFCURVE",
"88 491 OFFCURVE",
"58 463 CURVE SMOOTH",
"28 435 OFFCURVE",
"13 401 OFFCURVE",
"13 360 CURVE SMOOTH",
"13 291 OFFCURVE",
"81 255 OFFCURVE",
"218 252 CURVE",
"218 178 OFFCURVE",
"216 127 OFFCURVE",
"212 100 CURVE",
"163 145 OFFCURVE",
"127 168 OFFCURVE",
"104 168 CURVE SMOOTH",
"74 168 OFFCURVE",
"49 156 OFFCURVE",
"30 134 CURVE SMOOTH",
"11 112 OFFCURVE",
"1 85 OFFCURVE",
"1 54 CURVE SMOOTH",
"1 24 OFFCURVE",
"10 -3 OFFCURVE",
"26 -26 CURVE SMOOTH",
"44 -52 OFFCURVE",
"68 -65 OFFCURVE",
"98 -65 CURVE SMOOTH"
);
},
{
closed = 1;
nodes = (
"74 -39 OFFCURVE",
"59 -27 OFFCURVE",
"48 -4 CURVE SMOOTH",
"38 15 OFFCURVE",
"32 35 OFFCURVE",
"32 56 CURVE SMOOTH",
"32 103 OFFCURVE",
"56 126 OFFCURVE",
"102 126 CURVE SMOOTH",
"117 126 OFFCURVE",
"135 120 OFFCURVE",
"158 106 CURVE",
"207 70 LINE",
"191 -2 OFFCURVE",
"155 -39 OFFCURVE",
"98 -39 CURVE SMOOTH",
"94 -39 LINE SMOOTH"
);
},
{
closed = 1;
nodes = (
"173 182 OFFCURVE",
"186 190 OFFCURVE",
"197 192 CURVE SMOOTH",
"207 194 OFFCURVE",
"221 195 OFFCURVE",
"240 195 CURVE SMOOTH",
"258 196 OFFCURVE",
"272 197 OFFCURVE",
"282 199 CURVE SMOOTH",
"301 203 OFFCURVE",
"317 209 OFFCURVE",
"330 218 CURVE SMOOTH",
"332 220 OFFCURVE",
"334 223 OFFCURVE",
"334 226 CURVE SMOOTH",
"334 227 OFFCURVE",
"334 228 OFFCURVE",
"334 229 CURVE SMOOTH",
"332 234 OFFCURVE",
"329 236 OFFCURVE",
"325 236 CURVE SMOOTH",
"325 236 OFFCURVE",
"324 236 OFFCURVE",
"323 236 CURVE SMOOTH",
"319 235 OFFCURVE",
"314 233 OFFCURVE",
"305 230 CURVE SMOOTH",
"298 228 OFFCURVE",
"292 226 OFFCURVE",
"287 225 CURVE SMOOTH",
"278 223 LINE SMOOTH",
"272 222 OFFCURVE",
"263 221 OFFCURVE",
"251 221 CURVE SMOOTH",
"247 221 OFFCURVE",
"242 221 OFFCURVE",
"237 221 CURVE SMOOTH",
"218 221 OFFCURVE",
"203 220 OFFCURVE",
"194 218 CURVE SMOOTH",
"186 216 OFFCURVE",
"176 210 OFFCURVE",
"164 200 CURVE SMOOTH",
"153 190 OFFCURVE",
"148 183 OFFCURVE",
"148 178 CURVE SMOOTH",
"148 177 OFFCURVE",
"148 176 OFFCURVE",
"148 176 CURVE SMOOTH",
"149 171 OFFCURVE",
"152 168 OFFCURVE",
"156 168 CURVE SMOOTH",
"157 168 OFFCURVE",
"157 168 OFFCURVE",
"158 168 CURVE"
);
},
{
closed = 1;
nodes = (
"230 295 LINE SMOOTH",
"228 341 OFFCURVE",
"240 381 OFFCURVE",
"266 417 CURVE SMOOTH",
"291 452 OFFCURVE",
"326 470 OFFCURVE",
"371 470 CURVE SMOOTH",
"385 470 OFFCURVE",
"401 467 OFFCURVE",
"418 461 CURVE SMOOTH",
"440 453 OFFCURVE",
"451 443 OFFCURVE",
"451 431 CURVE SMOOTH",
"451 386 OFFCURVE",
"425 347 OFFCURVE",
"373 315 CURVE SMOOTH",
"330 289 OFFCURVE",
"282 275 OFFCURVE",
"231 271 CURVE"
);
}
);
width = 513;
}
);
unicode = 0141;
},
{
glyphname = M;
lastChange = "2021-11-13 23:22:35 +0000";
layers = (
{
background = {
paths = (
{
closed = 1;
nodes = (
"452 -52 OFFCURVE",
"473 -9 OFFCURVE",
"473 76 CURVE SMOOTH",
"473 121 OFFCURVE",
"466 167 OFFCURVE",
"452 213 CURVE",
"499 333 OFFCURVE",
"542 393 OFFCURVE",
"579 393 CURVE SMOOTH",
"600 393 OFFCURVE",
"611 375 OFFCURVE",
"611 339 CURVE SMOOTH",
"611 310 OFFCURVE",
"601 267 OFFCURVE",
"581 211 CURVE SMOOTH",
"561 154 OFFCURVE",
"551 111 OFFCURVE",
"551 81 CURVE SMOOTH",
"551 30 OFFCURVE",
"574 4 OFFCURVE",
"621 4 CURVE SMOOTH",
"642 4 OFFCURVE",
"662 16 OFFCURVE",
"680 41 CURVE SMOOTH",
"696 63 OFFCURVE",
"704 86 OFFCURVE",
"704 108 CURVE SMOOTH",
"704 138 OFFCURVE",
"689 152 OFFCURVE",
"658 152 CURVE SMOOTH",
"651 152 OFFCURVE",
"644 147 OFFCURVE",
"639 137 CURVE SMOOTH",
"634 127 OFFCURVE",
"631 117 OFFCURVE",
"631 109 CURVE SMOOTH",
"631 107 OFFCURVE",
"631 106 OFFCURVE",
"632 106 CURVE",
"632 106 OFFCURVE",
"638 111 OFFCURVE",
"647 121 CURVE SMOOTH",
"657 130 OFFCURVE",
"664 135 OFFCURVE",
"669 135 CURVE SMOOTH",
"675 135 OFFCURVE",
"678 126 OFFCURVE",
"678 108 CURVE SMOOTH",
"678 93 OFFCURVE",
"671 75 OFFCURVE",
"657 55 CURVE SMOOTH",
"642 33 OFFCURVE",
"627 23 OFFCURVE",
"613 23 CURVE SMOOTH",
"589 23 OFFCURVE",
"577 39 OFFCURVE",
"577 70 CURVE SMOOTH",
"577 103 OFFCURVE",
"591 151 OFFCURVE",
"620 213 CURVE SMOOTH",
"648 275 OFFCURVE",
"662 322 OFFCURVE",
"662 355 CURVE SMOOTH",
"662 409 OFFCURVE",
"636 436 OFFCURVE",
"584 436 CURVE SMOOTH",
"542 436 OFFCURVE",
"496 378 OFFCURVE",
"445 264 CURVE",
"437 299 OFFCURVE",
"427 329 OFFCURVE",
"415 356 CURVE SMOOTH",
"396 396 OFFCURVE",
"376 416 OFFCURVE",
"353 416 CURVE SMOOTH",
"321 416 OFFCURVE",
"296 394 OFFCURVE",
"277 352 CURVE SMOOTH",
"269 334 OFFCURVE",
"258 300 OFFCURVE",
"245 249 CURVE",
"248 415 OFFCURVE",
"212 498 OFFCURVE",
"136 498 CURVE SMOOTH",
"89 498 OFFCURVE",
"53 469 OFFCURVE",
"31 411 CURVE SMOOTH",
"14 369 OFFCURVE",
"5 320 OFFCURVE",
"5 264 CURVE SMOOTH",
"5 186 OFFCURVE",
"25 147 OFFCURVE",
"63 147 CURVE SMOOTH",
"85 147 OFFCURVE",
"104 155 OFFCURVE",
"121 171 CURVE SMOOTH",
"138 187 OFFCURVE",
"147 206 OFFCURVE",
"147 227 CURVE SMOOTH",
"147 272 OFFCURVE",
"137 309 OFFCURVE",
"118 337 CURVE SMOOTH",
"115 341 OFFCURVE",
"112 343 OFFCURVE",
"110 343 CURVE SMOOTH",
"107 343 OFFCURVE",
"105 340 OFFCURVE",
"105 334 CURVE SMOOTH",
"105 331 OFFCURVE",
"106 327 OFFCURVE",
"108 323 CURVE SMOOTH",
"116 307 OFFCURVE",
"120 282 OFFCURVE",
"120 249 CURVE SMOOTH",
"120 196 OFFCURVE",
"107 170 OFFCURVE",
"82 170 CURVE SMOOTH",
"47 170 OFFCURVE",
"30 208 OFFCURVE",
"30 283 CURVE SMOOTH",
"30 325 OFFCURVE",
"36 365 OFFCURVE",
"50 403 CURVE SMOOTH",
"69 454 OFFCURVE",
"97 480 OFFCURVE",
"131 480 CURVE SMOOTH",
"183 480 OFFCURVE",
"209 417 OFFCURVE",
"209 290 CURVE SMOOTH",
"209 255 OFFCURVE",
"202 203 OFFCURVE",
"189 133 CURVE SMOOTH",
"176 64 OFFCURVE",
"169 12 OFFCURVE",
"169 -23 CURVE SMOOTH",
"169 -36 OFFCURVE",
"177 -42 OFFCURVE",
"194 -42 CURVE SMOOTH",
"200 -42 OFFCURVE",
"203 -40 OFFCURVE",
"205 -35 CURVE SMOOTH",
"211 -13 OFFCURVE",
"216 10 OFFCURVE",
"220 33 CURVE SMOOTH",
"235 124 OFFCURVE",
"245 180 OFFCURVE",
"250 202 CURVE SMOOTH",
"277 321 OFFCURVE",
"306 380 OFFCURVE",
"339 380 CURVE SMOOTH",
"357 380 OFFCURVE",
"376 356 OFFCURVE",
"395 309 CURVE SMOOTH",
"408 277 OFFCURVE",
"417 245 OFFCURVE",
"423 213 CURVE",
"387 138 OFFCURVE",
"369 73 OFFCURVE",
"369 17 CURVE SMOOTH",
"369 -29 OFFCURVE",
"383 -52 OFFCURVE",
"410 -52 CURVE SMOOTH"
);
},
{
closed = 1;
nodes = (
"401 -12 OFFCURVE",
"395 -1 OFFCURVE",
"395 20 CURVE SMOOTH",
"395 51 OFFCURVE",
"407 95 OFFCURVE",
"429 153 CURVE",
"433 110 OFFCURVE",
"435 84 OFFCURVE",
"435 75 CURVE SMOOTH",
"435 60 OFFCURVE",
"433 44 OFFCURVE",
"429 25 CURVE SMOOTH",
"425 1 OFFCURVE",
"419 -12 OFFCURVE",
"411 -12 CURVE SMOOTH"
);
}
);
};
layerId = "A20F32D1-A37C-460A-962C-541C205D5E83";
paths = (
{
closed = 1;
nodes = (
"452 -52 OFFCURVE",
"473 -9 OFFCURVE",
"473 76 CURVE SMOOTH",
"473 121 OFFCURVE",
"466 167 OFFCURVE",
"452 213 CURVE",
"499 333 OFFCURVE",
"542 393 OFFCURVE",
"579 393 CURVE SMOOTH",
"600 393 OFFCURVE",
"611 375 OFFCURVE",
"611 339 CURVE SMOOTH",
"611 310 OFFCURVE",
"601 267 OFFCURVE",
"581 211 CURVE SMOOTH",
"561 154 OFFCURVE",
"551 111 OFFCURVE",
"551 81 CURVE SMOOTH",
"551 30 OFFCURVE",
"574 4 OFFCURVE",
"621 4 CURVE SMOOTH",
"642 4 OFFCURVE",
"662 16 OFFCURVE",
"680 41 CURVE SMOOTH",
"696 63 OFFCURVE",
"704 86 OFFCURVE",
"704 108 CURVE SMOOTH",
"704 138 OFFCURVE",
"689 152 OFFCURVE",
"658 152 CURVE SMOOTH",
"651 152 OFFCURVE",
"644 147 OFFCURVE",
"639 137 CURVE SMOOTH",
"634 127 OFFCURVE",
"631 117 OFFCURVE",
"631 109 CURVE SMOOTH",
"631 107 OFFCURVE",
"631 106 OFFCURVE",
"632 106 CURVE",
"632 106 OFFCURVE",
"638 111 OFFCURVE",
"647 121 CURVE SMOOTH",
"657 130 OFFCURVE",
"664 135 OFFCURVE",
"669 135 CURVE SMOOTH",
"675 135 OFFCURVE",
"678 126 OFFCURVE",
"678 108 CURVE SMOOTH",
"678 93 OFFCURVE",
"671 75 OFFCURVE",
"657 55 CURVE SMOOTH",
"642 33 OFFCURVE",
"627 23 OFFCURVE",
"613 23 CURVE SMOOTH",
"589 23 OFFCURVE",
"577 39 OFFCURVE",
"577 70 CURVE SMOOTH",
"577 103 OFFCURVE",
"591 151 OFFCURVE",
"620 213 CURVE SMOOTH",
"648 275 OFFCURVE",
"662 322 OFFCURVE",
"662 355 CURVE SMOOTH",
"662 409 OFFCURVE",
"636 436 OFFCURVE",
"584 436 CURVE SMOOTH",
"542 436 OFFCURVE",
"496 378 OFFCURVE",
"445 264 CURVE",
"437 299 OFFCURVE",
"427 329 OFFCURVE",
"415 356 CURVE SMOOTH",
"396 396 OFFCURVE",
"376 416 OFFCURVE",
"353 416 CURVE SMOOTH",
"321 416 OFFCURVE",
"296 394 OFFCURVE",
"277 352 CURVE SMOOTH",
"269 334 OFFCURVE",
"258 300 OFFCURVE",
"245 249 CURVE",
"248 415 OFFCURVE",
"212 498 OFFCURVE",
"136 498 CURVE SMOOTH",
"89 498 OFFCURVE",
"53 469 OFFCURVE",
"31 411 CURVE SMOOTH",
"14 369 OFFCURVE",
"5 320 OFFCURVE",
"5 264 CURVE SMOOTH",
"5 186 OFFCURVE",
"25 147 OFFCURVE",
"63 147 CURVE SMOOTH",
"85 147 OFFCURVE",
"104 155 OFFCURVE",
"121 171 CURVE SMOOTH",
"138 187 OFFCURVE",
"147 206 OFFCURVE",
"147 227 CURVE SMOOTH",
"147 272 OFFCURVE",
"137 309 OFFCURVE",
"118 337 CURVE SMOOTH",
"115 341 OFFCURVE",
"112 343 OFFCURVE",
"110 343 CURVE SMOOTH",
"107 343 OFFCURVE",
"105 340 OFFCURVE",
"105 334 CURVE SMOOTH",
"105 331 OFFCURVE",
"106 327 OFFCURVE",
"108 323 CURVE SMOOTH",
"116 307 OFFCURVE",
"120 282 OFFCURVE",
"120 249 CURVE SMOOTH",
"120 196 OFFCURVE",
"107 170 OFFCURVE",
"82 170 CURVE SMOOTH",
"47 170 OFFCURVE",
"30 208 OFFCURVE",
"30 283 CURVE SMOOTH",
"30 325 OFFCURVE",
"36 365 OFFCURVE",
"50 403 CURVE SMOOTH",
"69 454 OFFCURVE",
"97 480 OFFCURVE",
"131 480 CURVE SMOOTH",
"183 480 OFFCURVE",
"209 417 OFFCURVE",
"209 290 CURVE SMOOTH",
"209 255 OFFCURVE",
"202 203 OFFCURVE",
"189 133 CURVE SMOOTH",
"176 64 OFFCURVE",
"169 12 OFFCURVE",
"169 -23 CURVE SMOOTH",
"169 -36 OFFCURVE",
"177 -42 OFFCURVE",
"194 -42 CURVE SMOOTH",
"200 -42 OFFCURVE",
"203 -40 OFFCURVE",
"205 -35 CURVE SMOOTH",
"211 -13 OFFCURVE",
"216 10 OFFCURVE",
"220 33 CURVE SMOOTH",
"235 124 OFFCURVE",
"245 180 OFFCURVE",
"250 202 CURVE SMOOTH",
"277 321 OFFCURVE",
"306 380 OFFCURVE",
"339 380 CURVE SMOOTH",
"357 380 OFFCURVE",
"376 356 OFFCURVE",
"395 309 CURVE SMOOTH",
"408 277 OFFCURVE",
"417 245 OFFCURVE",
"423 213 CURVE",
"387 138 OFFCURVE",
"369 73 OFFCURVE",
"369 17 CURVE SMOOTH",
"369 -29 OFFCURVE",
"383 -52 OFFCURVE",
"410 -52 CURVE SMOOTH"
);
},
{
closed = 1;
nodes = (
"401 -12 OFFCURVE",
"395 -1 OFFCURVE",
"395 20 CURVE SMOOTH",
"395 51 OFFCURVE",
"407 95 OFFCURVE",
"429 153 CURVE",
"433 110 OFFCURVE",
"435 84 OFFCURVE",
"435 75 CURVE SMOOTH",
"435 60 OFFCURVE",
"433 44 OFFCURVE",
"429 25 CURVE SMOOTH",
"425 1 OFFCURVE",
"419 -12 OFFCURVE",
"411 -12 CURVE SMOOTH"
);
}
);
width = 704;
}
);
note = M;
unicode = 004D;
},
{
glyphname = N;
lastChange = "2021-11-25 05:08:38 +0000";
layers = (
{
anchors = (
{
name = bottom;
position = "{234, -50}";
},
{
name = top;
position = "{336, 510}";
}
);
background = {
paths = (
{
closed = 1;
nodes = (
"439 -159 OFFCURVE",
"454 -157 OFFCURVE",
"470 -154 CURVE SMOOTH",
"491 -149 OFFCURVE",
"510 -135 OFFCURVE",
"526 -112 CURVE SMOOTH",
"540 -90 OFFCURVE",
"547 -67 OFFCURVE",
"547 -43 CURVE SMOOTH",
"547 -18 OFFCURVE",
"539 -6 OFFCURVE",
"524 -6 CURVE SMOOTH",
"519 -6 OFFCURVE",
"517 -8 OFFCURVE",
"517 -12 CURVE SMOOTH",
"517 -14 OFFCURVE",
"519 -17 OFFCURVE",
"523 -22 CURVE SMOOTH",
"526 -27 OFFCURVE",
"528 -32 OFFCURVE",
"528 -37 CURVE SMOOTH",
"528 -50 OFFCURVE",
"520 -70 OFFCURVE",
"505 -97 CURVE SMOOTH",
"499 -107 OFFCURVE",
"490 -116 OFFCURVE",
"477 -125 CURVE SMOOTH",
"465 -133 OFFCURVE",
"452 -137 OFFCURVE",
"441 -137 CURVE SMOOTH",
"428 -137 OFFCURVE",
"418 -131 OFFCURVE",
"410 -121 CURVE",
"407 -105 OFFCURVE",
"405 -89 OFFCURVE",
"405 -72 CURVE SMOOTH",
"405 -35 OFFCURVE",
"419 21 OFFCURVE",
"445 96 CURVE SMOOTH",
"450 112 OFFCURVE",
"475 166 OFFCURVE",
"520 258 CURVE SMOOTH",
"555 329 OFFCURVE",
"572 384 OFFCURVE",
"572 422 CURVE SMOOTH",
"572 483 OFFCURVE",
"546 514 OFFCURVE",
"495 514 CURVE SMOOTH",
"472 514 OFFCURVE",
"452 509 OFFCURVE",
"434 500 CURVE SMOOTH",
"404 484 OFFCURVE",
"368 452 OFFCURVE",
"328 405 CURVE SMOOTH",
"295 368 OFFCURVE",
"266 330 OFFCURVE",
"241 290 CURVE",
"238 342 OFFCURVE",
"227 389 OFFCURVE",
"209 431 CURVE SMOOTH",
"184 488 OFFCURVE",
"149 517 OFFCURVE",
"106 517 CURVE SMOOTH",
"71 517 OFFCURVE",
"44 501 OFFCURVE",
"24 469 CURVE SMOOTH",
"8 443 OFFCURVE",
"0 411 OFFCURVE",
"0 373 CURVE SMOOTH",
"0 333 OFFCURVE",
"6 293 OFFCURVE",
"19 251 CURVE SMOOTH",
"36 196 OFFCURVE",
"59 168 OFFCURVE",
"89 168 CURVE SMOOTH",
"94 168 OFFCURVE",
"98 168 OFFCURVE",
"102 169 CURVE SMOOTH",
"138 178 OFFCURVE",
"156 207 OFFCURVE",
"156 255 CURVE SMOOTH",
"156 276 OFFCURVE",
"147 302 OFFCURVE",
"130 334 CURVE SMOOTH",
"110 370 OFFCURVE",
"91 388 OFFCURVE",
"72 388 CURVE SMOOTH",
"68 388 OFFCURVE",
"67 386 OFFCURVE",
"67 383 CURVE SMOOTH",
"67 372 OFFCURVE",
"74 363 OFFCURVE",
"87 355 CURVE SMOOTH",
"97 349 OFFCURVE",
"105 333 OFFCURVE",
"113 307 CURVE SMOOTH",
"120 280 OFFCURVE",
"123 260 OFFCURVE",
"123 247 CURVE SMOOTH",
"123 218 OFFCURVE",
"115 199 OFFCURVE",
"97 190 CURVE",
"95 190 LINE SMOOTH",
"89 190 OFFCURVE",
"78 209 OFFCURVE",
"61 246 CURVE SMOOTH",
"53 265 OFFCURVE",
"46 282 OFFCURVE",
"41 299 CURVE SMOOTH",
"30 329 OFFCURVE",
"25 353 OFFCURVE",
"25 370 CURVE SMOOTH",
"25 397 OFFCURVE",
"33 423 OFFCURVE",
"48 449 CURVE SMOOTH",
"65 480 OFFCURVE",
"85 495 OFFCURVE",
"110 495 CURVE SMOOTH",
"139 495 OFFCURVE",
"165 467 OFFCURVE",
"186 410 CURVE SMOOTH",
"206 357 OFFCURVE",
"216 310 OFFCURVE",
"216 268 CURVE SMOOTH",
"216 249 LINE",
"140 117 OFFCURVE",
"102 39 OFFCURVE",
"102 13 CURVE SMOOTH",
"102 -8 OFFCURVE",
"110 -18 OFFCURVE",
"125 -18 CURVE SMOOTH",
"136 -18 OFFCURVE",
"150 -10 OFFCURVE",
"167 6 CURVE SMOOTH",
"208 47 OFFCURVE",
"233 126 OFFCURVE",
"240 243 CURVE",
"268 291 OFFCURVE",
"304 341 OFFCURVE",
"348 393 CURVE SMOOTH",
"407 461 OFFCURVE",
"453 495 OFFCURVE",
"485 495 CURVE SMOOTH",
"513 495 OFFCURVE",
"527 473 OFFCURVE",
"527 429 CURVE SMOOTH",
"527 392 OFFCURVE",
"514 340 OFFCURVE",
"487 276 CURVE SMOOTH",
"452 194 OFFCURVE",
"424 133 OFFCURVE",
"406 93 CURVE SMOOTH",
"370 11 OFFCURVE",
"353 -51 OFFCURVE",
"353 -91 CURVE SMOOTH",
"353 -136 OFFCURVE",
"376 -159 OFFCURVE",
"423 -159 CURVE SMOOTH"
);
},
{
closed = 1;
nodes = (
"140 23 OFFCURVE",
"138 27 OFFCURVE",
"138 34 CURVE SMOOTH",
"138 49 OFFCURVE",
"147 73 OFFCURVE",
"166 106 CURVE SMOOTH",
"205 178 LINE",
"205 178 LINE",
"197 123 LINE SMOOTH",
"195 108 OFFCURVE",
"189 89 OFFCURVE",
"179 66 CURVE SMOOTH",
"167 37 OFFCURVE",
"155 23 OFFCURVE",
"144 23 CURVE SMOOTH"
);
}
);
};
layerId = "A20F32D1-A37C-460A-962C-541C205D5E83";
paths = (
{
closed = 1;
nodes = (
"439 -159 OFFCURVE",
"454 -157 OFFCURVE",
"470 -154 CURVE SMOOTH",
"491 -149 OFFCURVE",
"510 -135 OFFCURVE",
"526 -112 CURVE SMOOTH",
"540 -90 OFFCURVE",
"547 -67 OFFCURVE",
"547 -43 CURVE SMOOTH",
"547 -18 OFFCURVE",
"539 -6 OFFCURVE",
"524 -6 CURVE SMOOTH",
"519 -6 OFFCURVE",
"517 -8 OFFCURVE",
"517 -12 CURVE SMOOTH",
"517 -14 OFFCURVE",
"519 -17 OFFCURVE",
"523 -22 CURVE SMOOTH",
"526 -27 OFFCURVE",
"528 -32 OFFCURVE",
"528 -37 CURVE SMOOTH",
"528 -50 OFFCURVE",
"520 -70 OFFCURVE",
"505 -97 CURVE SMOOTH",
"499 -107 OFFCURVE",
"490 -116 OFFCURVE",
"477 -125 CURVE SMOOTH",
"465 -133 OFFCURVE",
"452 -137 OFFCURVE",
"441 -137 CURVE SMOOTH",
"428 -137 OFFCURVE",
"418 -131 OFFCURVE",
"410 -121 CURVE",
"407 -105 OFFCURVE",
"405 -89 OFFCURVE",
"405 -72 CURVE SMOOTH",
"405 -35 OFFCURVE",
"419 21 OFFCURVE",
"445 96 CURVE SMOOTH",
"450 112 OFFCURVE",
"475 166 OFFCURVE",
"520 258 CURVE SMOOTH",
"555 329 OFFCURVE",
"572 384 OFFCURVE",
"572 422 CURVE SMOOTH",
"572 483 OFFCURVE",
"546 514 OFFCURVE",
"495 514 CURVE SMOOTH",
"472 514 OFFCURVE",
"452 509 OFFCURVE",
"434 500 CURVE SMOOTH",
"404 484 OFFCURVE",
"368 452 OFFCURVE",
"328 405 CURVE SMOOTH",
"295 368 OFFCURVE",
"266 330 OFFCURVE",
"241 290 CURVE",
"238 342 OFFCURVE",
"227 389 OFFCURVE",
"209 431 CURVE SMOOTH",
"184 488 OFFCURVE",
"149 517 OFFCURVE",
"106 517 CURVE SMOOTH",
"71 517 OFFCURVE",
"44 501 OFFCURVE",
"24 469 CURVE SMOOTH",
"8 443 OFFCURVE",
"0 411 OFFCURVE",
"0 373 CURVE SMOOTH",
"0 333 OFFCURVE",
"6 293 OFFCURVE",
"19 251 CURVE SMOOTH",
"36 196 OFFCURVE",
"59 168 OFFCURVE",
"89 168 CURVE SMOOTH",
"94 168 OFFCURVE",
"98 168 OFFCURVE",
"102 169 CURVE SMOOTH",
"138 178 OFFCURVE",
"156 207 OFFCURVE",
"156 255 CURVE SMOOTH",
"156 276 OFFCURVE",
"147 302 OFFCURVE",
"130 334 CURVE SMOOTH",
"110 370 OFFCURVE",
"91 388 OFFCURVE",
"72 388 CURVE SMOOTH",
"68 388 OFFCURVE",
"67 386 OFFCURVE",
"67 383 CURVE SMOOTH",
"67 372 OFFCURVE",
"74 363 OFFCURVE",
"87 355 CURVE SMOOTH",
"97 349 OFFCURVE",
"105 333 OFFCURVE",
"113 307 CURVE SMOOTH",
"120 280 OFFCURVE",
"123 260 OFFCURVE",
"123 247 CURVE SMOOTH",
"123 218 OFFCURVE",
"115 199 OFFCURVE",
"97 190 CURVE",
"95 190 LINE SMOOTH",
"89 190 OFFCURVE",
"78 209 OFFCURVE",
"61 246 CURVE SMOOTH",
"53 265 OFFCURVE",
"46 282 OFFCURVE",
"41 299 CURVE SMOOTH",
"30 329 OFFCURVE",
"25 353 OFFCURVE",
"25 370 CURVE SMOOTH",
"25 397 OFFCURVE",
"33 423 OFFCURVE",
"48 449 CURVE SMOOTH",
"65 480 OFFCURVE",
"85 495 OFFCURVE",
"110 495 CURVE SMOOTH",
"139 495 OFFCURVE",
"165 467 OFFCURVE",
"186 410 CURVE SMOOTH",
"206 357 OFFCURVE",
"216 310 OFFCURVE",
"216 268 CURVE SMOOTH",
"216 249 LINE",
"140 117 OFFCURVE",
"102 39 OFFCURVE",
"102 13 CURVE SMOOTH",
"102 -8 OFFCURVE",
"110 -18 OFFCURVE",
"125 -18 CURVE SMOOTH",
"136 -18 OFFCURVE",
"150 -10 OFFCURVE",
"167 6 CURVE SMOOTH",
"208 47 OFFCURVE",
"233 126 OFFCURVE",
"240 243 CURVE",
"268 291 OFFCURVE",
"304 341 OFFCURVE",
"348 393 CURVE SMOOTH",
"407 461 OFFCURVE",
"453 495 OFFCURVE",
"485 495 CURVE SMOOTH",
"513 495 OFFCURVE",
"527 473 OFFCURVE",
"527 429 CURVE SMOOTH",
"527 392 OFFCURVE",
"514 340 OFFCURVE",
"487 276 CURVE SMOOTH",
"452 194 OFFCURVE",
"424 133 OFFCURVE",
"406 93 CURVE SMOOTH",
"370 11 OFFCURVE",
"353 -51 OFFCURVE",
"353 -91 CURVE SMOOTH",
"353 -136 OFFCURVE",
"376 -159 OFFCURVE",
"423 -159 CURVE SMOOTH"
);
},
{
closed = 1;
nodes = (
"140 23 OFFCURVE",
"138 27 OFFCURVE",
"138 34 CURVE SMOOTH",
"138 49 OFFCURVE",
"148 73 OFFCURVE",
"166 106 CURVE SMOOTH",
"205 178 LINE",
"197 123 LINE SMOOTH",
"195 108 OFFCURVE",
"189 89 OFFCURVE",
"179 66 CURVE SMOOTH",
"167 37 OFFCURVE",
"155 23 OFFCURVE",
"144 23 CURVE SMOOTH"
);
}
);
width = 563;
}
);
note = N;
unicode = 004E;
},
{
glyphname = Eng;
lastChange = "2021-11-14 00:37:34 +0000";
layers = (
{
background = {
paths = (
{
closed = 1;
nodes = (
"174 -381 OFFCURVE",
"184 -380 OFFCURVE",
"193 -378 CURVE SMOOTH",
"236 -370 OFFCURVE",
"272 -342 OFFCURVE",
"302 -296 CURVE SMOOTH",
"319 -270 OFFCURVE",
"333 -239 OFFCURVE",
"345 -200 CURVE SMOOTH",
"363 -140 OFFCURVE",
"411 -7 OFFCURVE",
"452 96 CURVE SMOOTH",
"470 142 OFFCURVE",
"491 200 OFFCURVE",
"520 258 CURVE SMOOTH",
"555 329 OFFCURVE",
"572 384 OFFCURVE",
"572 422 CURVE SMOOTH",
"572 483 OFFCURVE",
"546 514 OFFCURVE",
"495 514 CURVE SMOOTH",
"472 514 OFFCURVE",
"452 509 OFFCURVE",
"434 500 CURVE SMOOTH",
"404 484 OFFCURVE",
"368 452 OFFCURVE",
"328 405 CURVE SMOOTH",
"295 368 OFFCURVE",
"266 330 OFFCURVE",
"241 290 CURVE",
"238 342 OFFCURVE",
"227 389 OFFCURVE",
"209 431 CURVE SMOOTH",
"184 488 OFFCURVE",
"149 517 OFFCURVE",
"106 517 CURVE SMOOTH",
"71 517 OFFCURVE",
"44 501 OFFCURVE",
"24 469 CURVE SMOOTH",
"8 443 OFFCURVE",
"0 411 OFFCURVE",
"0 373 CURVE SMOOTH",
"0 333 OFFCURVE",
"6 293 OFFCURVE",
"19 251 CURVE SMOOTH",
"36 196 OFFCURVE",
"59 168 OFFCURVE",
"89 168 CURVE SMOOTH",
"94 168 OFFCURVE",
"98 168 OFFCURVE",
"102 169 CURVE SMOOTH",
"138 178 OFFCURVE",
"156 207 OFFCURVE",
"156 255 CURVE SMOOTH",
"156 276 OFFCURVE",
"147 302 OFFCURVE",
"130 334 CURVE SMOOTH",
"110 370 OFFCURVE",
"91 388 OFFCURVE",
"72 388 CURVE SMOOTH",
"68 388 OFFCURVE",
"67 386 OFFCURVE",
"67 383 CURVE SMOOTH",
"67 372 OFFCURVE",
"74 363 OFFCURVE",
"87 355 CURVE SMOOTH",
"97 349 OFFCURVE",
"105 333 OFFCURVE",
"113 307 CURVE SMOOTH",
"120 280 OFFCURVE",
"123 260 OFFCURVE",
"123 247 CURVE SMOOTH",
"123 218 OFFCURVE",
"115 199 OFFCURVE",
"97 190 CURVE",
"95 190 LINE SMOOTH",
"89 190 OFFCURVE",
"78 209 OFFCURVE",
"61 246 CURVE SMOOTH",
"53 265 OFFCURVE",
"46 282 OFFCURVE",
"41 299 CURVE SMOOTH",
"30 329 OFFCURVE",
"25 353 OFFCURVE",
"25 370 CURVE SMOOTH",
"25 397 OFFCURVE",
"33 423 OFFCURVE",
"48 449 CURVE SMOOTH",
"65 480 OFFCURVE",
"85 495 OFFCURVE",
"110 495 CURVE SMOOTH",
"139 495 OFFCURVE",
"165 467 OFFCURVE",
"186 410 CURVE SMOOTH",
"206 357 OFFCURVE",
"216 310 OFFCURVE",
"216 268 CURVE SMOOTH",
"216 249 LINE",
"140 117 OFFCURVE",
"102 39 OFFCURVE",
"102 13 CURVE SMOOTH",
"102 -8 OFFCURVE",
"110 -18 OFFCURVE",
"125 -18 CURVE SMOOTH",
"136 -18 OFFCURVE",
"150 -10 OFFCURVE",
"167 6 CURVE SMOOTH",
"208 47 OFFCURVE",
"233 126 OFFCURVE",
"240 243 CURVE",
"268 291 OFFCURVE",
"304 341 OFFCURVE",
"348 393 CURVE SMOOTH",
"407 461 OFFCURVE",
"453 495 OFFCURVE",
"485 495 CURVE SMOOTH",
"513 495 OFFCURVE",
"527 473 OFFCURVE",
"527 429 CURVE SMOOTH",
"527 392 OFFCURVE",
"514 340 OFFCURVE",
"487 276 CURVE SMOOTH",
"455 202 OFFCURVE",
"375 -23 OFFCURVE",
"336 -131 CURVE SMOOTH",
"318 -181 OFFCURVE",
"299 -225 OFFCURVE",
"275 -261 CURVE SMOOTH",
"246 -306 OFFCURVE",
"212 -330 OFFCURVE",
"178 -330 CURVE SMOOTH",
"134 -330 OFFCURVE",
"91 -317 OFFCURVE",
"48 -289 CURVE SMOOTH",
"17 -269 OFFCURVE",
"-4 -245 OFFCURVE",
"-18 -221 CURVE SMOOTH",
"-26 -205 OFFCURVE",
"-31 -189 OFFCURVE",
"-31 -174 CURVE SMOOTH",
"-31 -159 OFFCURVE",
"-26 -144 OFFCURVE",
"-17 -130 CURVE SMOOTH",
"-6 -113 OFFCURVE",
"15 -100 OFFCURVE",
"45 -89 CURVE SMOOTH",
"73 -77 OFFCURVE",
"102 -72 OFFCURVE",
"133 -72 CURVE SMOOTH",
"167 -73 OFFCURVE",
"196 -80 OFFCURVE",
"218 -95 CURVE SMOOTH",
"242 -111 OFFCURVE",
"254 -127 OFFCURVE",
"254 -145 CURVE SMOOTH",
"254 -154 OFFCURVE",
"250 -163 OFFCURVE",
"244 -173 CURVE SMOOTH",
"236 -185 OFFCURVE",
"226 -195 OFFCURVE",
"213 -202 CURVE SMOOTH",
"197 -212 OFFCURVE",
"173 -221 OFFCURVE",
"141 -225 CURVE SMOOTH",
"130 -227 OFFCURVE",
"119 -227 OFFCURVE",
"110 -227 CURVE SMOOTH",
"91 -227 OFFCURVE",
"77 -224 OFFCURVE",
"68 -218 CURVE SMOOTH",
"65 -216 OFFCURVE",
"63 -214 OFFCURVE",
"63 -211 CURVE SMOOTH",
"63 -210 OFFCURVE",
"63 -209 OFFCURVE",
"64 -207 CURVE SMOOTH",
"68 -202 OFFCURVE",
"78 -195 OFFCURVE",
"95 -189 CURVE SMOOTH",
"112 -184 OFFCURVE",
"120 -180 OFFCURVE",
"123 -176 CURVE SMOOTH",
"125 -173 OFFCURVE",
"126 -170 OFFCURVE",
"126 -168 CURVE SMOOTH",
"126 -165 OFFCURVE",
"125 -164 OFFCURVE",
"122 -162 CURVE SMOOTH",
"120 -161 OFFCURVE",
"117 -160 OFFCURVE",
"113 -160 CURVE SMOOTH",
"108 -160 OFFCURVE",
"103 -161 OFFCURVE",
"95 -162 CURVE SMOOTH",
"75 -165 OFFCURVE",
"60 -175 OFFCURVE",
"50 -191 CURVE SMOOTH",
"45 -199 OFFCURVE",
"42 -207 OFFCURVE",
"42 -214 CURVE SMOOTH",
"42 -224 OFFCURVE",
"48 -233 OFFCURVE",
"59 -240 CURVE SMOOTH",
"73 -250 OFFCURVE",
"99 -257 OFFCURVE",
"136 -257 CURVE SMOOTH",
"187 -257 OFFCURVE",
"227 -236 OFFCURVE",
"254 -194 CURVE SMOOTH",
"268 -173 OFFCURVE",
"275 -153 OFFCURVE",
"275 -135 CURVE SMOOTH",
"275 -109 OFFCURVE",
"261 -87 OFFCURVE",
"232 -68 CURVE SMOOTH",
"209 -53 OFFCURVE",
"174 -44 OFFCURVE",
"128 -44 CURVE SMOOTH",
"99 -44 OFFCURVE",
"69 -51 OFFCURVE",
"40 -64 CURVE SMOOTH",
"9 -77 OFFCURVE",
"-15 -98 OFFCURVE",
"-31 -123 CURVE SMOOTH",
"-44 -143 OFFCURVE",
"-50 -163 OFFCURVE",
"-50 -185 CURVE SMOOTH",
"-50 -205 OFFCURVE",
"-45 -226 OFFCURVE",
"-33 -248 CURVE SMOOTH",
"-12 -287 OFFCURVE",
"18 -319 OFFCURVE",
"59 -346 CURVE SMOOTH",
"95 -369 OFFCURVE",
"131 -381 OFFCURVE",
"165 -381 CURVE SMOOTH"
);
},
{
closed = 1;
nodes = (
"140 23 OFFCURVE",
"138 27 OFFCURVE",
"138 34 CURVE SMOOTH",
"138 49 OFFCURVE",
"147 73 OFFCURVE",
"166 106 CURVE SMOOTH",
"183 138 OFFCURVE",
"196 162 OFFCURVE",
"205 178 CURVE",
"197 123 LINE SMOOTH",
"195 108 OFFCURVE",
"189 89 OFFCURVE",
"179 66 CURVE SMOOTH",
"167 37 OFFCURVE",
"155 23 OFFCURVE",
"144 23 CURVE SMOOTH"
);
}
);
};
layerId = "A20F32D1-A37C-460A-962C-541C205D5E83";
paths = (
{
closed = 1;
nodes = (
"174 -381 OFFCURVE",
"184 -380 OFFCURVE",
"193 -378 CURVE SMOOTH",
"236 -370 OFFCURVE",
"272 -342 OFFCURVE",
"302 -296 CURVE SMOOTH",
"319 -270 OFFCURVE",
"333 -239 OFFCURVE",
"345 -200 CURVE SMOOTH",
"363 -140 OFFCURVE",
"411 -7 OFFCURVE",
"452 96 CURVE SMOOTH",
"470 142 OFFCURVE",
"491 200 OFFCURVE",
"520 258 CURVE SMOOTH",
"555 329 OFFCURVE",
"572 384 OFFCURVE",
"572 422 CURVE SMOOTH",
"572 483 OFFCURVE",
"546 514 OFFCURVE",
"495 514 CURVE SMOOTH",
"472 514 OFFCURVE",
"452 509 OFFCURVE",
"434 500 CURVE SMOOTH",
"404 484 OFFCURVE",
"368 452 OFFCURVE",
"328 405 CURVE SMOOTH",
"295 368 OFFCURVE",
"266 330 OFFCURVE",
"241 290 CURVE",
"238 342 OFFCURVE",
"227 389 OFFCURVE",
"209 431 CURVE SMOOTH",
"184 488 OFFCURVE",
"149 517 OFFCURVE",
"106 517 CURVE SMOOTH",
"71 517 OFFCURVE",
"44 501 OFFCURVE",
"24 469 CURVE SMOOTH",
"8 443 OFFCURVE",
"0 411 OFFCURVE",
"0 373 CURVE SMOOTH",
"0 333 OFFCURVE",
"6 293 OFFCURVE",
"19 251 CURVE SMOOTH",
"36 196 OFFCURVE",
"59 168 OFFCURVE",
"89 168 CURVE SMOOTH",
"94 168 OFFCURVE",
"98 168 OFFCURVE",
"102 169 CURVE SMOOTH",
"138 178 OFFCURVE",
"156 207 OFFCURVE",
"156 255 CURVE SMOOTH",
"156 276 OFFCURVE",
"147 302 OFFCURVE",
"130 334 CURVE SMOOTH",
"110 370 OFFCURVE",
"91 388 OFFCURVE",
"72 388 CURVE SMOOTH",
"68 388 OFFCURVE",
"67 386 OFFCURVE",
"67 383 CURVE SMOOTH",
"67 372 OFFCURVE",
"74 363 OFFCURVE",
"87 355 CURVE SMOOTH",
"97 349 OFFCURVE",
"105 333 OFFCURVE",
"113 307 CURVE SMOOTH",
"120 280 OFFCURVE",
"123 260 OFFCURVE",
"123 247 CURVE SMOOTH",
"123 218 OFFCURVE",
"115 199 OFFCURVE",
"97 190 CURVE",
"95 190 LINE SMOOTH",
"89 190 OFFCURVE",
"78 209 OFFCURVE",
"61 246 CURVE SMOOTH",
"53 265 OFFCURVE",
"46 282 OFFCURVE",
"41 299 CURVE SMOOTH",
"30 329 OFFCURVE",
"25 353 OFFCURVE",
"25 370 CURVE SMOOTH",
"25 397 OFFCURVE",
"33 423 OFFCURVE",
"48 449 CURVE SMOOTH",
"65 480 OFFCURVE",
"85 495 OFFCURVE",
"110 495 CURVE SMOOTH",
"139 495 OFFCURVE",
"165 467 OFFCURVE",
"186 410 CURVE SMOOTH",
"206 357 OFFCURVE",
"216 310 OFFCURVE",
"216 268 CURVE SMOOTH",
"216 249 LINE",
"140 117 OFFCURVE",
"102 39 OFFCURVE",
"102 13 CURVE SMOOTH",
"102 -8 OFFCURVE",
"110 -18 OFFCURVE",
"125 -18 CURVE SMOOTH",
"136 -18 OFFCURVE",
"150 -10 OFFCURVE",
"167 6 CURVE SMOOTH",
"208 47 OFFCURVE",
"233 126 OFFCURVE",
"240 243 CURVE",
"268 291 OFFCURVE",
"304 341 OFFCURVE",
"348 393 CURVE SMOOTH",
"407 461 OFFCURVE",
"453 495 OFFCURVE",
"485 495 CURVE SMOOTH",
"513 495 OFFCURVE",
"527 473 OFFCURVE",
"527 429 CURVE SMOOTH",
"527 392 OFFCURVE",
"514 340 OFFCURVE",
"487 276 CURVE SMOOTH",
"455 202 OFFCURVE",
"375 -23 OFFCURVE",
"336 -131 CURVE SMOOTH",
"318 -181 OFFCURVE",
"299 -225 OFFCURVE",
"275 -261 CURVE SMOOTH",
"246 -306 OFFCURVE",
"212 -330 OFFCURVE",
"178 -330 CURVE SMOOTH",
"134 -330 OFFCURVE",
"91 -317 OFFCURVE",
"48 -289 CURVE SMOOTH",
"17 -269 OFFCURVE",
"-4 -245 OFFCURVE",
"-18 -221 CURVE SMOOTH",
"-26 -205 OFFCURVE",
"-31 -189 OFFCURVE",
"-31 -174 CURVE SMOOTH",
"-31 -159 OFFCURVE",
"-26 -144 OFFCURVE",
"-17 -130 CURVE SMOOTH",
"-6 -113 OFFCURVE",
"15 -100 OFFCURVE",
"45 -89 CURVE SMOOTH",
"73 -77 OFFCURVE",
"102 -72 OFFCURVE",
"133 -72 CURVE SMOOTH",
"167 -73 OFFCURVE",
"196 -80 OFFCURVE",
"218 -95 CURVE SMOOTH",
"242 -111 OFFCURVE",
"254 -127 OFFCURVE",
"254 -145 CURVE SMOOTH",
"254 -154 OFFCURVE",
"250 -163 OFFCURVE",
"244 -173 CURVE SMOOTH",
"236 -185 OFFCURVE",
"226 -195 OFFCURVE",
"213 -202 CURVE SMOOTH",
"197 -212 OFFCURVE",
"173 -221 OFFCURVE",
"141 -225 CURVE SMOOTH",
"130 -227 OFFCURVE",
"119 -227 OFFCURVE",
"110 -227 CURVE SMOOTH",
"91 -227 OFFCURVE",
"77 -224 OFFCURVE",
"68 -218 CURVE SMOOTH",
"65 -216 OFFCURVE",
"63 -214 OFFCURVE",
"63 -211 CURVE SMOOTH",
"63 -210 OFFCURVE",
"63 -209 OFFCURVE",
"64 -207 CURVE SMOOTH",
"68 -202 OFFCURVE",
"78 -195 OFFCURVE",
"95 -189 CURVE SMOOTH",
"112 -184 OFFCURVE",
"120 -180 OFFCURVE",
"123 -176 CURVE SMOOTH",
"125 -173 OFFCURVE",
"126 -170 OFFCURVE",
"126 -168 CURVE SMOOTH",
"126 -165 OFFCURVE",
"125 -164 OFFCURVE",
"122 -162 CURVE SMOOTH",
"120 -161 OFFCURVE",
"117 -160 OFFCURVE",
"113 -160 CURVE SMOOTH",
"108 -160 OFFCURVE",
"103 -161 OFFCURVE",
"95 -162 CURVE SMOOTH",
"75 -165 OFFCURVE",
"60 -175 OFFCURVE",
"50 -191 CURVE SMOOTH",
"45 -199 OFFCURVE",
"42 -207 OFFCURVE",
"42 -214 CURVE SMOOTH",
"42 -224 OFFCURVE",
"48 -233 OFFCURVE",
"59 -240 CURVE SMOOTH",
"73 -250 OFFCURVE",
"99 -257 OFFCURVE",
"136 -257 CURVE SMOOTH",
"187 -257 OFFCURVE",
"227 -236 OFFCURVE",
"254 -194 CURVE SMOOTH",
"268 -173 OFFCURVE",
"275 -153 OFFCURVE",
"275 -135 CURVE SMOOTH",
"275 -109 OFFCURVE",
"261 -87 OFFCURVE",
"232 -68 CURVE SMOOTH",
"209 -53 OFFCURVE",
"174 -44 OFFCURVE",
"128 -44 CURVE SMOOTH",
"99 -44 OFFCURVE",
"69 -51 OFFCURVE",
"40 -64 CURVE SMOOTH",
"9 -77 OFFCURVE",
"-15 -98 OFFCURVE",
"-31 -123 CURVE SMOOTH",
"-44 -143 OFFCURVE",
"-50 -163 OFFCURVE",
"-50 -185 CURVE SMOOTH",
"-50 -205 OFFCURVE",
"-45 -226 OFFCURVE",
"-33 -248 CURVE SMOOTH",
"-12 -287 OFFCURVE",
"18 -319 OFFCURVE",
"59 -346 CURVE SMOOTH",
"95 -369 OFFCURVE",
"131 -381 OFFCURVE",
"165 -381 CURVE SMOOTH"
);
},
{
closed = 1;
nodes = (
"140 23 OFFCURVE",
"138 27 OFFCURVE",
"138 34 CURVE SMOOTH",
"138 49 OFFCURVE",
"147 73 OFFCURVE",
"166 106 CURVE SMOOTH",
"205 178 LINE",
"197 123 LINE SMOOTH",
"195 108 OFFCURVE",
"189 89 OFFCURVE",
"179 66 CURVE SMOOTH",
"167 37 OFFCURVE",
"155 23 OFFCURVE",
"144 23 CURVE SMOOTH"
);
}
);
width = 562;
}
);
unicode = 014A;
},
{
glyphname = O;
lastChange = "2021-11-16 15:47:42 +0000";
layers = (
{
anchors = (
{
name = bottom;
position = "{266, -32}";
},
{
name = center;
position = "{277, 255}";
},
{
name = ogonek;
position = "{382, -30}";
},
{
name = top;
position = "{303, 448}";
},
{
name = topleft;
position = "{20, 510}";
},
{
name = topright;
position = "{373, 415}";
}
);
background = {
paths = (
{
closed = 1;
nodes = (
"344 -36 OFFCURVE",
"402 -11 OFFCURVE",
"452 40 CURVE SMOOTH",
"502 90 OFFCURVE",
"527 148 OFFCURVE",
"527 214 CURVE SMOOTH",
"527 291 OFFCURVE",
"499 350 OFFCURVE",
"441 393 CURVE SMOOTH",
"389 431 OFFCURVE",
"325 450 OFFCURVE",
"247 450 CURVE SMOOTH",
"188 450 OFFCURVE",
"138 435 OFFCURVE",
"98 403 CURVE SMOOTH",
"54 369 OFFCURVE",
"32 322 OFFCURVE",
"32 264 CURVE SMOOTH",
"32 259 OFFCURVE",
"33 257 OFFCURVE",
"36 257 CURVE SMOOTH",
"43 257 OFFCURVE",
"46 263 OFFCURVE",
"46 275 CURVE SMOOTH",
"46 320 OFFCURVE",
"64 356 OFFCURVE",
"100 384 CURVE SMOOTH",
"133 411 OFFCURVE",
"172 425 OFFCURVE",
"218 425 CURVE SMOOTH",
"291 425 OFFCURVE",
"353 408 OFFCURVE",
"403 375 CURVE SMOOTH",
"462 337 OFFCURVE",
"491 283 OFFCURVE",
"491 213 CURVE SMOOTH",
"491 153 OFFCURVE",
"471 101 OFFCURVE",
"429 55 CURVE SMOOTH",
"388 10 OFFCURVE",
"338 -12 OFFCURVE",
"278 -12 CURVE SMOOTH",
"212 -12 OFFCURVE",
"164 -2 OFFCURVE",
"135 21 CURVE SMOOTH",
"101 46 OFFCURVE",
"85 92 OFFCURVE",
"85 156 CURVE SMOOTH",
"85 197 OFFCURVE",
"95 233 OFFCURVE",
"116 264 CURVE SMOOTH",
"140 299 OFFCURVE",
"173 317 OFFCURVE",
"212 317 CURVE SMOOTH",
"262 317 OFFCURVE",
"287 304 OFFCURVE",
"287 279 CURVE SMOOTH",
"287 268 OFFCURVE",
"283 256 OFFCURVE",
"275 243 CURVE SMOOTH",
"267 230 OFFCURVE",
"258 223 OFFCURVE",
"248 223 CURVE SMOOTH",
"241 223 OFFCURVE",
"233 226 OFFCURVE",
"224 232 CURVE SMOOTH",
"215 238 OFFCURVE",
"209 240 OFFCURVE",
"207 240 CURVE SMOOTH",
"200 240 OFFCURVE",
"196 236 OFFCURVE",
"196 228 CURVE SMOOTH",
"196 222 OFFCURVE",
"203 215 OFFCURVE",
"218 208 CURVE SMOOTH",
"230 202 OFFCURVE",
"241 199 OFFCURVE",
"248 199 CURVE SMOOTH",
"265 199 OFFCURVE",
"280 208 OFFCURVE",
"292 226 CURVE SMOOTH",
"304 244 OFFCURVE",
"311 262 OFFCURVE",
"311 279 CURVE SMOOTH",
"311 321 OFFCURVE",
"278 341 OFFCURVE",
"212 341 CURVE SMOOTH",
"165 341 OFFCURVE",
"122 320 OFFCURVE",
"84 278 CURVE SMOOTH",
"46 236 OFFCURVE",
"27 192 OFFCURVE",
"27 145 CURVE SMOOTH",
"27 75 OFFCURVE",
"53 25 OFFCURVE",
"104 -3 CURVE SMOOTH",
"143 -25 OFFCURVE",
"201 -36 OFFCURVE",
"278 -36 CURVE SMOOTH"
);
}
);
};
guideLines = (
{
angle = 90;
position = "{297, 376}";
},
{
angle = 90;
position = "{85, 376}";
},
{
angle = 90;
position = "{491, 376}";
}
);
layerId = "A20F32D1-A37C-460A-962C-541C205D5E83";
paths = (
{
closed = 1;
nodes = (
"344 -36 OFFCURVE",
"402 -11 OFFCURVE",
"452 40 CURVE SMOOTH",
"502 90 OFFCURVE",
"527 148 OFFCURVE",
"527 214 CURVE SMOOTH",
"527 291 OFFCURVE",
"499 350 OFFCURVE",
"441 393 CURVE SMOOTH",
"389 431 OFFCURVE",
"325 450 OFFCURVE",
"247 450 CURVE SMOOTH",
"188 450 OFFCURVE",
"138 435 OFFCURVE",
"98 403 CURVE SMOOTH",
"54 369 OFFCURVE",
"32 322 OFFCURVE",
"32 264 CURVE SMOOTH",
"32 259 OFFCURVE",
"33 257 OFFCURVE",
"36 257 CURVE SMOOTH",
"43 257 OFFCURVE",
"46 263 OFFCURVE",
"46 275 CURVE SMOOTH",
"46 320 OFFCURVE",
"64 356 OFFCURVE",
"100 384 CURVE SMOOTH",
"133 411 OFFCURVE",
"172 425 OFFCURVE",
"218 425 CURVE SMOOTH",
"291 425 OFFCURVE",
"353 408 OFFCURVE",
"403 375 CURVE SMOOTH",
"462 337 OFFCURVE",
"491 283 OFFCURVE",
"491 213 CURVE SMOOTH",
"491 153 OFFCURVE",
"471 101 OFFCURVE",
"429 55 CURVE SMOOTH",
"388 10 OFFCURVE",
"338 -12 OFFCURVE",
"278 -12 CURVE SMOOTH",
"212 -12 OFFCURVE",
"164 -2 OFFCURVE",
"135 21 CURVE SMOOTH",
"101 46 OFFCURVE",
"85 92 OFFCURVE",
"85 156 CURVE SMOOTH",
"85 197 OFFCURVE",
"95 233 OFFCURVE",
"116 264 CURVE SMOOTH",
"140 299 OFFCURVE",
"173 317 OFFCURVE",
"212 317 CURVE SMOOTH",
"262 317 OFFCURVE",
"287 304 OFFCURVE",
"287 279 CURVE SMOOTH",
"287 268 OFFCURVE",
"283 256 OFFCURVE",
"275 243 CURVE SMOOTH",
"267 230 OFFCURVE",
"258 223 OFFCURVE",
"248 223 CURVE SMOOTH",
"241 223 OFFCURVE",
"233 226 OFFCURVE",
"224 232 CURVE SMOOTH",
"215 238 OFFCURVE",
"209 240 OFFCURVE",
"207 240 CURVE SMOOTH",
"200 240 OFFCURVE",
"196 236 OFFCURVE",
"196 228 CURVE SMOOTH",
"196 222 OFFCURVE",
"203 215 OFFCURVE",
"218 208 CURVE SMOOTH",
"230 202 OFFCURVE",
"241 199 OFFCURVE",
"248 199 CURVE SMOOTH",
"265 199 OFFCURVE",
"280 208 OFFCURVE",
"292 226 CURVE SMOOTH",
"304 244 OFFCURVE",
"311 262 OFFCURVE",
"311 279 CURVE SMOOTH",
"311 321 OFFCURVE",
"278 341 OFFCURVE",
"212 341 CURVE SMOOTH",
"165 341 OFFCURVE",
"122 320 OFFCURVE",
"84 278 CURVE SMOOTH",
"46 236 OFFCURVE",
"27 192 OFFCURVE",
"27 145 CURVE SMOOTH",
"27 75 OFFCURVE",
"53 25 OFFCURVE",
"104 -3 CURVE SMOOTH",
"143 -25 OFFCURVE",
"201 -36 OFFCURVE",
"278 -36 CURVE SMOOTH"
);
}
);
width = 554;
}
);
note = O;
unicode = 004F;
},
{
glyphname = Oslash;
lastChange = "2021-11-14 00:37:04 +0000";
layers = (
{
anchors = (
{
name = bottom;
position = "{277, 0}";
},
{
name = top;
position = "{277, 449}";
}
);
background = {
paths = (
{
closed = 1;
nodes = (
"376 -96 OFFCURVE",
"445 -77 OFFCURVE",
"499 -39 CURVE SMOOTH",
"559 5 OFFCURVE",
"590 66 OFFCURVE",
"590 147 CURVE SMOOTH",
"590 248 OFFCURVE",
"534 337 OFFCURVE",
"424 414 CURVE",
"449 423 OFFCURVE",
"469 428 OFFCURVE",
"486 429 CURVE SMOOTH",
"499 431 OFFCURVE",
"507 431 OFFCURVE",
"511 431 CURVE",
"530 434 OFFCURVE",
"539 439 OFFCURVE",
"539 446 CURVE SMOOTH",
"539 459 OFFCURVE",
"523 466 OFFCURVE",
"491 466 CURVE SMOOTH",
"462 466 OFFCURVE",
"425 458 OFFCURVE",
"381 442 CURVE",
"313 481 OFFCURVE",
"249 501 OFFCURVE",
"190 501 CURVE SMOOTH",
"97 501 OFFCURVE",
"50 454 OFFCURVE",
"50 362 CURVE SMOOTH",
"50 312 OFFCURVE",
"60 272 OFFCURVE",
"78 243 CURVE",
"31 186 OFFCURVE",
"7 134 OFFCURVE",
"7 89 CURVE SMOOTH",
"7 26 OFFCURVE",
"41 -23 OFFCURVE",
"108 -57 CURVE SMOOTH",
"161 -83 OFFCURVE",
"223 -96 OFFCURVE",
"293 -96 CURVE SMOOTH"
);
},
{
closed = 1;
nodes = (
"255 -73 OFFCURVE",
"202 -62 OFFCURVE",
"155 -40 CURVE SMOOTH",
"94 -13 OFFCURVE",
"64 27 OFFCURVE",
"64 78 CURVE SMOOTH",
"64 115 OFFCURVE",
"80 156 OFFCURVE",
"113 201 CURVE",
"166 155 OFFCURVE",
"228 132 OFFCURVE",
"300 132 CURVE SMOOTH",
"367 132 OFFCURVE",
"414 155 OFFCURVE",
"442 200 CURVE SMOOTH",
"451 214 OFFCURVE",
"455 228 OFFCURVE",
"455 242 CURVE SMOOTH",
"455 255 OFFCURVE",
"452 261 OFFCURVE",
"445 261 CURVE SMOOTH",
"434 261 OFFCURVE",
"424 248 OFFCURVE",
"413 222 CURVE SMOOTH",
"402 195 OFFCURVE",
"386 177 OFFCURVE",
"365 168 CURVE SMOOTH",
"349 160 OFFCURVE",
"325 157 OFFCURVE",
"293 157 CURVE SMOOTH",
"230 157 OFFCURVE",
"176 179 OFFCURVE",
"132 224 CURVE",
"194 296 OFFCURVE",
"272 352 OFFCURVE",
"367 393 CURVE",
"419 361 OFFCURVE",
"462 325 OFFCURVE",
"496 283 CURVE SMOOTH",
"537 232 OFFCURVE",
"557 181 OFFCURVE",
"557 129 CURVE SMOOTH",
"557 61 OFFCURVE",
"532 10 OFFCURVE",
"483 -26 CURVE SMOOTH",
"441 -57 OFFCURVE",
"384 -73 OFFCURVE",
"312 -73 CURVE SMOOTH"
);
},
{
closed = 1;
nodes = (
"84 295 OFFCURVE",
"77 326 OFFCURVE",
"77 362 CURVE SMOOTH",
"77 423 OFFCURVE",
"111 454 OFFCURVE",
"179 454 CURVE SMOOTH",
"222 454 OFFCURVE",
"269 442 OFFCURVE",
"321 418 CURVE",
"227 374 OFFCURVE",
"153 324 OFFCURVE",
"100 268 CURVE"
);
}
);
};
components = (
{
name = O;
},
{
name = slash;
transform = "{0.86782, 0, 0, 0.86782, 81, -40}";
}
);
layerId = "A20F32D1-A37C-460A-962C-541C205D5E83";
width = 554;
}
);
note = Oslash;
unicode = 00D8;
},
{
glyphname = OE;
lastChange = "2021-11-13 23:22:35 +0000";
layers = (
{
background = {
paths = (
{
closed = 1;
nodes = (
"659 -87 OFFCURVE",
"707 -74 OFFCURVE",
"750 -48 CURVE SMOOTH",
"800 -17 OFFCURVE",
"824 22 OFFCURVE",
"824 70 CURVE SMOOTH",
"824 99 OFFCURVE",
"817 122 OFFCURVE",
"801 139 CURVE SMOOTH",
"785 156 OFFCURVE",
"763 164 OFFCURVE",
"734 164 CURVE SMOOTH",
"699 164 OFFCURVE",
"668 155 OFFCURVE",
"642 138 CURVE SMOOTH",
"611 117 OFFCURVE",
"596 90 OFFCURVE",
"596 57 CURVE SMOOTH",
"596 20 OFFCURVE",
"614 1 OFFCURVE",
"652 1 CURVE SMOOTH",
"664 1 OFFCURVE",
"675 5 OFFCURVE",
"685 12 CURVE SMOOTH",
"694 19 OFFCURVE",
"699 28 OFFCURVE",
"699 40 CURVE SMOOTH",
"699 45 OFFCURVE",
"698 51 OFFCURVE",
"694 58 CURVE SMOOTH",
"690 65 OFFCURVE",
"686 69 OFFCURVE",
"682 69 CURVE SMOOTH",
"678 69 OFFCURVE",
"676 66 OFFCURVE",
"676 62 CURVE SMOOTH",
"676 60 OFFCURVE",
"677 58 OFFCURVE",
"678 55 CURVE SMOOTH",
"679 52 OFFCURVE",
"680 50 OFFCURVE",
"680 48 CURVE SMOOTH",
"680 33 OFFCURVE",
"670 25 OFFCURVE",
"652 25 CURVE SMOOTH",
"640 25 OFFCURVE",
"634 34 OFFCURVE",
"634 51 CURVE SMOOTH",
"634 77 OFFCURVE",
"645 98 OFFCURVE",
"666 115 CURVE SMOOTH",
"686 131 OFFCURVE",
"709 140 OFFCURVE",
"734 140 CURVE SMOOTH",
"745 140 OFFCURVE",
"757 131 OFFCURVE",
"769 115 CURVE SMOOTH",
"781 98 OFFCURVE",
"787 84 OFFCURVE",
"787 73 CURVE SMOOTH",
"787 31 OFFCURVE",
"767 -3 OFFCURVE",
"727 -29 CURVE SMOOTH",
"693 -51 OFFCURVE",
"653 -62 OFFCURVE",
"608 -62 CURVE SMOOTH",
"516 -62 OFFCURVE",
"466 -26 OFFCURVE",
"459 46 CURVE",
"505 96 OFFCURVE",
"527 152 OFFCURVE",
"527 214 CURVE SMOOTH",
"527 225 OFFCURVE",
"527 235 OFFCURVE",
"526 245 CURVE",
"544 227 OFFCURVE",
"569 218 OFFCURVE",
"599 218 CURVE SMOOTH",
"689 218 OFFCURVE",
"734 236 OFFCURVE",
"734 271 CURVE SMOOTH",
"734 288 OFFCURVE",
"726 301 OFFCURVE",
"708 312 CURVE SMOOTH",
"693 320 OFFCURVE",
"677 325 OFFCURVE",
"659 325 CURVE SMOOTH",
"614 325 OFFCURVE",
"572 313 OFFCURVE",
"533 290 CURVE",
"526 310 OFFCURVE",
"522 333 OFFCURVE",
"522 360 CURVE SMOOTH",
"522 401 OFFCURVE",
"540 440 OFFCURVE",
"575 476 CURVE SMOOTH",
"611 513 OFFCURVE",
"649 531 OFFCURVE",
"689 531 CURVE SMOOTH",
"709 531 OFFCURVE",
"727 525 OFFCURVE",
"743 513 CURVE SMOOTH",
"760 501 OFFCURVE",
"769 486 OFFCURVE",
"769 467 CURVE SMOOTH",
"769 453 OFFCURVE",
"762 441 OFFCURVE",
"748 429 CURVE SMOOTH",
"733 418 OFFCURVE",
"726 411 OFFCURVE",
"726 407 CURVE SMOOTH",
"726 402 OFFCURVE",
"729 399 OFFCURVE",
"734 399 CURVE SMOOTH",
"749 399 OFFCURVE",
"763 406 OFFCURVE",
"778 422 CURVE SMOOTH",
"792 437 OFFCURVE",
"799 452 OFFCURVE",
"799 466 CURVE SMOOTH",
"799 492 OFFCURVE",
"787 513 OFFCURVE",
"761 531 CURVE SMOOTH",
"739 547 OFFCURVE",
"714 555 OFFCURVE",
"688 555 CURVE SMOOTH",
"632 555 OFFCURVE",
"583 537 OFFCURVE",
"540 501 CURVE SMOOTH",
"497 464 OFFCURVE",
"475 418 OFFCURVE",
"473 364 CURVE",
"420 421 OFFCURVE",
"344 450 OFFCURVE",
"247 450 CURVE SMOOTH",
"186 450 OFFCURVE",
"136 435 OFFCURVE",
"96 403 CURVE SMOOTH",
"53 369 OFFCURVE",
"32 323 OFFCURVE",
"32 264 CURVE SMOOTH",
"32 259 OFFCURVE",
"33 257 OFFCURVE",
"36 257 CURVE SMOOTH",
"43 257 OFFCURVE",
"46 263 OFFCURVE",
"46 275 CURVE SMOOTH",
"46 320 OFFCURVE",
"64 356 OFFCURVE",
"100 384 CURVE SMOOTH",
"133 411 OFFCURVE",
"172 425 OFFCURVE",
"218 425 CURVE SMOOTH",
"291 425 OFFCURVE",
"353 408 OFFCURVE",
"403 375 CURVE SMOOTH",
"462 337 OFFCURVE",
"491 283 OFFCURVE",
"491 213 CURVE SMOOTH",
"491 153 OFFCURVE",
"471 101 OFFCURVE",
"429 55 CURVE SMOOTH",
"388 10 OFFCURVE",
"338 -12 OFFCURVE",
"278 -12 CURVE SMOOTH",
"212 -12 OFFCURVE",
"164 -2 OFFCURVE",
"135 21 CURVE SMOOTH",
"101 46 OFFCURVE",
"85 92 OFFCURVE",
"85 156 CURVE SMOOTH",
"85 197 OFFCURVE",
"95 233 OFFCURVE",
"116 264 CURVE SMOOTH",
"140 299 OFFCURVE",
"173 317 OFFCURVE",
"212 317 CURVE SMOOTH",
"262 317 OFFCURVE",
"287 304 OFFCURVE",
"287 279 CURVE SMOOTH",
"287 269 OFFCURVE",
"283 257 OFFCURVE",
"275 244 CURVE SMOOTH",
"266 230 OFFCURVE",
"257 223 OFFCURVE",
"248 223 CURVE SMOOTH",
"242 223 OFFCURVE",
"234 226 OFFCURVE",
"225 232 CURVE SMOOTH",
"215 238 OFFCURVE",
"209 240 OFFCURVE",
"207 240 CURVE SMOOTH",
"200 240 OFFCURVE",
"196 236 OFFCURVE",
"196 228 CURVE SMOOTH",
"196 221 OFFCURVE",
"203 215 OFFCURVE",
"216 208 CURVE SMOOTH",
"229 202 OFFCURVE",
"240 199 OFFCURVE",
"248 199 CURVE SMOOTH",
"265 199 OFFCURVE",
"280 208 OFFCURVE",
"292 226 CURVE SMOOTH",
"304 244 OFFCURVE",
"311 262 OFFCURVE",
"311 279 CURVE SMOOTH",
"311 321 OFFCURVE",
"278 341 OFFCURVE",
"212 341 CURVE SMOOTH",
"165 341 OFFCURVE",
"122 320 OFFCURVE",
"84 278 CURVE SMOOTH",
"46 236 OFFCURVE",
"27 192 OFFCURVE",
"27 145 CURVE SMOOTH",
"27 75 OFFCURVE",
"53 25 OFFCURVE",
"104 -3 CURVE SMOOTH",
"143 -25 OFFCURVE",
"201 -36 OFFCURVE",
"278 -36 CURVE SMOOTH",
"328 -36 OFFCURVE",
"374 -20 OFFCURVE",
"418 11 CURVE",
"439 -55 OFFCURVE",
"502 -87 OFFCURVE",
"608 -87 CURVE SMOOTH"
);
},
{
closed = 1;
nodes = (
"582 237 OFFCURVE",
"561 247 OFFCURVE",
"546 267 CURVE",
"577 293 OFFCURVE",
"612 306 OFFCURVE",
"651 306 CURVE SMOOTH",
"665 306 OFFCURVE",
"672 298 OFFCURVE",
"672 283 CURVE SMOOTH",
"672 268 OFFCURVE",
"666 257 OFFCURVE",
"653 249 CURVE SMOOTH",
"639 241 OFFCURVE",
"625 237 OFFCURVE",
"609 237 CURVE SMOOTH"
);
}
);
};
layerId = "A20F32D1-A37C-460A-962C-541C205D5E83";
paths = (
{
closed = 1;
nodes = (
"659 -87 OFFCURVE",
"707 -74 OFFCURVE",
"750 -48 CURVE SMOOTH",
"800 -17 OFFCURVE",
"824 22 OFFCURVE",
"824 70 CURVE SMOOTH",
"824 99 OFFCURVE",
"817 122 OFFCURVE",
"801 139 CURVE SMOOTH",
"785 156 OFFCURVE",
"763 164 OFFCURVE",
"734 164 CURVE SMOOTH",
"699 164 OFFCURVE",
"668 155 OFFCURVE",
"642 138 CURVE SMOOTH",
"611 117 OFFCURVE",
"596 90 OFFCURVE",
"596 57 CURVE SMOOTH",
"596 20 OFFCURVE",
"614 1 OFFCURVE",
"652 1 CURVE SMOOTH",
"664 1 OFFCURVE",
"675 5 OFFCURVE",
"685 12 CURVE SMOOTH",
"694 19 OFFCURVE",
"699 28 OFFCURVE",
"699 40 CURVE SMOOTH",
"699 45 OFFCURVE",
"698 51 OFFCURVE",
"694 58 CURVE SMOOTH",
"690 65 OFFCURVE",
"686 69 OFFCURVE",
"682 69 CURVE SMOOTH",
"678 69 OFFCURVE",
"676 66 OFFCURVE",
"676 62 CURVE SMOOTH",
"676 60 OFFCURVE",
"677 58 OFFCURVE",
"678 55 CURVE SMOOTH",
"679 52 OFFCURVE",
"680 50 OFFCURVE",
"680 48 CURVE SMOOTH",
"680 33 OFFCURVE",
"670 25 OFFCURVE",
"652 25 CURVE SMOOTH",
"640 25 OFFCURVE",
"634 34 OFFCURVE",
"634 51 CURVE SMOOTH",
"634 77 OFFCURVE",
"645 98 OFFCURVE",
"666 115 CURVE SMOOTH",
"686 131 OFFCURVE",
"709 140 OFFCURVE",
"734 140 CURVE SMOOTH",
"745 140 OFFCURVE",
"757 131 OFFCURVE",
"769 115 CURVE SMOOTH",
"781 98 OFFCURVE",
"787 84 OFFCURVE",
"787 73 CURVE SMOOTH",
"787 31 OFFCURVE",
"767 -3 OFFCURVE",
"727 -29 CURVE SMOOTH",
"693 -51 OFFCURVE",
"653 -62 OFFCURVE",
"608 -62 CURVE SMOOTH",
"516 -62 OFFCURVE",
"466 -26 OFFCURVE",
"459 46 CURVE",
"505 96 OFFCURVE",
"527 152 OFFCURVE",
"527 214 CURVE SMOOTH",
"527 225 OFFCURVE",
"527 235 OFFCURVE",
"526 245 CURVE",
"544 227 OFFCURVE",
"569 218 OFFCURVE",
"599 218 CURVE SMOOTH",
"689 218 OFFCURVE",
"734 236 OFFCURVE",
"734 271 CURVE SMOOTH",
"734 288 OFFCURVE",
"726 301 OFFCURVE",
"708 312 CURVE SMOOTH",
"693 320 OFFCURVE",
"677 325 OFFCURVE",
"659 325 CURVE SMOOTH",
"614 325 OFFCURVE",
"572 313 OFFCURVE",
"533 290 CURVE",
"526 310 OFFCURVE",
"522 333 OFFCURVE",
"522 360 CURVE SMOOTH",
"522 401 OFFCURVE",
"540 440 OFFCURVE",
"575 476 CURVE SMOOTH",
"611 513 OFFCURVE",
"649 531 OFFCURVE",
"689 531 CURVE SMOOTH",
"709 531 OFFCURVE",
"727 525 OFFCURVE",
"743 513 CURVE SMOOTH",
"760 501 OFFCURVE",
"769 486 OFFCURVE",
"769 467 CURVE SMOOTH",
"769 453 OFFCURVE",
"762 441 OFFCURVE",
"748 429 CURVE SMOOTH",
"733 418 OFFCURVE",
"726 411 OFFCURVE",
"726 407 CURVE SMOOTH",
"726 402 OFFCURVE",
"729 399 OFFCURVE",
"734 399 CURVE SMOOTH",
"749 399 OFFCURVE",
"763 406 OFFCURVE",
"778 422 CURVE SMOOTH",
"792 437 OFFCURVE",
"799 452 OFFCURVE",
"799 466 CURVE SMOOTH",
"799 492 OFFCURVE",
"787 513 OFFCURVE",
"761 531 CURVE SMOOTH",
"739 547 OFFCURVE",
"714 555 OFFCURVE",
"688 555 CURVE SMOOTH",
"632 555 OFFCURVE",
"583 537 OFFCURVE",
"540 501 CURVE SMOOTH",
"497 464 OFFCURVE",
"475 418 OFFCURVE",
"473 364 CURVE",
"420 421 OFFCURVE",
"344 450 OFFCURVE",
"247 450 CURVE SMOOTH",
"186 450 OFFCURVE",
"136 435 OFFCURVE",
"96 403 CURVE SMOOTH",
"53 369 OFFCURVE",
"32 323 OFFCURVE",
"32 264 CURVE SMOOTH",
"32 259 OFFCURVE",
"33 257 OFFCURVE",
"36 257 CURVE SMOOTH",
"43 257 OFFCURVE",
"46 263 OFFCURVE",
"46 275 CURVE SMOOTH",
"46 320 OFFCURVE",
"64 356 OFFCURVE",
"100 384 CURVE SMOOTH",
"133 411 OFFCURVE",
"172 425 OFFCURVE",
"218 425 CURVE SMOOTH",
"291 425 OFFCURVE",
"353 408 OFFCURVE",
"403 375 CURVE SMOOTH",
"462 337 OFFCURVE",
"491 283 OFFCURVE",
"491 213 CURVE SMOOTH",
"491 153 OFFCURVE",
"471 101 OFFCURVE",
"429 55 CURVE SMOOTH",
"388 10 OFFCURVE",
"338 -12 OFFCURVE",
"278 -12 CURVE SMOOTH",
"212 -12 OFFCURVE",
"164 -2 OFFCURVE",
"135 21 CURVE SMOOTH",
"101 46 OFFCURVE",
"85 92 OFFCURVE",
"85 156 CURVE SMOOTH",
"85 197 OFFCURVE",
"95 233 OFFCURVE",
"116 264 CURVE SMOOTH",
"140 299 OFFCURVE",
"173 317 OFFCURVE",
"212 317 CURVE SMOOTH",
"262 317 OFFCURVE",
"287 304 OFFCURVE",
"287 279 CURVE SMOOTH",
"287 269 OFFCURVE",
"283 257 OFFCURVE",
"275 244 CURVE SMOOTH",
"266 230 OFFCURVE",
"257 223 OFFCURVE",
"248 223 CURVE SMOOTH",
"242 223 OFFCURVE",
"234 226 OFFCURVE",
"225 232 CURVE SMOOTH",
"215 238 OFFCURVE",
"209 240 OFFCURVE",
"207 240 CURVE SMOOTH",
"200 240 OFFCURVE",
"196 236 OFFCURVE",
"196 228 CURVE SMOOTH",
"196 221 OFFCURVE",
"203 215 OFFCURVE",
"216 208 CURVE SMOOTH",
"229 202 OFFCURVE",
"240 199 OFFCURVE",
"248 199 CURVE SMOOTH",
"265 199 OFFCURVE",
"280 208 OFFCURVE",
"292 226 CURVE SMOOTH",
"304 244 OFFCURVE",
"311 262 OFFCURVE",
"311 279 CURVE SMOOTH",
"311 321 OFFCURVE",
"278 341 OFFCURVE",
"212 341 CURVE SMOOTH",
"165 341 OFFCURVE",
"122 320 OFFCURVE",
"84 278 CURVE SMOOTH",
"46 236 OFFCURVE",
"27 192 OFFCURVE",
"27 145 CURVE SMOOTH",
"27 75 OFFCURVE",
"53 25 OFFCURVE",
"104 -3 CURVE SMOOTH",
"143 -25 OFFCURVE",
"201 -36 OFFCURVE",
"278 -36 CURVE SMOOTH",
"328 -36 OFFCURVE",
"374 -20 OFFCURVE",
"418 11 CURVE",
"439 -55 OFFCURVE",
"502 -87 OFFCURVE",
"608 -87 CURVE SMOOTH"
);
},
{
closed = 1;
nodes = (
"582 237 OFFCURVE",
"561 247 OFFCURVE",
"546 267 CURVE",
"577 293 OFFCURVE",
"612 306 OFFCURVE",
"651 306 CURVE SMOOTH",
"665 306 OFFCURVE",
"672 298 OFFCURVE",
"672 283 CURVE SMOOTH",
"672 268 OFFCURVE",
"666 257 OFFCURVE",
"653 249 CURVE SMOOTH",
"639 241 OFFCURVE",
"625 237 OFFCURVE",
"609 237 CURVE SMOOTH"
);
}
);
width = 824;
}
);
note = OE;
unicode = 0152;
},
{
glyphname = P;
lastChange = "2021-11-13 23:22:35 +0000";
layers = (
{
background = {
paths = (
{
closed = 1;
nodes = (
"227 -146 OFFCURVE",
"240 -134 OFFCURVE",
"254 -110 CURVE SMOOTH",
"266 -88 OFFCURVE",
"273 -70 OFFCURVE",
"273 -55 CURVE SMOOTH",
"273 -48 OFFCURVE",
"271 -45 OFFCURVE",
"268 -45 CURVE",
"244 -83 LINE SMOOTH",
"229 -108 OFFCURVE",
"218 -121 OFFCURVE",
"210 -121 CURVE",
"203 -100 OFFCURVE",
"200 -67 OFFCURVE",
"200 -22 CURVE SMOOTH",
"200 57 OFFCURVE",
"208 141 OFFCURVE",
"223 230 CURVE",
"256 246 OFFCURVE",
"286 269 OFFCURVE",
"315 299 CURVE SMOOTH",
"349 334 OFFCURVE",
"365 367 OFFCURVE",
"365 396 CURVE SMOOTH",
"365 402 OFFCURVE",
"364 410 OFFCURVE",
"361 419 CURVE SMOOTH",
"357 430 OFFCURVE",
"353 436 OFFCURVE",
"349 436 CURVE SMOOTH",
"347 436 OFFCURVE",
"346 432 OFFCURVE",
"346 426 CURVE SMOOTH",
"346 414 LINE SMOOTH",
"346 361 OFFCURVE",
"308 313 OFFCURVE",
"231 270 CURVE",
"249 366 OFFCURVE",
"280 434 OFFCURVE",
"324 474 CURVE SMOOTH",
"336 485 OFFCURVE",
"342 493 OFFCURVE",
"342 497 CURVE SMOOTH",
"342 499 OFFCURVE",
"340 501 OFFCURVE",
"335 501 CURVE SMOOTH",
"326 501 OFFCURVE",
"316 496 OFFCURVE",
"302 489 CURVE SMOOTH",
"232 449 OFFCURVE",
"190 366 OFFCURVE",
"176 240 CURVE",
"168 234 OFFCURVE",
"152 228 OFFCURVE",
"129 222 CURVE SMOOTH",
"105 216 OFFCURVE",
"87 213 OFFCURVE",
"75 213 CURVE SMOOTH",
"50 213 OFFCURVE",
"38 227 OFFCURVE",
"38 255 CURVE SMOOTH",
"38 278 OFFCURVE",
"46 306 OFFCURVE",
"62 338 CURVE SMOOTH",
"98 407 OFFCURVE",
"145 462 OFFCURVE",
"204 501 CURVE SMOOTH",
"266 542 OFFCURVE",
"335 563 OFFCURVE",
"411 563 CURVE SMOOTH",
"501 563 OFFCURVE",
"546 525 OFFCURVE",
"546 450 CURVE SMOOTH",
"546 435 OFFCURVE",
"544 418 OFFCURVE",
"540 400 CURVE SMOOTH",
"518 304 OFFCURVE",
"466 222 OFFCURVE",
"384 156 CURVE SMOOTH",
"329 111 OFFCURVE",
"286 88 OFFCURVE",
"255 88 CURVE SMOOTH",
"247 88 OFFCURVE",
"239 89 OFFCURVE",
"231 91 CURVE",
"231 96 LINE SMOOTH",
"231 105 OFFCURVE",
"237 113 OFFCURVE",
"248 122 CURVE SMOOTH",
"260 130 OFFCURVE",
"266 136 OFFCURVE",
"266 140 CURVE SMOOTH",
"266 143 OFFCURVE",
"264 144 OFFCURVE",
"260 144 CURVE SMOOTH",
"249 144 OFFCURVE",
"239 139 OFFCURVE",
"228 128 CURVE SMOOTH",
"218 118 OFFCURVE",
"212 107 OFFCURVE",
"212 96 CURVE SMOOTH",
"212 86 OFFCURVE",
"218 77 OFFCURVE",
"229 70 CURVE SMOOTH",
"238 64 OFFCURVE",
"248 60 OFFCURVE",
"259 60 CURVE SMOOTH",
"309 60 OFFCURVE",
"378 101 OFFCURVE",
"466 180 CURVE SMOOTH",
"498 209 OFFCURVE",
"527 246 OFFCURVE",
"553 293 CURVE SMOOTH",
"581 344 OFFCURVE",
"595 389 OFFCURVE",
"595 427 CURVE SMOOTH",
"595 474 OFFCURVE",
"572 513 OFFCURVE",
"526 543 CURVE SMOOTH",
"485 569 OFFCURVE",
"440 582 OFFCURVE",
"391 582 CURVE SMOOTH",
"311 582 OFFCURVE",
"235 557 OFFCURVE",
"164 505 CURVE SMOOTH",
"93 453 OFFCURVE",
"44 389 OFFCURVE",
"18 313 CURVE SMOOTH",
"13 299 OFFCURVE",
"11 285 OFFCURVE",
"11 270 CURVE SMOOTH",
"11 219 OFFCURVE",
"38 194 OFFCURVE",
"91 194 CURVE SMOOTH",
"96 194 OFFCURVE",
"123 198 OFFCURVE",
"170 208 CURVE",
"161 129 OFFCURVE",
"156 59 OFFCURVE",
"156 -4 CURVE SMOOTH",
"156 -55 OFFCURVE",
"158 -89 OFFCURVE",
"163 -108 CURVE SMOOTH",
"165 -117 OFFCURVE",
"172 -125 OFFCURVE",
"183 -134 CURVE SMOOTH",
"194 -142 OFFCURVE",
"204 -146 OFFCURVE",
"213 -146 CURVE SMOOTH"
);
}
);
};
layerId = "A20F32D1-A37C-460A-962C-541C205D5E83";
paths = (
{
closed = 1;
nodes = (
"227 -146 OFFCURVE",
"240 -134 OFFCURVE",
"254 -110 CURVE SMOOTH",
"266 -88 OFFCURVE",
"273 -70 OFFCURVE",
"273 -55 CURVE SMOOTH",
"273 -48 OFFCURVE",
"271 -45 OFFCURVE",
"268 -45 CURVE",
"244 -83 LINE SMOOTH",
"229 -108 OFFCURVE",
"218 -121 OFFCURVE",
"210 -121 CURVE",
"203 -100 OFFCURVE",
"200 -67 OFFCURVE",
"200 -22 CURVE SMOOTH",
"200 57 OFFCURVE",
"208 141 OFFCURVE",
"223 230 CURVE",
"256 246 OFFCURVE",
"286 269 OFFCURVE",
"315 299 CURVE SMOOTH",
"349 334 OFFCURVE",
"365 367 OFFCURVE",
"365 396 CURVE SMOOTH",
"365 402 OFFCURVE",
"364 410 OFFCURVE",
"361 419 CURVE SMOOTH",
"357 430 OFFCURVE",
"353 436 OFFCURVE",
"349 436 CURVE SMOOTH",
"347 436 OFFCURVE",
"346 432 OFFCURVE",
"346 426 CURVE SMOOTH",
"346 414 LINE SMOOTH",
"346 361 OFFCURVE",
"308 313 OFFCURVE",
"231 270 CURVE",
"249 366 OFFCURVE",
"280 434 OFFCURVE",
"324 474 CURVE SMOOTH",
"336 485 OFFCURVE",
"342 493 OFFCURVE",
"342 497 CURVE SMOOTH",
"342 499 OFFCURVE",
"340 501 OFFCURVE",
"335 501 CURVE SMOOTH",
"326 501 OFFCURVE",
"316 496 OFFCURVE",
"302 489 CURVE SMOOTH",
"232 449 OFFCURVE",
"190 366 OFFCURVE",
"176 240 CURVE",
"168 234 OFFCURVE",
"152 228 OFFCURVE",
"129 222 CURVE SMOOTH",
"105 216 OFFCURVE",
"87 213 OFFCURVE",
"75 213 CURVE SMOOTH",
"50 213 OFFCURVE",
"38 227 OFFCURVE",
"38 255 CURVE SMOOTH",
"38 278 OFFCURVE",
"46 306 OFFCURVE",
"62 338 CURVE SMOOTH",
"98 407 OFFCURVE",
"145 462 OFFCURVE",
"204 501 CURVE SMOOTH",
"266 542 OFFCURVE",
"335 563 OFFCURVE",
"411 563 CURVE SMOOTH",
"501 563 OFFCURVE",
"546 525 OFFCURVE",
"546 450 CURVE SMOOTH",
"546 435 OFFCURVE",
"544 418 OFFCURVE",
"540 400 CURVE SMOOTH",
"518 304 OFFCURVE",
"466 222 OFFCURVE",
"384 156 CURVE SMOOTH",
"329 111 OFFCURVE",
"286 88 OFFCURVE",
"255 88 CURVE SMOOTH",
"247 88 OFFCURVE",
"239 89 OFFCURVE",
"231 91 CURVE",
"231 96 LINE SMOOTH",
"231 105 OFFCURVE",
"237 113 OFFCURVE",
"248 122 CURVE SMOOTH",
"260 130 OFFCURVE",
"266 136 OFFCURVE",
"266 140 CURVE SMOOTH",
"266 143 OFFCURVE",
"264 144 OFFCURVE",
"260 144 CURVE SMOOTH",
"249 144 OFFCURVE",
"239 139 OFFCURVE",
"228 128 CURVE SMOOTH",
"218 118 OFFCURVE",
"212 107 OFFCURVE",
"212 96 CURVE SMOOTH",
"212 86 OFFCURVE",
"218 77 OFFCURVE",
"229 70 CURVE SMOOTH",
"238 64 OFFCURVE",
"248 60 OFFCURVE",
"259 60 CURVE SMOOTH",
"309 60 OFFCURVE",
"378 101 OFFCURVE",
"466 180 CURVE SMOOTH",
"498 209 OFFCURVE",
"527 246 OFFCURVE",
"553 293 CURVE SMOOTH",
"581 344 OFFCURVE",
"595 389 OFFCURVE",
"595 427 CURVE SMOOTH",
"595 474 OFFCURVE",
"572 513 OFFCURVE",
"526 543 CURVE SMOOTH",
"485 569 OFFCURVE",
"440 582 OFFCURVE",
"391 582 CURVE SMOOTH",
"311 582 OFFCURVE",
"235 557 OFFCURVE",
"164 505 CURVE SMOOTH",
"93 453 OFFCURVE",
"44 389 OFFCURVE",
"18 313 CURVE SMOOTH",
"13 299 OFFCURVE",
"11 285 OFFCURVE",
"11 270 CURVE SMOOTH",
"11 219 OFFCURVE",
"38 194 OFFCURVE",
"91 194 CURVE SMOOTH",
"96 194 OFFCURVE",
"123 198 OFFCURVE",
"170 208 CURVE",
"161 129 OFFCURVE",
"156 59 OFFCURVE",
"156 -4 CURVE SMOOTH",
"156 -55 OFFCURVE",
"158 -89 OFFCURVE",
"163 -108 CURVE SMOOTH",
"165 -117 OFFCURVE",
"172 -125 OFFCURVE",
"183 -134 CURVE SMOOTH",
"194 -142 OFFCURVE",
"204 -146 OFFCURVE",
"213 -146 CURVE SMOOTH"
);
}
);
width = 589;
}
);
note = P;
unicode = 0050;
},
{
glyphname = Thorn;
lastChange = "2021-11-13 23:22:35 +0000";
layers = (
{
background = {
paths = (
{
closed = 1;
nodes = (
"227 -245 OFFCURVE",
"240 -233 OFFCURVE",
"254 -209 CURVE SMOOTH",
"266 -187 OFFCURVE",
"273 -169 OFFCURVE",
"273 -154 CURVE SMOOTH",
"273 -147 OFFCURVE",
"271 -144 OFFCURVE",
"268 -144 CURVE",
"244 -182 LINE SMOOTH",
"229 -207 OFFCURVE",
"218 -220 OFFCURVE",
"210 -220 CURVE",
"203 -197 OFFCURVE",
"199 -159 OFFCURVE",
"199 -104 CURVE SMOOTH",
"199 14 LINE SMOOTH",
"199 83 OFFCURVE",
"200 133 OFFCURVE",
"208 178 CURVE",
"234 192 OFFCURVE",
"259 210 OFFCURVE",
"282 234 CURVE SMOOTH",
"309 262 OFFCURVE",
"322 288 OFFCURVE",
"322 312 CURVE SMOOTH",
"322 333 OFFCURVE",
"318 344 OFFCURVE",
"310 344 CURVE SMOOTH",
"307 344 OFFCURVE",
"306 341 OFFCURVE",
"306 335 CURVE SMOOTH",
"306 334 OFFCURVE",
"306 333 OFFCURVE",
"307 331 CURVE",
"307 328 LINE SMOOTH",
"307 285 OFFCURVE",
"276 246 OFFCURVE",
"215 212 CURVE",
"228 281 OFFCURVE",
"247 354 OFFCURVE",
"272 433 CURVE",
"303 443 OFFCURVE",
"332 447 OFFCURVE",
"359 447 CURVE SMOOTH",
"432 447 OFFCURVE",
"469 417 OFFCURVE",
"469 357 CURVE SMOOTH",
"469 315 OFFCURVE",
"456 270 OFFCURVE",
"428 224 CURVE SMOOTH",
"404 183 OFFCURVE",
"374 148 OFFCURVE",
"338 118 CURVE SMOOTH",
"294 82 OFFCURVE",
"259 64 OFFCURVE",
"233 64 CURVE SMOOTH",
"227 64 OFFCURVE",
"221 65 OFFCURVE",
"215 68 CURVE",
"215 70 LINE SMOOTH",
"215 77 OFFCURVE",
"219 84 OFFCURVE",
"229 91 CURVE SMOOTH",
"238 97 OFFCURVE",
"243 102 OFFCURVE",
"243 105 CURVE SMOOTH",
"243 108 OFFCURVE",
"241 110 OFFCURVE",
"238 110 CURVE SMOOTH",
"229 110 OFFCURVE",
"221 106 OFFCURVE",
"212 97 CURVE SMOOTH",
"204 88 OFFCURVE",
"200 80 OFFCURVE",
"200 71 CURVE SMOOTH",
"200 52 OFFCURVE",
"212 42 OFFCURVE",
"238 42 CURVE SMOOTH",
"277 42 OFFCURVE",
"332 74 OFFCURVE",
"403 138 CURVE SMOOTH",
"429 161 OFFCURVE",
"453 191 OFFCURVE",
"474 230 CURVE SMOOTH",
"496 272 OFFCURVE",
"508 308 OFFCURVE",
"508 338 CURVE SMOOTH",
"508 377 OFFCURVE",
"489 408 OFFCURVE",
"452 432 CURVE SMOOTH",
"420 453 OFFCURVE",
"383 463 OFFCURVE",
"343 463 CURVE SMOOTH",
"323 463 OFFCURVE",
"302 460 OFFCURVE",
"281 456 CURVE",
"284 465 OFFCURVE",
"329 554 OFFCURVE",
"349 588 CURVE SMOOTH",
"358 602 OFFCURVE",
"362 614 OFFCURVE",
"362 623 CURVE SMOOTH",
"362 631 OFFCURVE",
"358 637 OFFCURVE",
"353 637 CURVE SMOOTH",
"339 639 OFFCURVE",
"331 634 OFFCURVE",
"320 623 CURVE SMOOTH",
"296 597 OFFCURVE",
"263 535 OFFCURVE",
"231 440 CURVE",
"138 401 OFFCURVE",
"75 336 OFFCURVE",
"42 245 CURVE SMOOTH",
"30 210 OFFCURVE",
"23 189 OFFCURVE",
"23 183 CURVE SMOOTH",
"23 160 OFFCURVE",
"44 149 OFFCURVE",
"84 149 CURVE SMOOTH",
"98 149 OFFCURVE",
"125 153 OFFCURVE",
"166 161 CURVE",
"154 74 OFFCURVE",
"153 -6 OFFCURVE",
"153 -83 CURVE SMOOTH",
"153 -166 OFFCURVE",
"159 -193 OFFCURVE",
"163 -207 CURVE SMOOTH",
"165 -216 OFFCURVE",
"172 -224 OFFCURVE",
"183 -233 CURVE SMOOTH",
"194 -241 OFFCURVE",
"204 -245 OFFCURVE",
"213 -245 CURVE SMOOTH"
);
},
{
closed = 1;
nodes = (
"69 165 OFFCURVE",
"59 176 OFFCURVE",
"59 198 CURVE SMOOTH",
"59 217 OFFCURVE",
"65 239 OFFCURVE",
"79 266 CURVE SMOOTH",
"113 334 OFFCURVE",
"161 383 OFFCURVE",
"221 413 CURVE",
"196 336 OFFCURVE",
"179 261 OFFCURVE",
"171 187 CURVE",
"164 183 OFFCURVE",
"151 178 OFFCURVE",
"132 172 CURVE SMOOTH",
"113 167 OFFCURVE",
"99 165 OFFCURVE",
"89 165 CURVE SMOOTH"
);
}
);
};
layerId = "A20F32D1-A37C-460A-962C-541C205D5E83";
paths = (
{
closed = 1;
nodes = (
"227 -245 OFFCURVE",
"240 -233 OFFCURVE",
"254 -209 CURVE SMOOTH",
"266 -187 OFFCURVE",
"273 -169 OFFCURVE",
"273 -154 CURVE SMOOTH",
"273 -147 OFFCURVE",
"271 -144 OFFCURVE",
"268 -144 CURVE",
"244 -182 LINE SMOOTH",
"229 -207 OFFCURVE",
"218 -220 OFFCURVE",
"210 -220 CURVE",
"203 -197 OFFCURVE",
"199 -159 OFFCURVE",
"199 -104 CURVE SMOOTH",
"199 14 LINE SMOOTH",
"199 83 OFFCURVE",
"200 133 OFFCURVE",
"208 178 CURVE",
"234 192 OFFCURVE",
"259 210 OFFCURVE",
"282 234 CURVE SMOOTH",
"309 262 OFFCURVE",
"322 288 OFFCURVE",
"322 312 CURVE SMOOTH",
"322 333 OFFCURVE",
"318 344 OFFCURVE",
"310 344 CURVE SMOOTH",
"307 344 OFFCURVE",
"306 341 OFFCURVE",
"306 335 CURVE SMOOTH",
"306 334 OFFCURVE",
"306 333 OFFCURVE",
"307 331 CURVE",
"307 328 LINE SMOOTH",
"307 285 OFFCURVE",
"276 246 OFFCURVE",
"215 212 CURVE",
"228 281 OFFCURVE",
"247 354 OFFCURVE",
"272 433 CURVE",
"303 443 OFFCURVE",
"332 447 OFFCURVE",
"359 447 CURVE SMOOTH",
"432 447 OFFCURVE",
"469 417 OFFCURVE",
"469 357 CURVE SMOOTH",
"469 315 OFFCURVE",
"456 270 OFFCURVE",
"428 224 CURVE SMOOTH",
"404 183 OFFCURVE",
"374 148 OFFCURVE",
"338 118 CURVE SMOOTH",
"294 82 OFFCURVE",
"259 64 OFFCURVE",
"233 64 CURVE SMOOTH",
"227 64 OFFCURVE",
"221 65 OFFCURVE",
"215 68 CURVE",
"215 70 LINE SMOOTH",
"215 77 OFFCURVE",
"219 84 OFFCURVE",
"229 91 CURVE SMOOTH",
"238 97 OFFCURVE",
"243 102 OFFCURVE",
"243 105 CURVE SMOOTH",
"243 108 OFFCURVE",
"241 110 OFFCURVE",
"238 110 CURVE SMOOTH",
"229 110 OFFCURVE",
"221 106 OFFCURVE",
"212 97 CURVE SMOOTH",
"204 88 OFFCURVE",
"200 80 OFFCURVE",
"200 71 CURVE SMOOTH",
"200 52 OFFCURVE",
"212 42 OFFCURVE",
"238 42 CURVE SMOOTH",
"277 42 OFFCURVE",
"332 74 OFFCURVE",
"403 138 CURVE SMOOTH",
"429 161 OFFCURVE",
"453 191 OFFCURVE",
"474 230 CURVE SMOOTH",
"496 272 OFFCURVE",
"508 308 OFFCURVE",
"508 338 CURVE SMOOTH",
"508 377 OFFCURVE",
"489 408 OFFCURVE",
"452 432 CURVE SMOOTH",
"420 453 OFFCURVE",
"383 463 OFFCURVE",
"343 463 CURVE SMOOTH",
"323 463 OFFCURVE",
"302 460 OFFCURVE",
"281 456 CURVE",
"284 465 OFFCURVE",
"329 554 OFFCURVE",
"349 588 CURVE SMOOTH",
"358 602 OFFCURVE",
"362 614 OFFCURVE",
"362 623 CURVE SMOOTH",
"362 631 OFFCURVE",
"358 637 OFFCURVE",
"353 637 CURVE SMOOTH",
"339 639 OFFCURVE",
"331 634 OFFCURVE",
"320 623 CURVE SMOOTH",
"296 597 OFFCURVE",
"263 535 OFFCURVE",
"231 440 CURVE",
"138 401 OFFCURVE",
"75 336 OFFCURVE",
"42 245 CURVE SMOOTH",
"30 210 OFFCURVE",
"23 189 OFFCURVE",
"23 183 CURVE SMOOTH",
"23 160 OFFCURVE",
"44 149 OFFCURVE",
"84 149 CURVE SMOOTH",
"98 149 OFFCURVE",
"125 153 OFFCURVE",
"166 161 CURVE",
"154 74 OFFCURVE",
"153 -6 OFFCURVE",
"153 -83 CURVE SMOOTH",
"153 -166 OFFCURVE",
"159 -193 OFFCURVE",
"163 -207 CURVE SMOOTH",
"165 -216 OFFCURVE",
"172 -224 OFFCURVE",
"183 -233 CURVE SMOOTH",
"194 -241 OFFCURVE",
"204 -245 OFFCURVE",
"213 -245 CURVE SMOOTH"
);
},
{
closed = 1;
nodes = (
"69 165 OFFCURVE",
"59 176 OFFCURVE",
"59 198 CURVE SMOOTH",
"59 217 OFFCURVE",
"65 239 OFFCURVE",
"79 266 CURVE SMOOTH",
"113 334 OFFCURVE",
"161 383 OFFCURVE",
"221 413 CURVE",
"196 336 OFFCURVE",
"179 261 OFFCURVE",
"171 187 CURVE",
"164 183 OFFCURVE",
"151 178 OFFCURVE",
"132 172 CURVE SMOOTH",
"113 167 OFFCURVE",
"99 165 OFFCURVE",
"89 165 CURVE SMOOTH"
);
}
);
width = 589;
}
);
note = Thorn;
unicode = 00DE;
},
{
glyphname = Q;
lastChange = "2021-11-13 23:22:35 +0000";
layers = (
{
background = {
paths = (
{
closed = 1;
nodes = (
"533 -217 OFFCURVE",
"556 -210 OFFCURVE",
"575 -197 CURVE SMOOTH",
"597 -182 OFFCURVE",
"608 -162 OFFCURVE",
"608 -137 CURVE SMOOTH",
"608 -118 OFFCURVE",
"598 -100 OFFCURVE",
"578 -83 CURVE SMOOTH",
"559 -66 OFFCURVE",
"539 -58 OFFCURVE",
"519 -58 CURVE SMOOTH",
"498 -58 OFFCURVE",
"487 -68 OFFCURVE",
"487 -90 CURVE SMOOTH",
"487 -97 OFFCURVE",
"490 -106 OFFCURVE",
"495 -118 CURVE SMOOTH",
"501 -131 OFFCURVE",
"506 -139 OFFCURVE",
"511 -139 CURVE SMOOTH",
"515 -139 OFFCURVE",
"518 -136 OFFCURVE",
"518 -130 CURVE SMOOTH",
"518 -125 OFFCURVE",
"516 -119 OFFCURVE",
"512 -111 CURVE SMOOTH",
"509 -102 OFFCURVE",
"507 -96 OFFCURVE",
"507 -91 CURVE SMOOTH",
"507 -84 OFFCURVE",
"509 -81 OFFCURVE",
"515 -81 CURVE SMOOTH",
"525 -81 OFFCURVE",
"537 -87 OFFCURVE",
"550 -100 CURVE SMOOTH",
"563 -113 OFFCURVE",
"570 -125 OFFCURVE",
"570 -135 CURVE SMOOTH",
"570 -154 OFFCURVE",
"564 -169 OFFCURVE",
"552 -180 CURVE SMOOTH",
"540 -192 OFFCURVE",
"525 -198 OFFCURVE",
"507 -198 CURVE SMOOTH",
"464 -198 OFFCURVE",
"427 -175 OFFCURVE",
"398 -130 CURVE SMOOTH",
"391 -120 OFFCURVE",
"371 -79 OFFCURVE",
"340 -8 CURVE",
"386 8 OFFCURVE",
"423 35 OFFCURVE",
"449 73 CURVE SMOOTH",
"476 112 OFFCURVE",
"489 156 OFFCURVE",
"489 205 CURVE SMOOTH",
"489 265 OFFCURVE",
"468 313 OFFCURVE",
"427 351 CURVE SMOOTH",
"386 388 OFFCURVE",
"335 407 OFFCURVE",
"275 407 CURVE SMOOTH",
"207 407 OFFCURVE",
"173 379 OFFCURVE",
"173 324 CURVE SMOOTH",
"173 275 OFFCURVE",
"196 250 OFFCURVE",
"242 250 CURVE SMOOTH",
"257 250 OFFCURVE",
"273 253 OFFCURVE",
"290 260 CURVE SMOOTH",
"311 269 OFFCURVE",
"321 280 OFFCURVE",
"321 292 CURVE SMOOTH",
"321 297 OFFCURVE",
"318 300 OFFCURVE",
"312 300 CURVE",
"293 284 LINE SMOOTH",
"279 274 OFFCURVE",
"266 268 OFFCURVE",
"253 268 CURVE SMOOTH",
"224 268 OFFCURVE",
"209 290 OFFCURVE",
"209 332 CURVE SMOOTH",
"209 370 OFFCURVE",
"233 389 OFFCURVE",
"280 389 CURVE SMOOTH",
"326 389 OFFCURVE",
"366 373 OFFCURVE",
"401 342 CURVE SMOOTH",
"435 311 OFFCURVE",
"453 273 OFFCURVE",
"453 227 CURVE SMOOTH",
"453 185 OFFCURVE",
"440 147 OFFCURVE",
"414 113 CURVE SMOOTH",
"389 78 OFFCURVE",
"356 54 OFFCURVE",
"316 38 CURVE",
"305 56 OFFCURVE",
"289 74 OFFCURVE",
"269 94 CURVE SMOOTH",
"244 118 OFFCURVE",
"224 131 OFFCURVE",
"210 131 CURVE SMOOTH",
"204 131 OFFCURVE",
"197 127 OFFCURVE",
"190 120 CURVE SMOOTH",
"183 113 OFFCURVE",
"180 106 OFFCURVE",
"180 101 CURVE SMOOTH",
"180 97 OFFCURVE",
"182 95 OFFCURVE",
"185 94 CURVE",
"224 73 OFFCURVE",
"254 51 OFFCURVE",
"275 27 CURVE",
"266 26 OFFCURVE",
"257 25 OFFCURVE",
"248 25 CURVE SMOOTH",
"197 25 OFFCURVE",
"156 47 OFFCURVE",
"125 89 CURVE SMOOTH",
"98 127 OFFCURVE",
"85 173 OFFCURVE",
"85 227 CURVE SMOOTH",
"85 294 OFFCURVE",
"107 347 OFFCURVE",
"152 388 CURVE SMOOTH",
"196 428 OFFCURVE",
"252 448 OFFCURVE",
"319 448 CURVE SMOOTH",
"323 448 OFFCURVE",
"329 448 OFFCURVE",
"337 447 CURVE SMOOTH",
"344 446 OFFCURVE",
"350 446 OFFCURVE",
"355 446 CURVE SMOOTH",
"362 446 OFFCURVE",
"365 449 OFFCURVE",
"365 455 CURVE SMOOTH",
"365 459 OFFCURVE",
"362 463 OFFCURVE",
"356 466 CURVE",
"333 468 OFFCURVE",
"313 468 OFFCURVE",
"297 468 CURVE SMOOTH",
"210 468 OFFCURVE",
"144 446 OFFCURVE",
"98 402 CURVE SMOOTH",
"52 357 OFFCURVE",
"29 292 OFFCURVE",
"29 206 CURVE SMOOTH",
"29 138 OFFCURVE",
"49 83 OFFCURVE",
"90 41 CURVE SMOOTH",
"130 -2 OFFCURVE",
"184 -23 OFFCURVE",
"252 -23 CURVE SMOOTH",
"271 -23 OFFCURVE",
"289 -21 OFFCURVE",
"307 -17 CURVE",
"333 -61 OFFCURVE",
"358 -104 OFFCURVE",
"383 -148 CURVE",
"416 -194 OFFCURVE",
"458 -217 OFFCURVE",
"508 -217 CURVE SMOOTH"
);
}
);
};
layerId = "A20F32D1-A37C-460A-962C-541C205D5E83";
paths = (
{
closed = 1;
nodes = (
"533 -217 OFFCURVE",
"556 -210 OFFCURVE",
"575 -197 CURVE SMOOTH",
"597 -182 OFFCURVE",
"608 -162 OFFCURVE",
"608 -137 CURVE SMOOTH",
"608 -118 OFFCURVE",
"598 -100 OFFCURVE",
"578 -83 CURVE SMOOTH",
"559 -66 OFFCURVE",
"539 -58 OFFCURVE",
"519 -58 CURVE SMOOTH",
"498 -58 OFFCURVE",
"487 -68 OFFCURVE",
"487 -90 CURVE SMOOTH",
"487 -97 OFFCURVE",
"490 -106 OFFCURVE",
"495 -118 CURVE SMOOTH",
"501 -131 OFFCURVE",
"506 -139 OFFCURVE",
"511 -139 CURVE SMOOTH",
"515 -139 OFFCURVE",
"518 -136 OFFCURVE",
"518 -130 CURVE SMOOTH",
"518 -125 OFFCURVE",
"516 -119 OFFCURVE",
"512 -111 CURVE SMOOTH",
"509 -102 OFFCURVE",
"507 -96 OFFCURVE",
"507 -91 CURVE SMOOTH",
"507 -84 OFFCURVE",
"509 -81 OFFCURVE",
"515 -81 CURVE SMOOTH",
"525 -81 OFFCURVE",
"537 -87 OFFCURVE",
"550 -100 CURVE SMOOTH",
"563 -113 OFFCURVE",
"570 -125 OFFCURVE",
"570 -135 CURVE SMOOTH",
"570 -154 OFFCURVE",
"564 -169 OFFCURVE",
"552 -180 CURVE SMOOTH",
"540 -192 OFFCURVE",
"525 -198 OFFCURVE",
"507 -198 CURVE SMOOTH",
"464 -198 OFFCURVE",
"427 -175 OFFCURVE",
"398 -130 CURVE SMOOTH",
"391 -120 OFFCURVE",
"371 -79 OFFCURVE",
"340 -8 CURVE",
"386 8 OFFCURVE",
"423 35 OFFCURVE",
"449 73 CURVE SMOOTH",
"476 112 OFFCURVE",
"489 156 OFFCURVE",
"489 205 CURVE SMOOTH",
"489 265 OFFCURVE",
"468 313 OFFCURVE",
"427 351 CURVE SMOOTH",
"386 388 OFFCURVE",
"335 407 OFFCURVE",
"275 407 CURVE SMOOTH",
"207 407 OFFCURVE",
"173 379 OFFCURVE",
"173 324 CURVE SMOOTH",
"173 275 OFFCURVE",
"196 250 OFFCURVE",
"242 250 CURVE SMOOTH",
"257 250 OFFCURVE",
"273 253 OFFCURVE",
"290 260 CURVE SMOOTH",
"311 269 OFFCURVE",
"321 280 OFFCURVE",
"321 292 CURVE SMOOTH",
"321 297 OFFCURVE",
"318 300 OFFCURVE",
"312 300 CURVE",
"293 284 LINE SMOOTH",
"279 274 OFFCURVE",
"266 268 OFFCURVE",
"253 268 CURVE SMOOTH",
"224 268 OFFCURVE",
"209 290 OFFCURVE",
"209 332 CURVE SMOOTH",
"209 370 OFFCURVE",
"233 389 OFFCURVE",
"280 389 CURVE SMOOTH",
"326 389 OFFCURVE",
"366 373 OFFCURVE",
"401 342 CURVE SMOOTH",
"435 311 OFFCURVE",
"453 273 OFFCURVE",
"453 227 CURVE SMOOTH",
"453 185 OFFCURVE",
"440 147 OFFCURVE",
"414 113 CURVE SMOOTH",
"389 78 OFFCURVE",
"356 54 OFFCURVE",
"316 38 CURVE",
"305 56 OFFCURVE",
"289 74 OFFCURVE",
"269 94 CURVE SMOOTH",
"244 118 OFFCURVE",
"224 131 OFFCURVE",
"210 131 CURVE SMOOTH",
"204 131 OFFCURVE",
"197 127 OFFCURVE",
"190 120 CURVE SMOOTH",
"183 113 OFFCURVE",
"180 106 OFFCURVE",
"180 101 CURVE SMOOTH",
"180 97 OFFCURVE",
"182 95 OFFCURVE",
"185 94 CURVE",
"224 73 OFFCURVE",
"254 51 OFFCURVE",
"275 27 CURVE",
"266 26 OFFCURVE",
"257 25 OFFCURVE",
"248 25 CURVE SMOOTH",
"197 25 OFFCURVE",
"156 47 OFFCURVE",
"125 89 CURVE SMOOTH",
"98 127 OFFCURVE",
"85 173 OFFCURVE",
"85 227 CURVE SMOOTH",
"85 294 OFFCURVE",
"107 347 OFFCURVE",
"152 388 CURVE SMOOTH",
"196 428 OFFCURVE",
"252 448 OFFCURVE",
"319 448 CURVE SMOOTH",
"323 448 OFFCURVE",
"329 448 OFFCURVE",
"337 447 CURVE SMOOTH",
"344 446 OFFCURVE",
"350 446 OFFCURVE",
"355 446 CURVE SMOOTH",
"362 446 OFFCURVE",
"365 449 OFFCURVE",
"365 455 CURVE SMOOTH",
"365 459 OFFCURVE",
"362 463 OFFCURVE",
"356 466 CURVE",
"333 468 OFFCURVE",
"313 468 OFFCURVE",
"297 468 CURVE SMOOTH",
"210 468 OFFCURVE",
"144 446 OFFCURVE",
"98 402 CURVE SMOOTH",
"52 357 OFFCURVE",
"29 292 OFFCURVE",
"29 206 CURVE SMOOTH",
"29 138 OFFCURVE",
"49 83 OFFCURVE",
"90 41 CURVE SMOOTH",
"130 -2 OFFCURVE",
"184 -23 OFFCURVE",
"252 -23 CURVE SMOOTH",
"271 -23 OFFCURVE",
"289 -21 OFFCURVE",
"307 -17 CURVE",
"333 -61 OFFCURVE",
"358 -104 OFFCURVE",
"383 -148 CURVE",
"416 -194 OFFCURVE",
"458 -217 OFFCURVE",
"508 -217 CURVE SMOOTH"
);
}
);
width = 513;
}
);
note = Q;
unicode = 0051;
},
{
glyphname = R;
lastChange = "2021-11-14 00:37:04 +0000";
layers = (
{
anchors = (
{
name = bottom;
position = "{293, -94}";
},
{
name = top;
position = "{334, 597}";
}
);
background = {
paths = (
{
closed = 1;
nodes = (
"524 -122 OFFCURVE",
"549 -114 OFFCURVE",
"568 -97 CURVE SMOOTH",
"586 -80 OFFCURVE",
"595 -56 OFFCURVE",
"595 -25 CURVE SMOOTH",
"595 10 OFFCURVE",
"585 40 OFFCURVE",
"565 67 CURVE SMOOTH",
"544 95 OFFCURVE",
"516 109 OFFCURVE",
"482 109 CURVE SMOOTH",
"472 109 OFFCURVE",
"466 107 OFFCURVE",
"466 102 CURVE SMOOTH",
"466 98 OFFCURVE",
"474 95 OFFCURVE",
"489 91 CURVE SMOOTH",
"498 89 OFFCURVE",
"508 86 OFFCURVE",
"518 84 CURVE",
"557 65 OFFCURVE",
"576 30 OFFCURVE",
"576 -22 CURVE SMOOTH",
"576 -77 OFFCURVE",
"552 -104 OFFCURVE",
"505 -104 CURVE SMOOTH",
"453 -104 OFFCURVE",
"406 -11 OFFCURVE",
"365 175 CURVE",
"371 174 OFFCURVE",
"380 174 OFFCURVE",
"390 174 CURVE SMOOTH",
"446 174 OFFCURVE",
"491 187 OFFCURVE",
"525 213 CURVE SMOOTH",
"562 241 OFFCURVE",
"580 283 OFFCURVE",
"580 339 CURVE SMOOTH",
"580 366 OFFCURVE",
"576 394 OFFCURVE",
"569 423 CURVE SMOOTH",
"554 479 OFFCURVE",
"520 522 OFFCURVE",
"468 554 CURVE SMOOTH",
"421 582 OFFCURVE",
"366 597 OFFCURVE",
"305 597 CURVE SMOOTH",
"234 597 OFFCURVE",
"166 571 OFFCURVE",
"102 519 CURVE SMOOTH",
"34 465 OFFCURVE",
"0 403 OFFCURVE",
"0 333 CURVE SMOOTH",
"0 327 OFFCURVE",
"2 323 OFFCURVE",
"7 323 CURVE SMOOTH",
"13 323 OFFCURVE",
"17 328 OFFCURVE",
"20 338 CURVE SMOOTH",
"33 377 OFFCURVE",
"44 405 OFFCURVE",
"52 420 CURVE SMOOTH",
"79 467 OFFCURVE",
"115 504 OFFCURVE",
"161 532 CURVE SMOOTH",
"206 560 OFFCURVE",
"256 573 OFFCURVE",
"310 573 CURVE SMOOTH",
"398 573 OFFCURVE",
"459 539 OFFCURVE",
"493 469 CURVE SMOOTH",
"513 429 OFFCURVE",
"523 388 OFFCURVE",
"523 345 CURVE SMOOTH",
"523 302 OFFCURVE",
"513 266 OFFCURVE",
"493 238 CURVE SMOOTH",
"471 206 OFFCURVE",
"438 190 OFFCURVE",
"396 190 CURVE SMOOTH",
"385 190 OFFCURVE",
"373 191 OFFCURVE",
"360 194 CURVE",
"343 259 OFFCURVE",
"323 292 OFFCURVE",
"300 292 CURVE SMOOTH",
"291 292 OFFCURVE",
"283 287 OFFCURVE",
"278 278 CURVE SMOOTH",
"272 268 OFFCURVE",
"269 259 OFFCURVE",
"269 249 CURVE SMOOTH",
"269 233 OFFCURVE",
"276 218 OFFCURVE",
"289 204 CURVE SMOOTH",
"303 191 OFFCURVE",
"318 182 OFFCURVE",
"334 178 CURVE",
"353 47 LINE SMOOTH",
"361 -7 OFFCURVE",
"373 -46 OFFCURVE",
"389 -71 CURVE SMOOTH",
"411 -105 OFFCURVE",
"446 -122 OFFCURVE",
"493 -122 CURVE SMOOTH"
);
},
{
closed = 1;
nodes = (
"162 -109 OFFCURVE",
"198 -84 OFFCURVE",
"222 -33 CURVE SMOOTH",
"241 6 OFFCURVE",
"250 52 OFFCURVE",
"250 104 CURVE SMOOTH",
"250 161 OFFCURVE",
"238 242 OFFCURVE",
"216 348 CURVE SMOOTH",
"211 370 OFFCURVE",
"208 393 OFFCURVE",
"204 417 CURVE",
"198 438 OFFCURVE",
"182 448 OFFCURVE",
"158 448 CURVE SMOOTH",
"153 448 OFFCURVE",
"150 445 OFFCURVE",
"149 438 CURVE",
"165 372 OFFCURVE",
"177 326 OFFCURVE",
"182 300 CURVE SMOOTH",
"193 243 OFFCURVE",
"200 203 OFFCURVE",
"203 181 CURVE SMOOTH",
"208 150 OFFCURVE",
"211 122 OFFCURVE",
"211 96 CURVE SMOOTH",
"211 44 OFFCURVE",
"201 -3 OFFCURVE",
"181 -46 CURVE SMOOTH",
"175 -58 OFFCURVE",
"173 -64 OFFCURVE",
"172 -66 CURVE",
"158 -82 OFFCURVE",
"141 -90 OFFCURVE",
"121 -90 CURVE SMOOTH",
"104 -90 OFFCURVE",
"90 -83 OFFCURVE",
"77 -69 CURVE SMOOTH",
"63 -55 OFFCURVE",
"57 -40 OFFCURVE",
"57 -23 CURVE SMOOTH",
"57 -8 OFFCURVE",
"61 7 OFFCURVE",
"69 22 CURVE SMOOTH",
"79 39 OFFCURVE",
"90 48 OFFCURVE",
"104 48 CURVE SMOOTH",
"117 48 OFFCURVE",
"124 39 OFFCURVE",
"126 20 CURVE SMOOTH",
"127 1 OFFCURVE",
"130 -8 OFFCURVE",
"135 -8 CURVE SMOOTH",
"141 -8 OFFCURVE",
"144 0 OFFCURVE",
"144 15 CURVE SMOOTH",
"144 31 OFFCURVE",
"141 44 OFFCURVE",
"136 54 CURVE SMOOTH",
"129 68 OFFCURVE",
"118 75 OFFCURVE",
"104 75 CURVE SMOOTH",
"101 75 LINE",
"58 55 OFFCURVE",
"37 20 OFFCURVE",
"37 -30 CURVE SMOOTH",
"37 -55 OFFCURVE",
"44 -74 OFFCURVE",
"59 -88 CURVE SMOOTH",
"73 -102 OFFCURVE",
"92 -109 OFFCURVE",
"116 -109 CURVE SMOOTH"
);
},
{
closed = 1;
nodes = (
"319 204 OFFCURVE",
"312 209 OFFCURVE",
"307 213 CURVE SMOOTH",
"296 220 OFFCURVE",
"290 231 OFFCURVE",
"290 243 CURVE SMOOTH",
"290 260 OFFCURVE",
"295 268 OFFCURVE",
"304 268 CURVE SMOOTH",
"313 268 OFFCURVE",
"319 259 OFFCURVE",
"322 240 CURVE SMOOTH",
"325 221 OFFCURVE",
"327 207 OFFCURVE",
"329 199 CURVE"
);
}
);
};
layerId = "A20F32D1-A37C-460A-962C-541C205D5E83";
paths = (
{
closed = 1;
nodes = (
"524 -122 OFFCURVE",
"549 -114 OFFCURVE",
"568 -97 CURVE SMOOTH",
"586 -80 OFFCURVE",
"595 -56 OFFCURVE",
"595 -25 CURVE SMOOTH",
"595 10 OFFCURVE",
"585 40 OFFCURVE",
"565 67 CURVE SMOOTH",
"544 95 OFFCURVE",
"516 109 OFFCURVE",
"482 109 CURVE SMOOTH",
"472 109 OFFCURVE",
"466 107 OFFCURVE",
"466 102 CURVE SMOOTH",
"466 98 OFFCURVE",
"474 95 OFFCURVE",
"489 91 CURVE SMOOTH",
"498 89 OFFCURVE",
"508 86 OFFCURVE",
"518 84 CURVE",
"557 65 OFFCURVE",
"576 30 OFFCURVE",
"576 -22 CURVE SMOOTH",
"576 -77 OFFCURVE",
"552 -104 OFFCURVE",
"505 -104 CURVE SMOOTH",
"453 -104 OFFCURVE",
"406 -11 OFFCURVE",
"365 175 CURVE",
"371 174 OFFCURVE",
"380 174 OFFCURVE",
"390 174 CURVE SMOOTH",
"446 174 OFFCURVE",
"491 187 OFFCURVE",
"525 213 CURVE SMOOTH",
"562 241 OFFCURVE",
"580 283 OFFCURVE",
"580 339 CURVE SMOOTH",
"580 366 OFFCURVE",
"576 394 OFFCURVE",
"569 423 CURVE SMOOTH",
"554 479 OFFCURVE",
"520 522 OFFCURVE",
"468 554 CURVE SMOOTH",
"421 582 OFFCURVE",
"366 597 OFFCURVE",
"305 597 CURVE SMOOTH",
"234 597 OFFCURVE",
"166 571 OFFCURVE",
"102 519 CURVE SMOOTH",
"34 465 OFFCURVE",
"0 403 OFFCURVE",
"0 333 CURVE SMOOTH",
"0 327 OFFCURVE",
"2 323 OFFCURVE",
"7 323 CURVE SMOOTH",
"13 323 OFFCURVE",
"17 328 OFFCURVE",
"20 338 CURVE SMOOTH",
"33 377 OFFCURVE",
"44 405 OFFCURVE",
"52 420 CURVE SMOOTH",
"79 467 OFFCURVE",
"115 504 OFFCURVE",
"161 532 CURVE SMOOTH",
"206 560 OFFCURVE",
"256 573 OFFCURVE",
"310 573 CURVE SMOOTH",
"398 573 OFFCURVE",
"459 539 OFFCURVE",
"493 469 CURVE SMOOTH",
"513 429 OFFCURVE",
"523 388 OFFCURVE",
"523 345 CURVE SMOOTH",
"523 302 OFFCURVE",
"513 266 OFFCURVE",
"493 238 CURVE SMOOTH",
"471 206 OFFCURVE",
"438 190 OFFCURVE",
"396 190 CURVE SMOOTH",
"385 190 OFFCURVE",
"373 191 OFFCURVE",
"360 194 CURVE",
"343 259 OFFCURVE",
"323 292 OFFCURVE",
"300 292 CURVE SMOOTH",
"291 292 OFFCURVE",
"283 287 OFFCURVE",
"278 278 CURVE SMOOTH",
"272 268 OFFCURVE",
"269 259 OFFCURVE",
"269 249 CURVE SMOOTH",
"269 233 OFFCURVE",
"276 218 OFFCURVE",
"289 204 CURVE SMOOTH",
"303 191 OFFCURVE",
"318 182 OFFCURVE",
"334 178 CURVE",
"353 47 LINE SMOOTH",
"361 -7 OFFCURVE",
"373 -46 OFFCURVE",
"389 -71 CURVE SMOOTH",
"411 -105 OFFCURVE",
"446 -122 OFFCURVE",
"493 -122 CURVE SMOOTH"
);
},
{
closed = 1;
nodes = (
"162 -109 OFFCURVE",
"198 -84 OFFCURVE",
"222 -33 CURVE SMOOTH",
"241 6 OFFCURVE",
"250 52 OFFCURVE",
"250 104 CURVE SMOOTH",
"250 161 OFFCURVE",
"238 242 OFFCURVE",
"216 348 CURVE SMOOTH",
"211 370 OFFCURVE",
"208 393 OFFCURVE",
"204 417 CURVE",
"198 438 OFFCURVE",
"182 448 OFFCURVE",
"158 448 CURVE SMOOTH",
"153 448 OFFCURVE",
"150 445 OFFCURVE",
"149 438 CURVE",
"165 372 OFFCURVE",
"177 326 OFFCURVE",
"182 300 CURVE SMOOTH",
"193 243 OFFCURVE",
"200 203 OFFCURVE",
"203 181 CURVE SMOOTH",
"208 150 OFFCURVE",
"211 122 OFFCURVE",
"211 96 CURVE SMOOTH",
"211 44 OFFCURVE",
"201 -3 OFFCURVE",
"181 -46 CURVE SMOOTH",
"175 -58 OFFCURVE",
"173 -64 OFFCURVE",
"172 -66 CURVE",
"158 -82 OFFCURVE",
"141 -90 OFFCURVE",
"121 -90 CURVE SMOOTH",
"104 -90 OFFCURVE",
"90 -83 OFFCURVE",
"77 -69 CURVE SMOOTH",
"63 -55 OFFCURVE",
"57 -40 OFFCURVE",
"57 -23 CURVE SMOOTH",
"57 -8 OFFCURVE",
"61 7 OFFCURVE",
"69 22 CURVE SMOOTH",
"79 39 OFFCURVE",
"90 48 OFFCURVE",
"104 48 CURVE SMOOTH",
"117 48 OFFCURVE",
"124 39 OFFCURVE",
"126 20 CURVE SMOOTH",
"127 1 OFFCURVE",
"130 -8 OFFCURVE",
"135 -8 CURVE SMOOTH",
"141 -8 OFFCURVE",
"144 0 OFFCURVE",
"144 15 CURVE SMOOTH",
"144 31 OFFCURVE",
"141 44 OFFCURVE",
"136 54 CURVE SMOOTH",
"129 68 OFFCURVE",
"118 75 OFFCURVE",
"104 75 CURVE SMOOTH",
"101 75 LINE",
"58 55 OFFCURVE",
"37 20 OFFCURVE",
"37 -30 CURVE SMOOTH",
"37 -55 OFFCURVE",
"44 -74 OFFCURVE",
"59 -88 CURVE SMOOTH",
"73 -102 OFFCURVE",
"92 -109 OFFCURVE",
"116 -109 CURVE SMOOTH"
);
},
{
closed = 1;
nodes = (
"319 204 OFFCURVE",
"312 209 OFFCURVE",
"307 213 CURVE SMOOTH",
"296 220 OFFCURVE",
"290 231 OFFCURVE",
"290 243 CURVE SMOOTH",
"290 260 OFFCURVE",
"295 268 OFFCURVE",
"304 268 CURVE SMOOTH",
"313 268 OFFCURVE",
"319 259 OFFCURVE",
"322 240 CURVE SMOOTH",
"325 221 OFFCURVE",
"327 207 OFFCURVE",
"329 199 CURVE"
);
}
);
width = 611;
}
);
note = R;
unicode = 0052;
},
{
glyphname = S;
lastChange = "2021-11-25 05:07:49 +0000";
layers = (
{
anchors = (
{
name = bottom;
position = "{202, -70}";
},
{
name = top;
position = "{255, 469}";
}
);
background = {
paths = (
{
closed = 1;
nodes = (
"211 -75 OFFCURVE",
"274 -60 OFFCURVE",
"329 -30 CURVE SMOOTH",
"410 14 OFFCURVE",
"451 56 OFFCURVE",
"451 96 CURVE SMOOTH",
"451 110 OFFCURVE",
"447 121 OFFCURVE",
"441 132 CURVE SMOOTH",
"416 175 OFFCURVE",
"368 207 OFFCURVE",
"296 223 CURVE SMOOTH",
"214 242 OFFCURVE",
"152 253 OFFCURVE",
"111 261 CURVE SMOOTH",
"49 273 OFFCURVE",
"19 291 OFFCURVE",
"19 312 CURVE SMOOTH",
"19 335 OFFCURVE",
"43 356 OFFCURVE",
"92 375 CURVE SMOOTH",
"155 401 OFFCURVE",
"218 413 OFFCURVE",
"282 413 CURVE SMOOTH",
"305 413 OFFCURVE",
"323 411 OFFCURVE",
"338 406 CURVE",
"358 355 OFFCURVE",
"382 330 OFFCURVE",
"409 330 CURVE SMOOTH",
"426 330 OFFCURVE",
"435 338 OFFCURVE",
"435 354 CURVE SMOOTH",
"435 380 OFFCURVE",
"406 408 OFFCURVE",
"348 437 CURVE",
"343 446 OFFCURVE",
"340 459 OFFCURVE",
"340 475 CURVE SMOOTH",
"340 478 OFFCURVE",
"341 483 OFFCURVE",
"342 488 CURVE SMOOTH",
"342 493 OFFCURVE",
"343 497 OFFCURVE",
"343 500 CURVE SMOOTH",
"343 502 OFFCURVE",
"342 503 OFFCURVE",
"340 503 CURVE SMOOTH",
"332 503 OFFCURVE",
"328 492 OFFCURVE",
"328 469 CURVE SMOOTH",
"328 459 OFFCURVE",
"329 450 OFFCURVE",
"330 441 CURVE",
"306 447 OFFCURVE",
"281 449 OFFCURVE",
"254 449 CURVE SMOOTH",
"191 449 OFFCURVE",
"135 437 OFFCURVE",
"86 414 CURVE SMOOTH",
"29 387 OFFCURVE",
"0 359 OFFCURVE",
"0 330 CURVE SMOOTH",
"0 326 LINE SMOOTH",
"0 287 OFFCURVE",
"35 256 OFFCURVE",
"105 233 CURVE",
"186 216 OFFCURVE",
"246 204 OFFCURVE",
"286 195 CURVE SMOOTH",
"379 175 OFFCURVE",
"425 149 OFFCURVE",
"425 118 CURVE SMOOTH",
"425 113 OFFCURVE",
"424 107 OFFCURVE",
"420 101 CURVE",
"399 60 OFFCURVE",
"356 22 OFFCURVE",
"294 -12 CURVE SMOOTH",
"232 -47 OFFCURVE",
"177 -64 OFFCURVE",
"129 -64 CURVE SMOOTH",
"102 -64 OFFCURVE",
"82 -59 OFFCURVE",
"70 -51 CURVE SMOOTH",
"56 -41 OFFCURVE",
"49 -24 OFFCURVE",
"49 2 CURVE SMOOTH",
"49 40 OFFCURVE",
"64 77 OFFCURVE",
"94 112 CURVE SMOOTH",
"124 147 OFFCURVE",
"157 165 OFFCURVE",
"194 165 CURVE SMOOTH",
"222 165 OFFCURVE",
"236 156 OFFCURVE",
"236 138 CURVE SMOOTH",
"236 124 OFFCURVE",
"225 109 OFFCURVE",
"203 93 CURVE SMOOTH",
"182 77 OFFCURVE",
"164 69 OFFCURVE",
"149 69 CURVE SMOOTH",
"144 69 OFFCURVE",
"140 71 OFFCURVE",
"136 75 CURVE SMOOTH",
"131 80 OFFCURVE",
"129 83 OFFCURVE",
"129 85 CURVE SMOOTH",
"129 86 OFFCURVE",
"129 86 OFFCURVE",
"130 86 CURVE SMOOTH",
"125 86 OFFCURVE",
"123 81 OFFCURVE",
"123 72 CURVE SMOOTH",
"123 56 OFFCURVE",
"134 48 OFFCURVE",
"154 48 CURVE SMOOTH",
"175 48 OFFCURVE",
"197 55 OFFCURVE",
"220 69 CURVE SMOOTH",
"245 85 OFFCURVE",
"258 102 OFFCURVE",
"258 122 CURVE SMOOTH",
"258 140 OFFCURVE",
"247 155 OFFCURVE",
"225 168 CURVE SMOOTH",
"206 179 OFFCURVE",
"187 185 OFFCURVE",
"167 185 CURVE SMOOTH",
"148 185 OFFCURVE",
"130 181 OFFCURVE",
"113 174 CURVE SMOOTH",
"90 163 OFFCURVE",
"68 142 OFFCURVE",
"49 111 CURVE SMOOTH",
"29 81 OFFCURVE",
"19 53 OFFCURVE",
"19 27 CURVE SMOOTH",
"19 -41 OFFCURVE",
"59 -75 OFFCURVE",
"140 -75 CURVE SMOOTH"
);
}
);
};
layerId = "A20F32D1-A37C-460A-962C-541C205D5E83";
paths = (
{
closed = 1;
nodes = (
"211 -75 OFFCURVE",
"274 -60 OFFCURVE",
"329 -30 CURVE SMOOTH",
"410 14 OFFCURVE",
"451 56 OFFCURVE",
"451 96 CURVE SMOOTH",
"451 110 OFFCURVE",
"447 121 OFFCURVE",
"441 132 CURVE SMOOTH",
"416 175 OFFCURVE",
"368 207 OFFCURVE",
"296 223 CURVE SMOOTH",
"214 242 OFFCURVE",
"152 253 OFFCURVE",
"111 261 CURVE SMOOTH",
"49 273 OFFCURVE",
"19 291 OFFCURVE",
"19 312 CURVE SMOOTH",
"19 335 OFFCURVE",
"43 356 OFFCURVE",
"92 375 CURVE SMOOTH",
"155 401 OFFCURVE",
"218 413 OFFCURVE",
"282 413 CURVE SMOOTH",
"305 413 OFFCURVE",
"323 411 OFFCURVE",
"338 406 CURVE",
"358 355 OFFCURVE",
"382 330 OFFCURVE",
"409 330 CURVE SMOOTH",
"426 330 OFFCURVE",
"435 338 OFFCURVE",
"435 354 CURVE SMOOTH",
"435 380 OFFCURVE",
"406 408 OFFCURVE",
"348 437 CURVE",
"343 446 OFFCURVE",
"340 459 OFFCURVE",
"340 475 CURVE SMOOTH",
"340 478 OFFCURVE",
"341 483 OFFCURVE",
"342 488 CURVE SMOOTH",
"342 493 OFFCURVE",
"343 497 OFFCURVE",
"343 500 CURVE SMOOTH",
"343 502 OFFCURVE",
"342 503 OFFCURVE",
"340 503 CURVE SMOOTH",
"332 503 OFFCURVE",
"328 492 OFFCURVE",
"328 469 CURVE SMOOTH",
"328 459 OFFCURVE",
"329 450 OFFCURVE",
"330 441 CURVE",
"306 447 OFFCURVE",
"281 449 OFFCURVE",
"254 449 CURVE SMOOTH",
"191 449 OFFCURVE",
"135 437 OFFCURVE",
"86 414 CURVE SMOOTH",
"29 387 OFFCURVE",
"0 359 OFFCURVE",
"0 330 CURVE SMOOTH",
"0 326 LINE SMOOTH",
"0 287 OFFCURVE",
"35 256 OFFCURVE",
"105 233 CURVE",
"186 216 OFFCURVE",
"246 204 OFFCURVE",
"286 195 CURVE SMOOTH",
"379 175 OFFCURVE",
"425 149 OFFCURVE",
"425 118 CURVE SMOOTH",
"425 113 OFFCURVE",
"424 107 OFFCURVE",
"420 101 CURVE",
"399 60 OFFCURVE",
"356 22 OFFCURVE",
"294 -12 CURVE SMOOTH",
"232 -47 OFFCURVE",
"177 -64 OFFCURVE",
"129 -64 CURVE SMOOTH",
"102 -64 OFFCURVE",
"82 -59 OFFCURVE",
"70 -51 CURVE SMOOTH",
"56 -41 OFFCURVE",
"49 -24 OFFCURVE",
"49 2 CURVE SMOOTH",
"49 40 OFFCURVE",
"64 77 OFFCURVE",
"94 112 CURVE SMOOTH",
"124 147 OFFCURVE",
"157 165 OFFCURVE",
"194 165 CURVE SMOOTH",
"222 165 OFFCURVE",
"236 156 OFFCURVE",
"236 138 CURVE SMOOTH",
"236 124 OFFCURVE",
"225 109 OFFCURVE",
"203 93 CURVE SMOOTH",
"182 77 OFFCURVE",
"164 69 OFFCURVE",
"149 69 CURVE SMOOTH",
"144 69 OFFCURVE",
"140 71 OFFCURVE",
"136 75 CURVE SMOOTH",
"131 80 OFFCURVE",
"129 83 OFFCURVE",
"129 85 CURVE SMOOTH",
"129 86 OFFCURVE",
"129 86 OFFCURVE",
"130 86 CURVE SMOOTH",
"125 86 OFFCURVE",
"123 81 OFFCURVE",
"123 72 CURVE SMOOTH",
"123 56 OFFCURVE",
"134 48 OFFCURVE",
"154 48 CURVE SMOOTH",
"175 48 OFFCURVE",
"197 55 OFFCURVE",
"220 69 CURVE SMOOTH",
"245 85 OFFCURVE",
"258 102 OFFCURVE",
"258 122 CURVE SMOOTH",
"258 140 OFFCURVE",
"247 155 OFFCURVE",
"225 168 CURVE SMOOTH",
"206 179 OFFCURVE",
"187 185 OFFCURVE",
"167 185 CURVE SMOOTH",
"148 185 OFFCURVE",
"130 181 OFFCURVE",
"113 174 CURVE SMOOTH",
"90 163 OFFCURVE",
"68 142 OFFCURVE",
"49 111 CURVE SMOOTH",
"29 81 OFFCURVE",
"19 53 OFFCURVE",
"19 27 CURVE SMOOTH",
"19 -41 OFFCURVE",
"59 -75 OFFCURVE",
"140 -75 CURVE SMOOTH"
);
}
);
width = 492;
}
);
note = S;
unicode = 0053;
},
